<?xml version="1.0" encoding="UTF-8"?>
<svg width="89px" height="80px" viewBox="0 0 89 80" version="1.1" xmlns="http://www.w3.org/2000/svg" xmlns:xlink="http://www.w3.org/1999/xlink">
    <!-- Generator: Sketch 64 (93537) - https://sketch.com -->
    <title>footer-logo</title>
    <desc>Created with Sketch.</desc>
    <defs>
        <polygon id="path-1" points="0.633166457 80.0342684 89.0126382 80.0342684 89.0126382 0.0342731257 0.633166457 0.0342731257"></polygon>
    </defs>
    <g id="Page-2" stroke="none" stroke-width="1" fill="none" fill-rule="evenodd">
        <g id="assets" transform="translate(-375.000000, -2070.000000)">
            <g id="footer-logo" transform="translate(375.000000, 2070.000000)">
                <path d="M16.9471393,60.5371241 C15.1382202,60.5371241 13.6798805,61.1316616 12.5735296,62.3223223 L11.9791302,60.8617056 L8.19921523,60.8617056 L8.19921523,74.2537753 L12.9558196,74.2537753 L12.9558196,67.0610004 C12.9558196,65.4666393 13.9444887,64.4100755 15.4163935,64.4012649 C16.5909224,64.3942164 17.5362535,65.3709565 17.5362535,66.5455819 L17.5362535,74.2537753 L22.2928579,74.2537753 L22.2928579,65.785582 C22.2928579,64.2437319 21.8071558,62.9989742 20.807388,62.0248774 C19.8090296,61.0238202 18.5398971,60.5371241 16.9471393,60.5371241" id="Fill-1" fill="#36393B"></path>
                <mask id="mask-2" fill="white">
                    <use xlink:href="#path-1"></use>
                </mask>
                <g id="Clip-4"></g>
                <polygon id="Fill-3" fill="#36393B" mask="url(#mask-2)" points="0.799999952 59.4519788 5.55660437 59.4519788 5.55660437 54.6942699 0.799999952 54.6942699"></polygon>
                <polygon id="Fill-5" fill="#36393B" mask="url(#mask-2)" points="0.799999952 74.2537401 5.55660437 74.2537401 5.55660437 60.8616704 0.799999952 60.8616704"></polygon>
                <path d="M81.4369001,70.847379 C79.9965298,70.847379 79.0196642,69.7633262 79.0196642,68.2727536 L79.0196642,66.8605951 C79.0196642,65.3414763 79.9965298,64.2574235 81.4369001,64.2574235 C82.9842059,64.2574235 84.0965466,65.6124895 84.0965466,67.5666744 C84.0965466,69.492313 82.9842059,70.847379 81.4369001,70.847379 M87.0895078,62.5115205 C85.9236112,61.1887012 84.4374366,60.5416528 82.6244657,60.5416528 C80.9962976,60.5416528 79.6737854,61.0537232 78.6430116,62.1062342 L78.0456173,60.8616528 L74.2630598,60.8616528 L74.2630598,79.8924886 L79.0196642,79.8924886 L79.0196642,73.314163 C80.0791538,74.1534581 81.266367,74.5872907 82.6244657,74.5872907 C84.4374366,74.5872907 85.9236112,73.9330176 87.0895078,72.6385684 C88.2485338,71.3087006 88.8457519,69.6304628 88.8457519,67.5751325 C88.8457519,65.491256 88.2485338,63.8130182 87.0895078,62.5115205" id="Fill-6" fill="#36393B" mask="url(#mask-2)"></path>
                <path d="M69.3021151,54.5652126 C67.7548093,54.5652126 66.5885604,55.7053006 66.5885604,57.306534 C66.5885604,58.8538467 67.7548093,60.0210713 69.3021151,60.0210713 C70.9301071,60.0210713 72.0428001,58.8538467 72.0428001,57.306534 C72.0428001,55.7053006 70.9301071,54.5652126 69.3021151,54.5652126" id="Fill-7" fill="#36393B" mask="url(#mask-2)"></path>
                <polygon id="Fill-8" fill="#36393B" mask="url(#mask-2)" points="66.8639502 74.2537401 71.6205546 74.2537401 71.6205546 60.8616704 66.8639502 60.8616704"></polygon>
                <path d="M41.491958,70.9045244 C39.8590333,70.9045244 38.7183291,69.5207359 38.7183291,67.5667273 C38.7183291,65.5839961 39.8590333,64.2003838 41.491958,64.2003838 C43.1178358,64.2003838 44.2870797,65.5839961 44.2870797,67.5667273 C44.2870797,69.5207359 43.1178358,70.9045244 41.491958,70.9045244 M46.9965825,62.4886659 C45.5847518,61.1621461 43.7379561,60.5129832 41.491958,60.5129832 C39.2387368,60.5129832 37.4206569,61.1621461 35.9801105,62.4886659 C34.5399164,63.8224103 33.8338249,65.5054058 33.8338249,67.5667273 C33.8338249,69.6278725 34.5399164,71.3110442 35.9801105,72.6447886 C37.4206569,73.9427621 39.2387368,74.5989735 41.491958,74.5989735 C43.7379561,74.5989735 45.5847518,73.9427621 46.9965825,72.6447886 C48.4369528,71.3110442 49.1428681,69.6278725 49.1428681,67.5667273 C49.1428681,65.4768595 48.4369528,63.7936878 46.9965825,62.4886659" id="Fill-9" fill="#36393B" mask="url(#mask-2)"></path>
                <path d="M31.8287223,58.6631507 C32.2613971,58.6631507 32.7752866,58.7176 33.3966401,58.8257939 L33.9908633,55.2973359 C32.8827506,54.9986575 31.7751665,54.8633271 30.6670538,54.8633271 C29.1810554,54.8633271 27.9645978,55.2973359 27.0185621,56.1658821 C26.0996565,57.0344283 25.6400276,58.1746926 25.6400276,59.6129304 L25.6400276,60.8617409 L23.3498107,60.8617409 L23.3498107,64.3859697 L25.6400276,64.3859697 L25.6400276,74.2538106 L30.396632,74.2538106 L30.396632,64.3859697 L33.2153606,64.3859697 L33.2153606,60.8617409 L30.396632,60.8617409 L30.396632,60.1017409 C30.396632,59.2057057 30.9646058,58.6631507 31.8287223,58.6631507" id="Fill-10" fill="#36393B" mask="url(#mask-2)"></path>
                <path d="M57.653878,70.847379 C56.2135077,70.847379 55.2366421,69.7633262 55.2366421,68.2727536 L55.2366421,66.8605951 C55.2366421,65.3414763 56.2135077,64.2574235 57.653878,64.2574235 C59.1939608,64.2574235 60.3064777,65.6124895 60.3064777,67.5666744 C60.3064777,69.492313 59.1939608,70.847379 57.653878,70.847379 M63.2874593,62.5183927 C62.1301951,61.1969831 60.6392639,60.5506396 58.8289355,60.5506396 C57.4518104,60.5506396 56.2661827,60.976895 55.2366421,61.8151329 L55.2366421,55.2228866 L50.4800377,55.2228866 L50.4800377,74.2537224 L54.2641808,74.2537224 L54.860518,73.0105507 C55.8826594,74.0618282 57.2102806,74.5805947 58.8289355,74.5805947 C60.6392639,74.5805947 62.1301951,73.9270264 63.2874593,72.6341631 C64.4517704,71.305705 65.0481076,69.6292293 65.0481076,67.576366 C65.0481076,65.4947802 64.4517704,63.8183046 63.2874593,62.5183927" id="Fill-11" fill="#36393B" mask="url(#mask-2)"></path>
                <path d="M49.0707263,19.1098843 L49.0707263,25.0804567 C49.0707263,25.7697958 48.5159652,26.324157 47.8333044,26.324157 L41.8519625,26.324157 C41.1691255,26.324157 40.6145406,25.7697958 40.6145406,25.0804567 L40.6145406,19.1098843 C40.6145406,18.4205452 41.1691255,17.8660077 41.8519625,17.8660077 L47.8333044,17.8660077 C48.5159652,17.8660077 49.0707263,18.4205452 49.0707263,19.1098843" id="Fill-12" fill="#FF5A00" mask="url(#mask-2)"></path>
                <path d="M51.17496,28.3405093 C50.818567,28.6969851 49.7418127,29.7741656 44.8432148,29.7741656 C39.9375701,29.7741656 38.860992,28.6969851 38.5114696,28.3405093 C38.1549005,27.9840336 37.0781462,26.9070292 37.0781462,22.0072938 C37.0781462,17.1075585 38.1549005,16.0307303 38.5114696,15.6740784 C38.860992,15.3174264 39.9375701,14.2476467 44.8432148,14.2476467 C49.7418127,14.2476467 50.818567,15.3174264 51.17496,15.6740784 C51.5243061,16.0307303 52.6010604,17.1075585 52.6010604,22.0072938 C52.6010604,26.9070292 51.5243061,27.9840336 51.17496,28.3405093 M55.1465485,11.8014795 C53.4494977,10.1040346 49.4137831,9.0055325 44.8717544,9.0055325 C40.3295496,9.0055325 36.301058,10.1040346 34.603831,11.8014795 C32.8999096,13.4987481 31.8088855,17.535576 31.8088855,22.0786595 C31.8088855,26.6217429 32.8999096,30.6583946 34.603831,32.3558395 C36.301058,34.0532843 40.3295496,35.1516102 44.8717544,35.1516102 C49.4137831,35.1516102 53.4494977,34.0532843 55.1465485,32.3558395 C55.9949858,31.5072052 56.6938543,30.0735489 57.1788518,28.283593 C57.6707199,26.493461 57.9416702,24.3465008 57.9416702,22.0786595 C57.9416702,17.535576 56.8435992,13.4987481 55.1465485,11.8014795" id="Fill-13" fill="#FF5A00" mask="url(#mask-2)"></path>
                <path d="M49.0707263,19.1098843 L49.0707263,25.0804567 C49.0707263,25.7697958 48.5159652,26.324157 47.8333044,26.324157 L41.8519625,26.324157 C41.1691255,26.324157 40.6145406,25.7697958 40.6145406,25.0804567 L40.6145406,19.1098843 C40.6145406,18.4205452 41.1691255,17.8660077 41.8519625,17.8660077 L47.8333044,17.8660077 C48.5159652,17.8660077 49.0707263,18.4205452 49.0707263,19.1098843" id="Fill-14" fill="#FF5A00" mask="url(#mask-2)"></path>
                <path d="M49.0707263,19.1098843 L49.0707263,25.0804567 C49.0707263,25.7697958 48.5159652,26.324157 47.8333044,26.324157 L41.8519625,26.324157 C41.1691255,26.324157 40.6145406,25.7697958 40.6145406,25.0804567 L40.6145406,19.1098843 C40.6145406,18.4205452 41.1691255,17.8660077 41.8519625,17.8660077 L47.8333044,17.8660077 C48.5159652,17.8660077 49.0707263,18.4205452 49.0707263,19.1098843" id="Fill-15" fill="#FF5A00" mask="url(#mask-2)"></path>
                <path d="M49.0707263,19.1098843 L49.0707263,25.0804567 C49.0707263,25.7697958 48.5159652,26.324157 47.8333044,26.324157 L41.8519625,26.324157 C41.1691255,26.324157 40.6145406,25.7697958 40.6145406,25.0804567 L40.6145406,19.1098843 C40.6145406,18.4205452 41.1691255,17.8660077 41.8519625,17.8660077 L47.8333044,17.8660077 C48.5159652,17.8660077 49.0707263,18.4205452 49.0707263,19.1098843" id="Fill-16" fill="#FF5A00" mask="url(#mask-2)"></path>
                <path d="M51.17496,28.3405093 C50.818567,28.6969851 49.7418127,29.7741656 44.8432148,29.7741656 C39.9375701,29.7741656 38.860992,28.6969851 38.5114696,28.3405093 C38.1549005,27.9840336 37.0781462,26.9070292 37.0781462,22.0072938 C37.0781462,17.1075585 38.1549005,16.0307303 38.5114696,15.6740784 C38.860992,15.3174264 39.9375701,14.2476467 44.8432148,14.2476467 C49.7418127,14.2476467 50.818567,15.3174264 51.17496,15.6740784 C51.5243061,16.0307303 52.6010604,17.1075585 52.6010604,22.0072938 C52.6010604,26.9070292 51.5243061,27.9840336 51.17496,28.3405093 M55.1465485,11.8014795 C53.4494977,10.1040346 49.4137831,9.0055325 44.8717544,9.0055325 C40.3295496,9.0055325 36.301058,10.1040346 34.603831,11.8014795 C32.8999096,13.4987481 31.8088855,17.535576 31.8088855,22.0786595 C31.8088855,26.6217429 32.8999096,30.6583946 34.603831,32.3558395 C36.301058,34.0532843 40.3295496,35.1516102 44.8717544,35.1516102 C49.4137831,35.1516102 53.4494977,34.0532843 55.1465485,32.3558395 C55.9949858,31.5072052 56.6938543,30.0735489 57.1788518,28.283593 C57.6707199,26.493461 57.9416702,24.3465008 57.9416702,22.0786595 C57.9416702,17.535576 56.8435992,13.4987481 55.1465485,11.8014795" id="Fill-17" fill="#FF5A00" mask="url(#mask-2)"></path>
                <path d="M57.4283269,34.6880684 C55.0324076,37.0843678 50.3480331,38.5106233 44.8932649,38.5106233 C39.4384966,38.5106233 34.7465468,37.0843678 32.3578505,34.6880684 C29.9621074,32.2915928 28.5289601,27.6059543 28.5289601,22.1499194 C28.5289601,16.6938845 29.9621074,12.008246 32.3578505,9.61177035 C34.7465468,7.21547094 39.4384966,5.78199084 44.8932649,5.78199084 C50.3480331,5.78199084 55.0324076,7.21547094 57.4283269,9.61177035 C59.8170231,12.008246 61.2501704,16.6938845 61.2501704,22.1499194 C61.2501704,27.6059543 59.8170231,32.2915928 57.4283269,34.6880684 M44.8717721,0.176176201 C32.7785457,0.176176201 22.9744794,9.98269544 22.9744794,22.0785538 C22.9744794,34.0746764 32.614531,43.8170547 44.572106,43.9809313 C56.8223002,44.1451604 66.9330795,34.0246323 66.7690647,21.7719458 C66.6052261,9.81864259 56.8651097,0.176176201 44.8717721,0.176176201" id="Fill-18" fill="#FF5A00" mask="url(#mask-2)"></path>
            </g>
        </g>
    </g>
</svg>