<?xml version="1.0" encoding="UTF-8"?>
<svg width="61px" height="51px" viewBox="0 0 61 51" version="1.1" xmlns="http://www.w3.org/2000/svg" xmlns:xlink="http://www.w3.org/1999/xlink">
    <title>ic-active_users</title>
    <g id="final---draft" stroke="none" stroke-width="1" fill="none" fill-rule="evenodd" stroke-linecap="round" stroke-linejoin="round">
        <g id="assets" transform="translate(-522.000000, -825.000000)" stroke-width="2">
            <g id="ic-active_users" transform="translate(523.000000, 826.000000)">
                <path d="M38.71538,9.56492 C38.84318,14.93072 34.59878,19.38392 29.23298,19.51172 C23.86898,19.63952 19.41398,15.39512 19.28618,10.02932 C19.16018,4.66352 23.40458,0.21032 28.77038,0.08252 C34.13438,-0.04528 38.58758,4.20092 38.71538,9.56492 Z" id="Stroke-1" stroke="#FF5A00"></path>
                <path d="M12.80168,47.67344 L12.80168,31.69844 C12.80168,24.96644 18.25928,19.50704 24.99308,19.50704 L33.01028,19.50704 C39.74228,19.50704 45.20168,24.96644 45.20168,31.69844 L45.20168,47.67344 C45.20168,48.22244 44.75708,48.66704 44.20808,48.66704 L29.00168,48.66704 L13.79528,48.66704 C13.24628,48.66704 12.80168,48.22244 12.80168,47.67344 Z" id="Stroke-3" stroke="#FF5A00"></path>
                <path d="M16.15562,13.04018 C16.15562,16.61858 13.28282,19.52018 9.73862,19.52018 C6.19442,19.52018 3.31982,16.61858 3.31982,13.04018 C3.31982,9.46178 6.19442,6.56018 9.73862,6.56018 C13.28282,6.56018 16.15562,9.46178 16.15562,13.04018 Z" id="Stroke-5" stroke="#373A3B"></path>
                <path d="M6.60176,42.19964 L1.21076,42.19964 C0.58616,42.19964 0.08036,41.69384 0.08036,41.06924 L0.08036,27.86624 C0.08036,23.31764 3.76676,19.51964 8.31356,19.51964 L9.79856,19.51964" id="Stroke-7" stroke="#373A3B"></path>
                <path d="M42.32402,13.04018 C42.32402,16.61858 45.19862,19.52018 48.74102,19.52018 C52.28702,19.52018 55.15982,16.61858 55.15982,13.04018 C55.15982,9.46178 52.28702,6.56018 48.74102,6.56018 C45.19862,6.56018 42.32402,9.46178 42.32402,13.04018 Z" id="Stroke-9" stroke="#373A3B"></path>
                <path d="M51.87788,42.19964 L57.26888,42.19964 C57.89348,42.19964 58.39928,41.69384 58.39928,41.06924 L58.39928,27.86624 C58.39928,23.31764 54.71288,19.51964 50.16608,19.51964 L48.68108,19.51964" id="Stroke-11" stroke="#373A3B"></path>
            </g>
        </g>
    </g>
</svg>