<?xml version="1.0" encoding="UTF-8"?>
<svg width="57px" height="57px" viewBox="0 0 57 57" version="1.1" xmlns="http://www.w3.org/2000/svg" xmlns:xlink="http://www.w3.org/1999/xlink">
    <title>ic-activation_fee</title>
    <g id="final---draft" stroke="none" stroke-width="1" fill="none" fill-rule="evenodd">
        <g id="assets" transform="translate(-254.000000, -821.000000)" stroke-width="2">
            <g id="ic-activation_fee" transform="translate(255.000000, 822.000000)">
                <g id="Group-25" transform="translate(21.000000, 13.000000)" stroke="#FF5A00" stroke-linecap="round" stroke-linejoin="round">
                    <path d="M11.8551605,6.98009428 C11.8551605,6.98009428 9.61308038,5.50589422 6.57558026,5.50589422 C3.47004014,5.50751422 1.14210005,7.12751428 0.837540033,9.34853437 C0.583200023,11.2018144 1.53576006,12.8412545 3.64500014,13.5103145 C6.77322027,14.5033746 8.25876033,14.6637546 10.4166004,16.0974546 C12.0495605,17.1796147 12.4043405,19.1819348 11.8454405,20.6788148 C10.9933204,22.9646349 8.44506034,23.6029149 6.46218026,23.6094114 C4.9831202,23.6126349 2.19996009,23.1363549 1.35891304e-14,22.1805549" id="Stroke-3"></path>
                    <line x1="6.04600224" y1="5.50638022" x2="6.04600224" y2="-5.1159079e-14" id="Stroke-5"></line>
                    <line x1="6.04600224" y1="23.6089089" x2="6.04600224" y2="29.1152892" id="Stroke-7"></line>
                </g>
                <line x1="46.5" y1="8.5" x2="7.92613802" y2="47.073862" id="Path-2" stroke="#373A3B" stroke-dasharray="2"></line>
                <path d="M54.9467,27.51308 C54.9467,42.66368 42.6635,54.94508 27.5129,54.94508 C12.3623,54.94508 0.0809,42.66368 0.0809,27.51308 C0.0809,12.36248 12.3623,0.07928 27.5129,0.07928 C42.6635,0.07928 54.9467,12.36248 54.9467,27.51308 Z" id="Stroke-1" stroke="#373A3B"></path>
            </g>
        </g>
    </g>
</svg>