<?xml version="1.0" encoding="UTF-8"?>
<svg width="43px" height="56px" viewBox="0 0 43 56" version="1.1" xmlns="http://www.w3.org/2000/svg" xmlns:xlink="http://www.w3.org/1999/xlink">
    <title>ic-branded_account</title>
    <g id="final---draft" stroke="none" stroke-width="1" fill="none" fill-rule="evenodd" stroke-linecap="round" stroke-linejoin="round">
        <g id="assets" transform="translate(-400.000000, -822.000000)" stroke-width="2">
            <g id="ic-branded_account" transform="translate(401.000000, 823.000000)">
                <path d="M38.4871416,53.7374622 L1.86794011,53.7374622 C0.879740075,53.7374622 0.0805400429,52.9382621 0.0805400429,51.9500621 L0.0805400429,1.87046011 C0.0805400429,0.882260075 0.879740075,0.0794600429 1.86794011,0.0794600429 L38.4871416,0.0794600429 C39.4753416,0.0794600429 40.2763416,0.882260075 40.2763416,1.87046011 L40.2763416,51.9500621 C40.2763416,52.9382621 39.4753416,53.7374622 38.4871416,53.7374622 Z" id="Stroke-1" stroke="#373A3B"></path>
                <path d="M19.8630808,15.6210207 C19.8630808,18.5982208 17.4492807,21.0138209 14.4702806,21.0138209 C11.4912805,21.0138209 9.0774804,18.5982208 9.0774804,15.6210207 C9.0774804,12.6420205 11.4912805,10.2282204 14.4702806,10.2282204 C17.4492807,10.2282204 19.8630808,12.6420205 19.8630808,15.6210207 Z" id="Stroke-3" stroke="#FF5A00"></path>
                <line x1="9.0771204" y1="31.7999613" x2="30.6483213" y2="31.7999613" id="Stroke-5" stroke="#373A3B"></line>
                <line x1="9.0771204" y1="42.5857417" x2="30.6483213" y2="42.5857417" id="Stroke-7" stroke="#373A3B"></line>
            </g>
        </g>
    </g>
</svg>