<?xml version="1.0" encoding="UTF-8"?>
<svg width="34px" height="57px" viewBox="0 0 34 57" version="1.1" xmlns="http://www.w3.org/2000/svg" xmlns:xlink="http://www.w3.org/1999/xlink">
    <title>ic-customer-satisfaction</title>
    <g id="final---draft" stroke="none" stroke-width="1" fill="none" fill-rule="evenodd">
        <g id="assets" transform="translate(-548.000000, -1014.000000)" stroke-width="2">
            <g id="ic-customer-satisfaction" transform="translate(549.000000, 1015.000000)">
                <path d="M24.91456,42.5100585 L19.3598985,42.4476123 C18.9638985,42.4445662 18.6135908,42.1856431 18.4963138,41.8063969 L16.8376831,36.5045662 C16.5726677,35.6577354 15.3816215,35.6455508 15.0998523,36.4847662 L13.3239446,41.74852 C13.1975292,42.12472 12.8426523,42.3760277 12.4466523,42.3714585 L6.89199077,42.3105354 C6.00556,42.2998738 5.62479077,43.4299969 6.33606769,43.9585046 L10.7941138,47.27272 C11.1109138,47.51032 11.2403754,47.9245969 11.11396,48.2992738 L9.33805231,53.5645508 C9.05628308,54.4037662 10.0127754,55.1150431 10.7347138,54.6017662 L15.2658677,51.3865508 C15.58876,51.1580892 16.0228369,51.1626585 16.34116,51.3987354 L20.7992062,54.7144738 C21.5104831,55.2414585 22.4822062,54.5530277 22.2171908,53.70772 L20.5600831,48.4043662 C20.4412831,48.0266431 20.5798831,47.6154123 20.9027754,47.3854277 L25.4339292,44.1702123 C26.1558677,43.6569354 25.8009908,42.5191969 24.91456,42.5100585 Z" id="Stroke-1" stroke="#FF5A00"></path>
                <path d="M30.2735062,10.6629769 L21.4183369,10.5655 C20.78626,10.5578846 20.23186,10.1451308 20.0429985,9.54199231 L17.40046,1.09043846 C16.9785677,-0.257484615 15.0777677,-0.278807692 14.62846,1.05997692 L11.79706,9.45060769 C11.5944908,10.0491769 11.0309523,10.4497462 10.3988754,10.4421308 L1.54522923,10.3446538 C0.131813846,10.3294231 -0.474370769,12.1297 0.658798462,12.9719615 L7.76547538,18.2570385 C8.27266,18.6332385 8.47675231,19.2942538 8.27722923,19.8928231 L5.44582923,28.2834538 C4.99499846,29.6222385 6.51959846,30.7554077 7.67104462,29.9390385 L14.8934754,24.8138846 C15.4082754,24.4468231 16.0997523,24.4559615 16.6069369,24.8321615 L23.7120908,30.1157154 C24.8467831,30.9595 26.3957523,29.8598385 25.9753831,28.5119154 L23.3313215,20.0588385 C23.14246,19.4557 23.3648292,18.8007769 23.8796292,18.4352385 L31.1005369,13.3100846 C32.2535062,12.4921923 31.6853985,10.6797308 30.2735062,10.6629769 Z" id="Stroke-3" stroke="#373A3B"></path>
            </g>
        </g>
    </g>
</svg>