<?xml version="1.0" encoding="UTF-8"?>
<svg width="10px" height="16px" viewBox="0 0 10 16" version="1.1" xmlns="http://www.w3.org/2000/svg" xmlns:xlink="http://www.w3.org/1999/xlink">
    <!-- Generator: Sketch 64 (93537) - https://sketch.com -->
    <title>ic-footer-facebook</title>
    <desc>Created with Sketch.</desc>
    <g id="Page-2" stroke="none" stroke-width="1" fill="none" fill-rule="evenodd">
        <g id="assets" transform="translate(-709.000000, -2306.000000)" fill="#263746">
            <path d="M715.666667,2312.00601 L719,2312.00601 L719,2315.00901 L715.666667,2315.00901 L715.666667,2322 L712.333333,2322 L712.333333,2315.00901 L709,2315.00901 L709,2312.00601 L712.333333,2312.00601 L712.333333,2310.73273 C712.333333,2310.09209 712.444443,2309.44345 712.666667,2308.78679 C712.88889,2308.13013 713.195553,2307.60961 713.586667,2307.22523 C714.40445,2306.40841 715.43555,2306 716.68,2306 L719,2306 L719,2309.003 L716.68,2309.003 C716.395553,2309.003 716.155557,2309.08709 715.96,2309.25526 C715.764443,2309.42342 715.666667,2309.63563 715.666667,2309.89189 L715.666667,2312.00601 Z" id="ic-footer-facebook"></path>
        </g>
    </g>
</svg>