<?xml version="1.0" encoding="UTF-8"?>
<svg width="17px" height="14px" viewBox="0 0 17 14" version="1.1" xmlns="http://www.w3.org/2000/svg" xmlns:xlink="http://www.w3.org/1999/xlink">
    <!-- Generator: Sketch 64 (93537) - https://sketch.com -->
    <title>ic-footer-twitter</title>
    <desc>Created with Sketch.</desc>
    <g id="Page-2" stroke="none" stroke-width="1" fill="none" fill-rule="evenodd">
        <g id="assets" transform="translate(-646.000000, -2307.000000)" fill="#263746">
            <path d="M663,2308.68269 C662.358069,2308.97436 661.694013,2309.15385 661.007812,2309.22115 C661.738285,2308.77243 662.247395,2308.1218 662.535156,2307.26923 C661.848955,2307.69552 661.096359,2307.98718 660.277344,2308.14423 C659.635413,2307.38141 658.794277,2307 657.753906,2307 C656.802078,2307 655.988609,2307.34775 655.313475,2308.04327 C654.638344,2308.73878 654.300781,2309.56891 654.300781,2310.53365 C654.300781,2310.89263 654.322917,2311.16186 654.367188,2311.34135 C651.423161,2311.20673 649.032562,2309.97277 647.195312,2307.63942 C646.885415,2308.11058 646.730469,2308.70512 646.730469,2309.42308 C646.730469,2310.70193 647.239578,2311.67788 648.257812,2312.35096 C647.615882,2312.30609 647.095705,2312.16026 646.697266,2311.91346 L646.697266,2311.98077 C646.697266,2312.83334 646.962888,2313.58493 647.494141,2314.23558 C648.025393,2314.88622 648.689449,2315.29006 649.486328,2315.44712 C649.287109,2315.51442 648.977216,2315.54808 648.556641,2315.54808 C648.246743,2315.54808 648.025391,2315.53686 647.892578,2315.51442 C648.113933,2316.20994 648.523435,2316.78766 649.121094,2317.2476 C649.718752,2317.70753 650.393877,2317.94872 651.146484,2317.97115 C649.884759,2318.95834 648.445971,2319.45192 646.830078,2319.45192 C646.453774,2319.45192 646.177084,2319.44071 646,2319.41827 C647.660165,2320.47276 649.442047,2321 651.345703,2321 C652.873055,2321 654.284172,2320.69712 655.5791,2320.09135 C656.874031,2319.48557 657.919918,2318.69472 658.716797,2317.71875 C659.513676,2316.74278 660.133462,2315.67148 660.576172,2314.50481 C661.018882,2313.33814 661.240234,2312.16026 661.240234,2310.97115 L661.240234,2310.5 C661.904301,2310.00641 662.490882,2309.40064 663,2308.68269 Z" id="ic-footer-twitter"></path>
        </g>
    </g>
</svg>