<?xml version="1.0" encoding="UTF-8"?>
<svg width="16px" height="16px" viewBox="0 0 16 16" version="1.1" xmlns="http://www.w3.org/2000/svg" xmlns:xlink="http://www.w3.org/1999/xlink">
    <!-- Generator: Sketch 64 (93537) - https://sketch.com -->
    <title>ic-footer-linkedin</title>
    <desc>Created with Sketch.</desc>
    <g id="Page-2" stroke="none" stroke-width="1" fill="none" fill-rule="evenodd">
        <g id="assets" transform="translate(-678.000000, -2306.000000)" fill="#263746">
            <path d="M681.473504,2321.78378 L678.054701,2321.78378 L678.054701,2310.51351 L681.473504,2310.51351 L681.473504,2321.78378 Z M690.088889,2310.86486 C691.365248,2310.86486 692.336178,2311.27027 693.001709,2312.08108 C693.667241,2312.8919 694,2313.99999 694,2315.40541 L694,2321.78378 L690.581197,2321.78378 L690.581197,2315.75676 C690.581197,2314.18918 690.025077,2313.40541 688.912821,2313.40541 C688.019368,2313.40541 687.435897,2313.84684 687.162393,2314.72973 L687.162393,2321.78378 L683.74359,2321.78378 C683.780058,2315.02699 683.780058,2311.27027 683.74359,2310.51351 L686.451282,2310.51351 L686.670085,2312.75676 L686.724786,2312.75676 C687.508834,2311.49549 688.630191,2310.86486 690.088889,2310.86486 Z M678,2307.7027 C678,2306.56756 678.592587,2306 679.777778,2306 C680.944735,2306 681.528205,2306.56756 681.528205,2307.7027 C681.528205,2308.81982 680.944735,2309.37838 679.777778,2309.37838 C678.592587,2309.37838 678,2308.81982 678,2307.7027 Z" id="ic-footer-linkedin"></path>
        </g>
    </g>
</svg>