<?xml version="1.0" encoding="UTF-8"?>
<svg width="61px" height="60px" viewBox="0 0 61 60" version="1.1" xmlns="http://www.w3.org/2000/svg" xmlns:xlink="http://www.w3.org/1999/xlink">
    <title>ic-free_consultancy</title>
    <g id="final---draft" stroke="none" stroke-width="1" fill="none" fill-rule="evenodd" stroke-linecap="round" stroke-linejoin="round">
        <g id="assets" transform="translate(-600.000000, -821.000000)" stroke-width="2">
            <g id="ic-free_consultancy" transform="translate(601.000000, 822.000000)">
                <path d="M45.44036,22.1129 L45.44036,16.3529 C45.44036,12.3767 42.21656,9.1529 38.24036,9.1529 L26.00036,9.1529" id="Stroke-1" stroke="#FF5A00"></path>
                <path d="M20.8169,7.85618 C20.8169,3.56138 17.3339,0.08018 13.0409,0.08018 C8.7461,0.08018 5.2631,3.56138 5.2631,7.85618 C5.2631,12.15098 8.7461,15.63218 13.0409,15.63218 C17.3339,15.63218 20.8169,12.15098 20.8169,7.85618 Z" id="Stroke-3" stroke="#373A3B"></path>
                <path d="M26.00072,28.59308 L26.00072,28.59308 C26.00072,21.43448 20.19752,15.63308 13.04072,15.63308 C5.88212,15.63308 0.08072,21.43448 0.08072,28.59308" id="Stroke-5" stroke="#373A3B"></path>
                <path d="M53.2169,37.01654 C53.2169,32.72174 49.7339,29.24054 45.4409,29.24054 C41.1461,29.24054 37.6631,32.72174 37.6631,37.01654 C37.6631,41.31134 41.1461,44.79254 45.4409,44.79254 C49.7339,44.79254 53.2169,41.31134 53.2169,37.01654 Z" id="Stroke-7" stroke="#FF5A00"></path>
                <path d="M58.40072,57.75344 L58.40072,57.75344 C58.40072,50.59484 52.59752,44.79164 45.44072,44.79164 C38.28212,44.79164 32.48072,50.59484 32.48072,57.75344" id="Stroke-9" stroke="#FF5A00"></path>
            </g>
        </g>
    </g>
</svg>