<?xml version="1.0" encoding="UTF-8"?>
<svg width="59px" height="61px" viewBox="0 0 59 61" version="1.1" xmlns="http://www.w3.org/2000/svg" xmlns:xlink="http://www.w3.org/1999/xlink">
    <title>ic-service-full</title>
    <g id="Page-1" stroke="none" stroke-width="1" fill="none" fill-rule="evenodd">
        <g id="ic-service-full" transform="translate(0.000000, 1.000000)">
            <path d="M33.3173817,22.4137669 C33.5405818,22.7801569 33.7295818,23.1730969 33.8753818,23.5943569 C34.9823818,26.7838971 33.2507817,30.2530972 30.0071816,31.3434172 C26.7617815,32.4337373 23.2337813,30.7292272 22.1249813,27.5396871 C21.0179813,24.350147 22.7495813,20.8791768 25.9931815,19.7906268 C26.6681815,19.5640668 27.3539815,19.4578668 28.0271815,19.4612396" id="Stroke-1" stroke="#373A3B" stroke-width="2.16000009" stroke-linecap="round" stroke-linejoin="round"></path>
            <path d="M40.822302,35.3041464 C37.8595019,39.0707065 33.2173017,41.4973766 27.9991015,41.4973766 C26.8669015,41.4973766 25.7581014,41.3823266 24.6907014,41.1646166" id="Stroke-3" stroke="#373A3B" stroke-width="2.16000009" stroke-linecap="round" stroke-linejoin="round"></path>
            <path d="M41.0060821,16.0683166 C42.3920821,17.9002667 43.3856821,20.0331168 43.8698822,22.3500469 C44.0858822,23.3890369 44.1992822,24.465197 44.1992822,25.566137 C44.1992822,27.7556271 43.7510822,29.8389172 42.9392821,31.7363573" id="Stroke-5" stroke="#373A3B" stroke-width="2.16000009" stroke-linecap="round" stroke-linejoin="round"></path>
            <path d="M12.1357009,28.8091311 C11.9161009,27.7630611 11.7991009,26.6780511 11.7991009,25.566491 C11.7991009,16.7678207 19.0531012,9.63649038 27.9991015,9.63649038 C30.2851016,9.63649038 32.4613017,10.1020004 34.4323018,10.9409804" id="Stroke-7" stroke="#373A3B" stroke-width="2.16000009" stroke-linecap="round" stroke-linejoin="round"></path>
            <path d="M15.682961,47.9991179 C16.1545611,48.2504579 16.6351611,48.4858679 17.1229611,48.7088879 C19.3549612,49.724868 21.7579613,50.438178 24.2797614,50.793948 C25.4947614,50.965638 26.7367615,51.054138 28.0003615,51.054138 C30.5887616,51.054138 33.0871617,50.682438 35.4451618,49.988598 C38.1343619,49.195638 40.638162,47.9867279 42.8827621,46.4379778 L45.4207622,44.6821378" id="Stroke-9" stroke="#373A3B" stroke-width="2.16000009" stroke-linecap="round" stroke-linejoin="round"></path>
            <path d="M28.0000015,0.078667 C13.684601,0.078667 2.08000051,11.4898575 2.08000051,25.566668 C2.08000051,26.8021281 2.17000051,28.0181181 2.34280052,29.2075582 C2.63260053,31.1970382 3.15460055,33.1121783 3.88360058,34.9264284" id="Stroke-11" stroke="#373A3B" stroke-width="2.16000009" stroke-linecap="round" stroke-linejoin="round"></path>
            <path d="M53.6579226,21.9254239 C53.8307226,23.1148639 53.9207226,24.330854 53.9207226,25.566314 C53.9207226,27.7186341 53.6489226,29.8072342 53.1377225,31.8037943" id="Stroke-13" stroke="#373A3B" stroke-width="2.16000009" stroke-linecap="round" stroke-linejoin="round"></path>
            <path d="M49.8206824,16.0086676 L35.3396818,16.0086676 C34.8644818,16.0086676 34.4810818,15.6298876 34.4810818,15.1626076 L34.4810818,4.11072716 C34.4810818,3.64344714 34.8644818,3.26466713 35.3396818,3.26466713 L49.8206824,3.26466713 C50.2958824,3.26466713 50.6810824,3.64344714 50.6810824,4.11072716 L50.6810824,15.1626076 C50.6810824,15.6298876 50.2958824,16.0086676 49.8206824,16.0086676 Z" id="Stroke-15" stroke="#FF5A00" stroke-width="2.16000009" stroke-linecap="round" stroke-linejoin="round"></path>
            <path d="M17.3564211,47.8686689 L3.00322054,47.8686689 C2.49382052,47.8686689 2.07982051,47.4615689 2.07982051,46.9606589 L2.07982051,36.0326784 C2.07982051,35.5317684 2.49382052,35.1246684 3.00322054,35.1246684 L17.3564211,35.1246684 C17.8658211,35.1246684 18.2798212,35.5317684 18.2798212,36.0326784 L18.2798212,46.9606589 C18.2798212,47.4615689 17.8658211,47.8686689 17.3564211,47.8686689 Z" id="Stroke-17" stroke="#373A3B" stroke-width="2.16000009" stroke-linecap="round" stroke-linejoin="round"></path>
            <path d="M56.2893427,44.6830228 L41.8299421,44.6830228 C41.3493421,44.6830228 40.9605421,44.2989328 40.9605421,43.8263427 L40.9605421,32.7939323 C40.9605421,32.3213423 41.3493421,31.9390223 41.8299421,31.9390223 L56.2893427,31.9390223 C56.7699427,31.9390223 57.1605427,32.3213423 57.1605427,32.7939323 L57.1605427,43.8263427 C57.1605427,44.2989328 56.7699427,44.6830228 56.2893427,44.6830228 Z" id="Stroke-19" stroke="#373A3B" stroke-width="2.16000009" stroke-linecap="round" stroke-linejoin="round"></path>
            <line x1="40.9603621" y1="9.63649038" x2="44.2003622" y2="9.63649038" id="Fill-21" fill="#FFFFFF" fill-rule="nonzero"></line>
            <line x1="40.9603621" y1="9.63649038" x2="44.2003622" y2="9.63649038" id="Stroke-23" stroke="#FF5A00" stroke-width="2.16000009" stroke-linecap="round" stroke-linejoin="round"></line>
            <line x1="47.4396423" y1="38.3108455" x2="50.6796424" y2="38.3108455" id="Fill-25" fill="#FFFFFF" fill-rule="nonzero"></line>
            <line x1="47.4396423" y1="38.3108455" x2="50.6796424" y2="38.3108455" id="Stroke-27" stroke="#373A3B" stroke-width="2.16000009" stroke-linecap="round" stroke-linejoin="round"></line>
            <line x1="8.56036077" y1="41.4964916" x2="11.8003609" y2="41.4964916" id="Fill-29" fill="#FFFFFF" fill-rule="nonzero"></line>
            <line x1="8.56036077" y1="41.4964916" x2="11.8003609" y2="41.4964916" id="Stroke-31" stroke="#373A3B" stroke-width="2.16000009" stroke-linecap="round" stroke-linejoin="round"></line>
            <g id="Rectangle" transform="translate(0.300000, 44.078667)">
                <g id="path-1-link" fill="#000000" fill-rule="nonzero">
                    <rect id="path-1" x="0" y="0.1713333" width="58" height="14.4549998" rx="1.57499997"></rect>
                </g>
                <g id="path-1-link" fill="#35393B">
                    <rect id="path-1" x="0" y="0.1713333" width="58" height="14.4549998" rx="1.57499997"></rect>
                </g>
            </g>
            <path d="M6.47900001,54.7233334 C7.71200001,54.7233334 8.59400001,54.0123334 8.59400001,53.0043334 C8.59400001,52.3473334 8.22500001,51.8073334 7.63100001,51.5643334 C8.06300001,51.3393334 8.37800001,50.8983334 8.37800001,50.3223334 C8.37800001,49.3503334 7.54100001,48.6753334 6.33500001,48.6753334 L3.51800001,48.6753334 L3.51800001,54.7233334 L6.47900001,54.7233334 Z M6.11000001,51.0963334 L5.10200001,51.0963334 L5.10200001,49.8633334 L6.11000001,49.8633334 C6.51500001,49.8633334 6.79400001,50.1153334 6.79400001,50.4843334 C6.79400001,50.8533334 6.51500001,51.0963334 6.11000001,51.0963334 Z M6.21800001,53.5353334 L5.10200001,53.5353334 L5.10200001,52.1583334 L6.21800001,52.1583334 C6.67700001,52.1583334 6.98300001,52.4283334 6.98300001,52.8423334 C6.98300001,53.2563334 6.67700001,53.5353334 6.21800001,53.5353334 Z M14.006,54.7233334 L14.006,53.4993334 L11.126,53.4993334 L11.126,52.2213334 L13.574,52.2213334 L13.574,51.0333334 L11.126,51.0333334 L11.126,49.8993334 L13.862,49.8993334 L13.862,48.6753334 L9.47900001,48.6753334 L9.47900001,54.7233334 L14.006,54.7233334 Z M16.952,54.8313334 C18.365,54.8313334 19.355,54.0753334 19.355,52.9593334 C19.355,50.5923334 16.196,51.3753334 16.196,50.4033334 C16.196,50.0523334 16.538,49.8543334 17.078,49.8543334 C17.582,49.8543334 18.158,49.9803334 18.77,50.2233334 L19.139,48.9993334 C18.365,48.7113334 17.654,48.5673334 16.952,48.5673334 C15.557,48.5673334 14.576,49.3143334 14.576,50.4033334 C14.576,52.6983334 17.735,51.9513334 17.735,52.9593334 C17.735,53.3283334 17.393,53.5443334 16.817,53.5443334 C16.277,53.5443334 15.611,53.3733334 14.909,53.1033334 L14.54,54.3273334 C15.404,54.6783334 16.205,54.8313334 16.952,54.8313334 Z M22.985,54.7233334 L22.985,49.9353334 L24.731,49.9353334 L24.731,48.6753334 L19.583,48.6753334 L19.583,49.9353334 L21.338,49.9353334 L21.338,54.7233334 L22.985,54.7233334 Z M30.335,54.8313334 C32.27,54.8313334 33.638,53.5353334 33.638,51.6993334 C33.638,49.8633334 32.27,48.5673334 30.335,48.5673334 C28.4,48.5673334 27.041,49.8633334 27.041,51.6993334 C27.041,53.5353334 28.4,54.8313334 30.335,54.8313334 Z M30.335,53.5443334 C29.381,53.5443334 28.724,52.7793334 28.724,51.6993334 C28.724,50.6193334 29.381,49.8543334 30.335,49.8543334 C31.289,49.8543334 31.955,50.6193334 31.955,51.6993334 C31.955,52.7793334 31.289,53.5443334 30.335,53.5443334 Z M36.089,54.7233334 L36.089,52.5003334 L38.537,52.5003334 L38.537,51.2493334 L36.089,51.2493334 L36.089,49.9353334 L38.825,49.9353334 L38.825,48.6753334 L34.442,48.6753334 L34.442,54.7233334 L36.089,54.7233334 Z M41.348,54.7233334 L41.348,52.5003334 L43.796,52.5003334 L43.796,51.2493334 L41.348,51.2493334 L41.348,49.9353334 L44.084,49.9353334 L44.084,48.6753334 L39.701,48.6753334 L39.701,54.7233334 L41.348,54.7233334 Z M49.487,54.7233334 L49.487,53.4993334 L46.607,53.4993334 L46.607,52.2213334 L49.055,52.2213334 L49.055,51.0333334 L46.607,51.0333334 L46.607,49.8993334 L49.343,49.8993334 L49.343,48.6753334 L44.96,48.6753334 L44.96,54.7233334 L49.487,54.7233334 Z M51.947,54.7233334 L51.947,52.7163334 L52.505,52.7163334 L53.792,54.7233334 L55.574,54.7233334 L54.026,52.4553334 C54.809,52.2303334 55.295,51.5373334 55.295,50.6643334 C55.295,49.4943334 54.386,48.6753334 53.099,48.6753334 L50.363,48.6753334 L50.363,54.7233334 L51.947,54.7233334 Z M52.838,51.4563334 L51.947,51.4563334 L51.947,49.9353334 L52.838,49.9353334 C53.324,49.9353334 53.675,50.2413334 53.675,50.6913334 C53.675,51.1593334 53.324,51.4563334 52.838,51.4563334 Z" id="BESTOFFER" fill="#FFFFFF" fill-rule="nonzero"></path>
        </g>
    </g>
</svg>