<?xml version="1.0" encoding="UTF-8"?>
<svg width="39px" height="56px" viewBox="0 0 39 56" version="1.1" xmlns="http://www.w3.org/2000/svg" xmlns:xlink="http://www.w3.org/1999/xlink">
    <title>ic-operational_costs</title>
    <g id="final---draft" stroke="none" stroke-width="1" fill="none" fill-rule="evenodd" stroke-linecap="round" stroke-linejoin="round">
        <g id="assets" transform="translate(-600.000000, -1007.000000)" stroke-width="2">
            <g id="ic-operational_costs" transform="translate(601.000000, 1008.000000)">
                <path d="M36.1822415,10.7714605 C36.1822415,10.7714605 32.7496413,8.51426038 28.0966412,8.51426038 C23.341041,8.51606038 19.7734408,10.9982605 19.3072408,14.4002606 C18.9184408,17.2388607 20.3764408,19.7498608 23.607441,20.7758609 C28.4008412,22.2950609 30.6742413,22.5416609 33.9808414,24.735861 C36.4810415,26.3954611 37.0246415,29.4608612 36.1696415,31.7522613 C34.8628414,35.2550614 30.9604413,36.2324615 27.9238411,36.2414913 C25.6558411,36.2468615 21.3934409,35.5178615 18.0238408,34.0544614" id="Stroke-1" stroke="#373A3B"></path>
                <line x1="27.2859211" y1="8.51444038" x2="27.2859211" y2="0.0796400429" id="Stroke-3" stroke="#373A3B"></line>
                <line x1="27.2859211" y1="36.2412815" x2="27.2859211" y2="44.6760818" id="Stroke-5" stroke="#373A3B"></line>
                <path d="M13.2516806,28.7891012 C13.2516806,28.7891012 10.7622805,27.1511011 7.38548033,27.1511011 C3.9366802,27.1511011 1.34828009,28.9529012 1.00988008,31.4207013 C0.729080069,33.4799014 1.78568011,35.3015014 4.1310802,36.0449015 C7.60688034,37.1483015 9.25568041,37.3265015 11.6550805,38.9195016 C13.4694806,40.1219016 13.8636806,42.3467017 13.2426806,44.0099018 C12.2940805,46.5497019 9.46448042,47.2589019 7.26128033,47.2661202 C5.61788026,47.2697019 2.52548014,46.7405019 0.081080043,45.6785019" id="Stroke-7" stroke="#FF5A00"></path>
                <line x1="6.79868031" y1="27.1516411" x2="6.79868031" y2="21.0334409" id="Stroke-9" stroke="#FF5A00"></line>
                <line x1="6.79868031" y1="47.2655619" x2="6.79868031" y2="53.3837622" id="Stroke-11" stroke="#FF5A00"></line>
            </g>
        </g>
    </g>
</svg>