<?xml version="1.0" encoding="UTF-8"?>
<svg width="30px" height="34px" viewBox="0 0 30 34" version="1.1" xmlns="http://www.w3.org/2000/svg" xmlns:xlink="http://www.w3.org/1999/xlink">
    <title>ic-tab-answers</title>
    <g id="final---draft" stroke="none" stroke-width="1" fill="none" fill-rule="evenodd" stroke-linejoin="round">
        <g id="assets" transform="translate(-397.000000, -1011.000000)" stroke-width="1.2">
            <g id="ic-tab-answers" transform="translate(397.000000, 1011.000000)">
                <path d="M23.7996,25.8 L6.1996,25.8 C5.0956,25.8 4.1996,24.904 4.1996,23.8 L4.1996,9.8 C4.1996,8.696 5.0956,7.8 6.1996,7.8 L23.7996,7.8 C24.9036,7.8 25.7996,8.696 25.7996,9.8 L25.7996,23.8 C25.7996,24.904 24.9036,25.8 23.7996,25.8 Z" id="Stroke-1" stroke="#373A3B" stroke-linecap="round"></path>
                <line x1="7.7996" y1="25.8" x2="7.7996" y2="33" id="Stroke-3" stroke="#373A3B" stroke-linecap="round"></line>
                <line x1="22.2" y1="25.8" x2="22.2" y2="33" id="Stroke-5" stroke="#373A3B" stroke-linecap="round"></line>
                <line x1="11.4002" y1="15.0002" x2="18.6002" y2="15.0002" id="Stroke-7" stroke="#FF5A00" stroke-linecap="round"></line>
                <line x1="11.4002" y1="18.5998" x2="18.6002" y2="18.5998" id="Stroke-9" stroke="#FF5A00" stroke-linecap="round"></line>
                <path d="M4.2,15.0002 L2.451,15.0002 C1.429,15.0002 0.6,15.9822 0.6,17.1932 L0.6,25.8002" id="Stroke-11" stroke="#373A3B" stroke-linecap="round"></path>
                <path d="M25.7996,15.0002 L27.5716,15.0002 C28.5816,15.0002 29.4006,15.9692 29.4006,17.1662 L29.4006,25.8002" id="Stroke-13" stroke="#373A3B" stroke-linecap="round"></path>
                <polyline id="Stroke-15" stroke="#373A3B" points="10.6941 3.9396 14.9551 7.7996 19.3111 3.7356"></polyline>
                <path d="M11.4002,2.4001 C11.4002,3.3941 10.5942,4.2001 9.6002,4.2001 C8.6062,4.2001 7.7992,3.3941 7.7992,2.4001 C7.7992,1.4061 8.6062,0.6001 9.6002,0.6001 C10.5942,0.6001 11.4002,1.4061 11.4002,2.4001 Z" id="Stroke-17" stroke="#373A3B" stroke-linecap="round"></path>
                <path d="M22.2,2.4001 C22.2,3.3941 21.394,4.2001 20.4,4.2001 C19.406,4.2001 18.6,3.3941 18.6,2.4001 C18.6,1.4061 19.406,0.6001 20.4,0.6001 C21.394,0.6001 22.2,1.4061 22.2,2.4001 Z" id="Stroke-19" stroke="#373A3B" stroke-linecap="round"></path>
            </g>
        </g>
    </g>
</svg>