<?xml version="1.0" encoding="UTF-8"?>
<svg width="54px" height="61px" viewBox="0 0 54 61" version="1.1" xmlns="http://www.w3.org/2000/svg" xmlns:xlink="http://www.w3.org/1999/xlink">
    <title>ic_chatbot</title>
    <g id="final---draft" stroke="none" stroke-width="1" fill="none" fill-rule="evenodd" stroke-linejoin="round">
        <g id="assets" transform="translate(-328.000000, -817.000000)" stroke-width="2">
            <g id="ic_chatbot" transform="translate(329.000000, 818.000000)">
                <path d="M41.8392817,45.4400018 L10.1592804,45.4400018 C8.17208036,45.4400018 6.5592803,43.8272018 6.5592803,41.8400017 L6.5592803,16.6400007 C6.5592803,14.6528006 8.17208036,13.0400006 10.1592804,13.0400006 L41.8392817,13.0400006 C43.8264818,13.0400006 45.4392818,14.6528006 45.4392818,16.6400007 L45.4392818,41.8400017 C45.4392818,43.8272018 43.8264818,45.4400018 41.8392817,45.4400018 Z" id="Stroke-1" stroke="#373A3B" stroke-linecap="round"></path>
                <line x1="13.0392806" y1="45.4400018" x2="13.0392806" y2="58.4000024" id="Stroke-3" stroke="#373A3B" stroke-linecap="round"></line>
                <line x1="38.9600016" y1="45.4400018" x2="38.9600016" y2="58.4000024" id="Stroke-5" stroke="#373A3B" stroke-linecap="round"></line>
                <line x1="19.5203608" y1="26.0003611" x2="32.4803613" y2="26.0003611" id="Stroke-7" stroke="#FF5A00" stroke-linecap="round"></line>
                <line x1="19.5203608" y1="32.4796413" x2="32.4803613" y2="32.4796413" id="Stroke-9" stroke="#FF5A00" stroke-linecap="round"></line>
                <path d="M6.5600003,26.0003611 L3.41180018,26.0003611 C1.5722001,26.0003611 0.0800000429,27.7679611 0.0800000429,29.9477612 L0.0800000429,45.4403618" id="Stroke-11" stroke="#373A3B" stroke-linecap="round"></path>
                <path d="M45.4392818,26.0003611 L48.628882,26.0003611 C50.446882,26.0003611 51.9210821,27.7445611 51.9210821,29.8991612 L51.9210821,45.4403618" id="Stroke-13" stroke="#373A3B" stroke-linecap="round"></path>
                <polyline id="Stroke-15" stroke="#373A3B" points="18.2493808 6.09128028 25.9191811 13.0392806 33.7599814 5.72408027"></polyline>
                <path d="M19.5203608,3.32018017 C19.5203608,5.10938024 18.0695608,6.5601803 16.2803607,6.5601803 C14.4911606,6.5601803 13.0385606,5.10938024 13.0385606,3.32018017 C13.0385606,1.5309801 14.4911606,0.0801800429 16.2803607,0.0801800429 C18.0695608,0.0801800429 19.5203608,1.5309801 19.5203608,3.32018017 Z" id="Stroke-17" stroke="#373A3B" stroke-linecap="round"></path>
                <path d="M38.9600016,3.32018017 C38.9600016,5.10938024 37.5092015,6.5601803 35.7200015,6.5601803 C33.9308014,6.5601803 32.4800013,5.10938024 32.4800013,3.32018017 C32.4800013,1.5309801 33.9308014,0.0801800429 35.7200015,0.0801800429 C37.5092015,0.0801800429 38.9600016,1.5309801 38.9600016,3.32018017 Z" id="Stroke-19" stroke="#373A3B" stroke-linecap="round"></path>
            </g>
        </g>
    </g>
</svg>