<?xml version="1.0" encoding="UTF-8"?>
<svg width="140px" height="44px" viewBox="0 0 140 44" version="1.1" xmlns="http://www.w3.org/2000/svg" xmlns:xlink="http://www.w3.org/1999/xlink">
    <!-- Generator: Sketch 64 (93537) - https://sketch.com -->
    <title>logo-head</title>
    <desc>Created with Sketch.</desc>
    <g id="Page-2" stroke="none" stroke-width="1" fill="none" fill-rule="evenodd">
        <g id="assets" transform="translate(-1140.000000, -336.000000)">
            <g id="Logo-/-Infobip-horizontal" transform="translate(1140.000000, 336.000000)">
                <g id="infobip-logo">
                    <g id="Group" transform="translate(52.000000, 9.000000)" fill="#373A3B" fill-rule="nonzero">
                        <path d="M16.7,6 C14.9,6 13.4,6.6 12.3,7.8 L11.7,6.3 L8,6.3 L8,19.6 L12.7,19.6 L12.7,12.5 C12.7,10.9 13.7,9.9 15.2,9.9 C16.4,9.9 17.3,10.8 17.3,12 L17.3,19.6 L22,19.6 L22,11.2 C22,9.7 21.5,8.4 20.5,7.5 C19.6,6.5 18.3,6 16.7,6 Z" id="Path"></path>
                        <g id="Rectangle">
                            <rect x="0.7" y="0.2" width="4.7" height="4.7"></rect>
                            <rect x="0.7" y="6.4" width="4.7" height="13.3"></rect>
                        </g>
                        <path d="M86.3,8 C85.1,6.7 83.7,6 81.9,6 C80.3,6 79,6.5 77.9,7.6 L77.3,6.4 L73.5,6.4 L73.5,25.3 L78.2,25.3 L78.2,18.8 C79.3,19.6 80.4,20.1 81.8,20.1 C83.6,20.1 85.1,19.4 86.2,18.2 C87.4,16.9 87.9,15.2 87.9,13.2 C88,11 87.4,9.3 86.3,8 Z M80.6,16.3 C79.2,16.3 78.2,15.2 78.2,13.7 L78.2,12.3 C78.2,10.8 79.2,9.7 80.6,9.7 C82.1,9.7 83.2,11 83.2,13 C83.2,14.9 82.1,16.3 80.6,16.3 Z" id="Shape"></path>
                        <g transform="translate(65.000000, 0.000000)">
                            <path d="M3.6,0.1 C2.1,0.1 0.9,1.2 0.9,2.8 C0.9,4.3 2.1,5.5 3.6,5.5 C5.2,5.5 6.3,4.3 6.3,2.8 C6.3,1.3 5.2,0.1 3.6,0.1 Z" id="Path"></path>
                            <rect id="Rectangle" x="1.2" y="6.4" width="4.7" height="13.3"></rect>
                        </g>
                        <path d="M46.5,8 C45.1,6.7 43.3,6 41,6 C38.8,6 37,6.6 35.5,8 C34.1,9.3 33.4,11 33.4,13 C33.4,15 34.1,16.7 35.5,18 C37,19.3 38.8,20 41,20 C43.2,20 45.1,19.3 46.5,18.1 C47.9,16.8 48.6,15.1 48.6,13.1 C48.6,11 47.9,9.3 46.5,8 Z M41,16.3 C39.4,16.3 38.3,14.9 38.3,13 C38.3,11 39.4,9.7 41,9.7 C42.6,9.7 43.8,11.1 43.8,13 C43.8,15 42.6,16.3 41,16.3 Z" id="Shape"></path>
                        <path d="M31.5,4.2 C31.9,4.2 32.4,4.3 33.1,4.4 L33.7,0.9 C32.6,0.6 31.5,0.5 30.4,0.5 C28.9,0.5 27.7,0.9 26.8,1.8 C25.9,2.7 25.4,3.8 25.4,5.2 L25.4,6.4 L23.2,6.4 L23.2,10 L25.4,10 L25.4,19.7 L30.1,19.7 L30.1,10 L32.8,10 L32.8,6.4 L30.1,6.4 L30.1,5.6 C30.1,4.7 30.6,4.2 31.5,4.2 Z" id="Path"></path>
                        <path d="M62.7,8 C61.5,6.7 60.1,6 58.3,6 C56.9,6 55.7,6.4 54.7,7.3 L54.7,0.7 L50,0.7 L50,19.6 L53.8,19.6 L54.4,18.4 C55.4,19.4 56.7,20 58.3,20 C60.1,20 61.6,19.3 62.7,18.1 C63.9,16.8 64.5,15.1 64.5,13.1 C64.5,11 63.9,9.3 62.7,8 Z M57.1,16.3 C55.7,16.3 54.7,15.2 54.7,13.7 L54.7,12.3 C54.7,10.8 55.7,9.7 57.1,9.7 C58.6,9.7 59.7,11 59.7,13 C59.7,14.9 58.6,16.3 57.1,16.3 Z" id="Shape"></path>
                    </g>
                    <g id="Group" fill="#F15C22" fill-rule="nonzero">
                        <g transform="translate(8.000000, 8.000000)">
                            <path d="M17.9,10.7 L17.9,16.6 C17.9,17.3 17.3,17.8 16.7,17.8 L10.8,17.8 C10.1,17.8 9.6,17.2 9.6,16.6 L9.6,10.7 C9.6,10 10.2,9.5 10.8,9.5 L16.7,9.5 C17.4,9.5 17.9,10 17.9,10.7 Z" id="Path"></path>
                            <path d="M23.9,3.5 C22.2,1.8 18.2,0.7 13.7,0.7 C9.2,0.7 5.2,1.8 3.5,3.5 C1.8,5.2 0.7,9.2 0.7,13.7 C0.7,18.2 1.8,22.2 3.5,23.9 C5.2,25.6 9.2,26.7 13.7,26.7 C18.2,26.7 22.2,25.6 23.9,23.9 C24.7,23.1 25.4,21.6 25.9,19.9 C26.4,18.1 26.7,16 26.7,13.8 C26.6,9.2 25.6,5.2 23.9,3.5 Z M19.9,19.9 C19.5,20.3 18.5,21.3 13.6,21.3 C8.7,21.3 7.7,20.2 7.3,19.9 C7,19.5 6,18.5 6,13.6 C6,8.7 7.1,7.7 7.4,7.3 C7.7,6.9 8.8,5.9 13.7,5.9 C18.6,5.9 19.6,7 20,7.3 C20.3,7.7 21.4,8.7 21.4,13.6 C21.4,18.5 20.3,19.5 19.9,19.9 Z" id="Shape"></path>
                            <path d="M17.9,10.7 L17.9,16.6 C17.9,17.3 17.3,17.8 16.7,17.8 L10.8,17.8 C10.1,17.8 9.6,17.2 9.6,16.6 L9.6,10.7 C9.6,10 10.2,9.5 10.8,9.5 L16.7,9.5 C17.4,9.5 17.9,10 17.9,10.7 Z" id="Path"></path>
                        </g>
                        <path d="M25.9,18.7 L25.9,24.6 C25.9,25.3 25.3,25.8 24.7,25.8 L18.8,25.8 C18.1,25.8 17.6,25.2 17.6,24.6 L17.6,18.7 C17.6,18 18.2,17.5 18.8,17.5 L24.7,17.5 C25.4,17.5 25.9,18 25.9,18.7 Z" id="Path"></path>
                        <path d="M25.9,18.7 L25.9,24.6 C25.9,25.3 25.3,25.8 24.7,25.8 L18.8,25.8 C18.1,25.8 17.6,25.2 17.6,24.6 L17.6,18.7 C17.6,18 18.2,17.5 18.8,17.5 L24.7,17.5 C25.4,17.5 25.9,18 25.9,18.7 Z" id="Path"></path>
                        <path d="M31.9,11.5 C30.2,9.8 26.2,8.7 21.7,8.7 C17.2,8.7 13.2,9.8 11.5,11.5 C9.8,13.2 8.7,17.2 8.7,21.7 C8.7,26.2 9.8,30.2 11.5,31.9 C13.2,33.6 17.2,34.7 21.7,34.7 C26.2,34.7 30.2,33.6 31.9,31.9 C32.7,31.1 33.4,29.6 33.9,27.9 C34.4,26.1 34.7,24 34.7,21.8 C34.6,17.2 33.6,13.2 31.9,11.5 Z M27.9,27.9 C27.5,28.3 26.5,29.3 21.6,29.3 C16.7,29.3 15.7,28.2 15.3,27.9 C15,27.5 14,26.5 14,21.6 C14,16.7 15.1,15.7 15.4,15.3 C15.7,14.9 16.8,13.9 21.7,13.9 C26.6,13.9 27.6,15 28,15.3 C28.3,15.7 29.4,16.7 29.4,21.6 C29.4,26.5 28.3,27.5 27.9,27.9 Z" id="Shape"></path>
                        <path d="M21.7,0 C9.7,0 0,9.7 0,21.7 C0,33.6 9.6,43.2 21.4,43.4 C33.5,43.6 43.6,33.5 43.4,21.4 C43.2,9.6 33.6,0 21.7,0 Z M34.1,34.2 C31.7,36.6 27.1,38 21.7,38 C16.3,38 11.6,36.6 9.3,34.2 C6.9,31.8 5.5,27.2 5.5,21.8 C5.5,16.4 6.9,11.8 9.3,9.4 C11.7,7 16.3,5.6 21.7,5.6 C27.1,5.6 31.7,7 34.1,9.4 C36.5,11.8 37.9,16.4 37.9,21.8 C37.9,27.2 36.5,31.8 34.1,34.2 Z" id="Shape"></path>
                    </g>
                </g>
            </g>
        </g>
    </g>
</svg>