<?xml version="1.0" encoding="UTF-8"?>
<svg width="76px" height="28px" viewBox="0 0 76 28" version="1.1" xmlns="http://www.w3.org/2000/svg" xmlns:xlink="http://www.w3.org/1999/xlink">
    <title>logo-uber</title>
    <g id="final---draft" stroke="none" stroke-width="1" fill="none" fill-rule="evenodd">
        <g id="assets" transform="translate(-254.000000, -108.000000)" fill="#000000">
            <g id="logo-uber" transform="translate(255.000000, 109.000000)">
                <path d="M4.2493738,18.0852407 C4.56132066,18.9025454 4.99355551,19.6026396 5.54607835,20.1831477 C6.09779928,20.7644477 6.75216595,21.2087383 7.50837646,21.5168114 C8.26458697,21.8256765 9.08655492,21.9793171 9.97508222,21.9793171 C10.8395519,21.9793171 11.6494911,21.8193408 12.4057016,21.4993883 C13.1619121,21.1786437 13.8226941,20.7288094 14.3864438,20.1475094 C14.9509955,19.5670014 15.3888438,18.8732428 15.7007906,18.0678176 C16.0127375,17.2608085 16.1691119,16.3603478 16.1691119,15.3640598 L16.1691119,-3.49510211e-14 L19.9509664,-3.49510211e-14 L19.9509664,24.8961126 L16.2051983,24.8961126 L16.2051983,22.584376 C15.3647862,23.4610778 14.3744151,24.1374132 13.2340849,24.6110064 C12.0937547,25.0853915 10.8636095,25.3229801 9.54284737,25.3229801 C8.19882954,25.3229801 6.94382482,25.0917272 5.77943706,24.6292215 C4.61585121,24.1667158 3.60703592,23.5085955 2.75459502,22.6556526 C1.90215411,21.8011257 1.2301452,20.7755351 0.738568271,19.5788808 C0.246189424,18.3814345 -1.59257223e-13,17.0477707 -1.59257223e-13,15.5778895 L-1.59257223e-13,-3.49510211e-14 L3.78105255,-3.49510211e-14 L3.78105255,15.3640598 C3.78105255,16.3603478 3.93662502,17.2671441 4.2493738,18.0852407" id="Fill-1"></path>
                <path d="M26.8824416,18.3164936 C27.2064173,19.075193 27.6562944,19.7388571 28.2328748,20.3082776 C28.8086533,20.8769062 29.4814642,21.3275325 30.2497035,21.6593645 C31.0179428,21.9911966 31.8455242,22.1575086 32.7340515,22.1575086 C33.5985212,22.1575086 34.4148757,21.9911966 35.183115,21.6593645 C35.9513543,21.3275325 36.6177498,20.8769062 37.1814995,20.3082776 C37.7460511,19.7388571 38.1959282,19.075193 38.5319327,18.3164936 C38.8687391,17.5577941 39.0363403,16.7396976 39.0363403,15.8622038 C39.0363403,14.9847101 38.8687391,14.1610698 38.5319327,13.3904909 C38.1959282,12.619912 37.7460511,11.9499123 37.1814995,11.3812837 C36.6177498,10.8118631 35.9513543,10.3675725 35.183115,10.04762 C34.4148757,9.7268754 33.5985212,9.56689911 32.7340515,9.56689911 C31.8703837,9.56689911 31.0540292,9.7268754 30.2857899,10.04762 C29.5175506,10.3675725 28.8455416,10.8118631 28.2689612,11.3812837 C27.6923808,11.9499123 27.2360883,12.619912 26.9000839,13.3904909 C26.5648813,14.1610698 26.3964781,14.9847101 26.3964781,15.8622038 C26.3964781,16.7396976 26.558466,17.5577941 26.8824416,18.3164936 L26.8824416,18.3164936 Z M26.467849,-3.74475226e-14 L26.467849,9.06954707 C27.3082611,8.23957105 28.28099,7.58145076 29.3852338,7.09518619 C30.4894775,6.60971357 31.6899517,6.36658129 32.9866563,6.36658129 C34.3306741,6.36658129 35.5912922,6.61525731 36.7677088,7.11340131 C37.9441254,7.61075335 38.9641675,8.28708877 39.8286372,9.14003167 C40.6931069,9.99376655 41.3771447,11.001934 41.8815523,12.16295 C42.38596,13.3247581 42.6377628,14.5586346 42.6377628,15.8622038 C42.6377628,17.166565 42.38596,18.3933139 41.8815523,19.5432425 C41.3771447,20.6931711 40.6931069,21.6950028 39.8286372,22.5487377 C38.9641675,23.4016806 37.9441254,24.0772241 36.7677088,24.5753681 C35.5912922,25.0735121 34.3306741,25.3229801 32.9866563,25.3229801 C31.6899517,25.3229801 30.4838641,25.0790558 29.3675915,24.5935832 C28.251319,24.1073186 27.2721747,23.4491983 26.4317626,22.6200143 L26.4317626,24.8961126 L22.831142,24.8961126 L22.831142,-3.74475226e-14 L26.467849,-3.74475226e-14 Z" id="Fill-4"></path>
                <path d="M49.7496701,10.7943608 C48.7296279,11.6354243 48.0512036,12.7568422 47.7151992,14.1546549 L58.9148131,14.1546549 C58.6028663,12.7568422 57.9364708,11.6354243 56.9164286,10.7943608 C55.8955845,9.9532973 54.7015257,9.53118163 53.3326484,9.53118163 C51.964573,9.53118163 50.7697122,9.9532973 49.7496701,10.7943608 M44.6895552,12.1985091 C45.1699052,11.0612519 45.8306873,10.0594202 46.6702975,9.19380588 C47.5107096,8.32898355 48.5074961,7.64631244 49.659855,7.14816843 C50.812214,6.65160836 52.0600014,6.40214037 53.4048212,6.40214037 C54.7255833,6.40214037 55.9493132,6.63893697 57.0784165,7.11332211 C58.2059159,7.58770726 59.1786448,8.24503559 59.9949993,9.087683 C60.8113538,9.92874648 61.4472763,10.9250345 61.9035688,12.0741711 C62.3598612,13.2240997 62.5876065,14.4746075 62.5876065,15.8264864 L62.5876065,17.0001738 L47.6430264,17.0001738 C47.7625124,17.7359064 48.0030884,18.4169936 48.3631505,19.0450193 C48.7232125,19.673837 49.1730896,20.2187068 49.7135837,20.6812125 C50.2532758,21.1437182 50.8659426,21.5048528 51.5499803,21.7662002 C52.23482,22.0267557 52.9605575,22.1574294 53.7287968,22.1574294 C55.9140287,22.1574294 57.6782526,21.2680562 59.0222704,19.4893099 L61.6517659,21.4098174 C60.739181,22.6199351 59.6108796,23.5679134 58.2668618,24.2553363 C56.9220421,24.9427592 55.409621,25.2872626 53.7287968,25.2872626 C52.3607214,25.2872626 51.082461,25.049674 49.8940156,24.5752889 C48.7055703,24.1016957 47.6734993,23.4372397 46.7970008,22.5842968 C45.9205023,21.7305619 45.2300492,20.7287302 44.7256416,19.5788016 C44.2220359,18.428873 43.9694311,17.1783652 43.9694311,15.8264864 C43.9694311,14.545884 44.2100071,13.3373503 44.6895552,12.1985091" id="Fill-7"></path>
                <path d="M69.3939822,11.2034883 C68.6257429,12.0334643 68.2416233,13.159634 68.2416233,14.5819975 L68.2416233,24.8957166 L64.6041144,24.8957166 L64.6041144,6.75820642 L68.2055369,6.75820642 L68.2055369,8.99866648 C68.6618293,8.26293393 69.256052,7.6824259 69.9882049,7.25555846 C70.7203578,6.82869102 71.590441,6.61486133 72.5992563,6.61486133 L73.8590725,6.61486133 L73.8590725,9.95852424 L72.3466515,9.95852424 C71.1469792,9.95852424 70.1622215,10.3735123 69.3939822,11.2034883" id="Fill-9"></path>
            </g>
        </g>
    </g>
</svg>