<?xml version="1.0" encoding="UTF-8"?>
<svg width="79px" height="64px" viewBox="0 0 79 64" version="1.1" xmlns="http://www.w3.org/2000/svg" xmlns:xlink="http://www.w3.org/1999/xlink">
    <title>logo-ahli</title>
    <g id="final---draft" stroke="none" stroke-width="1" fill="none" fill-rule="evenodd">
        <g id="assets" transform="translate(-784.000000, -970.000000)">
            <g id="logo-ahli" transform="translate(784.000000, 970.000000)">
                <path d="M77.1555103,19.4908918 C82.3491611,35.6455585 69.5463675,54.2113998 48.5594468,60.9585744 C27.5727802,67.705749 6.34916112,60.0793363 1.15551033,43.9246696 C-4.03814047,27.7700029 8.76465318,9.20416166 29.7515738,2.45698706 C50.7382405,-4.29018754 71.9618595,3.33622515 77.1555103,19.4908918" id="bg" fill="#028E9C"></path>
                <path d="M50.2815548,18.7780029 L50.2815548,30.5608601 C50.2815548,32.5893045 50.2767294,34.617495 50.2838405,36.6456855 C50.2906976,38.6393363 50.4710151,38.7815585 52.511904,38.337622 C52.65565,38.9103204 52.7808564,39.3964156 52.8994595,39.8840347 C53.3286659,41.6442886 53.2270786,41.7992093 51.4686024,42.081368 C48.1944437,42.6070823 46.4758405,41.4530506 46.3948246,38.1669553 C46.2426976,32.0067013 46.3511421,25.8398442 46.3511421,19.5698759 C47.655523,19.3070188 48.9149516,19.0533045 50.2815548,18.7780029 Z M25.4894786,26.7406442 C26.6742405,27.4753744 27.2012246,28.606549 27.2449072,29.9365807 C27.3142405,32.0485807 27.2261135,34.1676918 27.3401452,36.2763902 C27.4206532,37.7692156 27.7249072,39.2501045 27.9572881,40.9410252 C27.2167167,41.2551839 26.181796,41.694549 25.0290341,42.1836918 L24.5736373,41.3352156 C24.4208437,41.050549 24.2644627,40.7591839 24.0967167,40.446549 C22.6983675,41.7483902 21.0871929,42.3957553 19.1679548,41.9906759 C17.1133516,41.5574061 16.0007167,40.3708664 15.6238278,38.2113744 C15.2687802,36.1791204 16.0096056,34.1224855 17.701796,33.2975966 C18.8842722,32.7210886 20.2523992,32.5031839 21.5565262,32.2090886 C22.1993198,32.0640728 22.8852881,32.1097871 23.5303675,32.070422 C23.8026214,29.6937871 23.1318913,28.9577871 20.9137325,29.1396283 C20.3303675,29.1876283 19.7518278,29.3453426 19.1829389,29.4972156 C18.6214151,29.6475648 18.0743675,29.854041 17.5191929,30.0366442 C17.4102405,29.8456601 17.3310024,29.7458506 17.2926532,29.6323267 C17.0363992,28.8739775 16.7887802,28.1125807 16.5429389,27.3656601 C18.4992564,25.8128982 23.4529072,25.478168 25.4894786,26.7406442 Z M34.8783802,18.7786632 L34.8783802,27.1497109 C36.4547611,26.7669807 37.9529199,26.1856474 39.4820627,26.0855839 C41.5267611,25.9519966 42.8039675,27.0831712 42.9779357,29.1367585 C43.1874595,31.6159966 43.1308246,34.1185998 43.1661262,36.6112982 C43.1889833,38.2130759 43.1704437,39.8156156 43.1704437,41.5151712 L39.2192056,41.5151712 C39.2192056,39.860822 39.2265706,38.2227267 39.2171738,36.5848855 C39.2065072,34.7235521 39.2123484,32.8614569 39.1496183,31.0019013 C39.1133008,29.9238061 38.54365,29.2507902 37.3911421,29.2708537 C36.1611738,29.2921871 34.8870151,30.3039966 34.8809199,31.2802506 C34.863396,34.1998696 34.8745706,37.1197426 34.8743167,40.0396156 L34.8743167,41.5197426 L31.1049199,41.5197426 L31.1049199,19.5375204 C32.3488564,19.2873617 33.5442849,19.0468537 34.8783802,18.7786632 Z M60.3737706,26.5359204 L60.3737706,41.4687458 L56.4712945,41.4687458 L56.4712945,29.4080474 L53.7180246,29.4080474 L53.7180246,26.5359204 L60.3737706,26.5359204 Z M23.6426214,34.5872474 C22.5896691,34.7462315 21.6992564,34.7751839 20.878431,35.0291521 C19.6136691,35.4207712 19.0696691,36.518422 19.3911929,37.7146125 C19.6482087,38.6713109 20.6087167,39.2909934 21.6202722,39.1530886 C22.9302405,38.974295 23.6362722,38.1915648 23.6421135,36.9069934 L23.6429336,36.683672 L23.6429336,36.683672 L23.643167,35.4767759 C23.6430792,35.3869871 23.6429893,35.2946138 23.6429085,35.1992245 L23.6426214,34.5872474 L23.6426214,34.5872474 Z M58.597796,19.7570506 C59.8066849,19.8713363 60.6318278,20.8963521 60.5150024,22.1385109 C60.4075738,23.2793363 59.3815421,24.1603521 58.2577325,24.0765426 C57.0821135,23.9889236 56.141923,22.8943204 56.2455421,21.7341934 C56.3527167,20.5364791 57.4132881,19.6447966 58.597796,19.7570506 Z" id="ahli" fill="#FFFFFF"></path>
            </g>
        </g>
    </g>
</svg>