<?xml version="1.0" encoding="UTF-8"?>
<svg width="176px" height="30px" viewBox="0 0 176 30" version="1.1" xmlns="http://www.w3.org/2000/svg" xmlns:xlink="http://www.w3.org/1999/xlink">
    <title>logo-cambioReal</title>
    <defs>
        <linearGradient x1="-0.0986842105%" y1="50.1743421%" x2="100.055921%" y2="50.1743421%" id="linearGradient-1">
            <stop stop-color="#172FA3" offset="0%"></stop>
            <stop stop-color="#7600BE" offset="100%"></stop>
        </linearGradient>
        <linearGradient x1="-0.242718447%" y1="50.038835%" x2="100.048544%" y2="50.038835%" id="linearGradient-2">
            <stop stop-color="#172FA3" offset="0%"></stop>
            <stop stop-color="#7600BE" offset="100%"></stop>
        </linearGradient>
        <linearGradient x1="0.0557377049%" y1="50%" x2="99.8819672%" y2="50%" id="linearGradient-3">
            <stop stop-color="#172FA3" offset="0%"></stop>
            <stop stop-color="#7600BE" offset="100%"></stop>
        </linearGradient>
        <linearGradient x1="0.27184466%" y1="50.4854369%" x2="100.572816%" y2="50.4854369%" id="linearGradient-4">
            <stop stop-color="#172FA3" offset="0%"></stop>
            <stop stop-color="#7600BE" offset="100%"></stop>
        </linearGradient>
    </defs>
    <g id="final---draft" stroke="none" stroke-width="1" fill="none" fill-rule="evenodd">
        <g id="assets" transform="translate(-969.000000, -985.000000)" fill-rule="nonzero">
            <g id="logo-cambioReal" transform="translate(969.000000, 985.000000)">
                <path d="M54.0526316,7 C54.6842105,7.10526316 55.3157895,7.26315789 55.8421053,7.42105263 L56.2105263,7.52631579 L55.8421053,9.84210526 C55.5789474,9.68421053 55.3157895,9.57894737 55.0526316,9.42105263 C54.7894737,9.31578947 54.4210526,9.21052632 53.8421053,9.10526316 C53.2631579,9 52.6315789,8.94736842 51.8421053,8.94736842 C50.6842105,8.94736842 49.6842105,9.21052632 48.7894737,9.73684211 C47.9473684,10.2631579 47.2631579,11.0526316 46.7894737,12.0526316 C46.3157895,13.0526316 46.1052632,14.2105263 46.1052632,15.5263158 C46.1052632,16.8421053 46.3157895,18.0526316 46.7894737,19.0526316 C47.2631579,20.1052632 47.8947368,20.8947368 48.7894737,21.4736842 C49.6315789,22.0526316 50.6842105,22.3157895 51.8421053,22.3157895 C52.4210526,22.3157895 53,22.2631579 53.5789474,22.1578947 L55.1578947,21.7894737 C55.6315789,21.6315789 55.9473684,21.4736842 56.1578947,21.2631579 L56.1578947,23.4210526 C55.6842105,23.6315789 55.2105263,23.7894737 54.8947368,23.8947368 L53.5789474,24.2105263 C53.0526316,24.3157895 52.4736842,24.3684211 51.7894737,24.3684211 C50.1578947,24.3684211 48.7368421,24 47.5263158,23.3157895 C46.3157895,22.5789474 45.3684211,21.5789474 44.6842105,20.2631579 C44,18.9473684 43.6842105,17.4736842 43.6842105,15.7368421 C43.6842105,13.8947368 44.0526316,12.3157895 44.7894737,11 C45.5263158,9.68421053 46.5263158,8.63157895 47.7368421,7.94736842 C48.9473684,7.26315789 50.3157895,6.89473684 51.7368421,6.89473684 C52.5789474,6.84210526 53.4210526,6.89473684 54.0526316,7 L54.0526316,7 Z M66,11.5263158 C66.6842105,11.7368421 67.2105263,12.1578947 67.5789474,12.7368421 C67.9473684,13.3157895 68.1578947,14.1578947 68.1578947,15.2105263 L68.1578947,24.2631579 L67.1052632,24.2631579 C66.7368421,24.2631579 66.5263158,24.2631579 66.3157895,24.2105263 C66.1578947,24.1578947 66,24.0526316 65.8947368,23.8947368 C65.7894737,23.7368421 65.7368421,23.4736842 65.7368421,23.1052632 L65.7368421,23 C65.3684211,23.3684211 64.8421053,23.6315789 64.1578947,23.8947368 C63.4736842,24.1578947 62.7894737,24.2631579 62.0526316,24.2631579 C61.2631579,24.2631579 60.5789474,24.1052632 60,23.8421053 C59.3684211,23.5263158 58.8947368,23.1052632 58.5789474,22.5789474 C58.2631579,22 58.0526316,21.3684211 58.0526316,20.6315789 C58.0526316,19.7894737 58.2631579,19.1052632 58.7368421,18.4736842 C59.1578947,17.8947368 59.7894737,17.4210526 60.6315789,17.0526316 C61.3157895,16.7894737 62.1578947,16.5789474 63.0526316,16.4210526 C63.9473684,16.2631579 64.7894737,16.2105263 65.6315789,16.2105263 L65.6315789,15.0526316 C65.6315789,14.5263158 65.5263158,14.1052632 65.3157895,13.8421053 C65.1052632,13.5789474 64.8421053,13.3684211 64.4210526,13.2631579 C64,13.1578947 63.4736842,13.1052632 62.7894737,13.1052632 C62.4210526,13.1052632 62,13.1578947 61.5263158,13.2631579 L60.2105263,13.5789474 L59.2631579,13.9473684 L58.6315789,12.3684211 C58.8421053,12.2631579 59.2105263,12.1052632 59.7368421,11.8947368 C60.2631579,11.6842105 60.8421053,11.5263158 61.5263158,11.3684211 C62.2105263,11.2105263 62.8421053,11.1578947 63.4736842,11.1578947 C64.5263158,11.2105263 65.3684211,11.3157895 66,11.5263158 L66,11.5263158 Z M64,22.2631579 C64.4210526,22.1578947 64.7368421,22.0526316 65.0526316,21.8947368 C65.3684211,21.7368421 65.5263158,21.6315789 65.6315789,21.5263158 L65.6315789,17.8947368 C65.0526316,17.8947368 64.4210526,17.9473684 63.7368421,18.0526316 C63.0526316,18.1578947 62.4736842,18.3157895 62.0526316,18.5263158 C61.5789474,18.7368421 61.2105263,19 61,19.3157895 C60.7368421,19.6315789 60.6315789,20 60.6315789,20.4736842 C60.6315789,21.8421053 61.3684211,22.4736842 62.8947368,22.4736842 L64,22.2631579 L64,22.2631579 Z M88.5789474,11.6842105 C89.1052632,12 89.5263158,12.5263158 89.7894737,13.2631579 C90.0526316,14 90.1578947,14.9473684 90.1578947,16.2105263 L90.1578947,24.2631579 L87.6315789,24.2631579 L87.6315789,16.3157895 C87.6315789,15.5789474 87.5789474,15 87.4736842,14.5789474 C87.3684211,14.1578947 87.1052632,13.8421053 86.7894737,13.6315789 C86.4210526,13.4210526 85.9473684,13.3157895 85.2631579,13.3157895 C84.7894737,13.3157895 84.2631579,13.4210526 83.6842105,13.6315789 C83.1050885,13.8379368 82.5563193,14.1211725 82.0526316,14.4736842 L82.1578947,16.2631579 L82.1578947,24.3157895 L79.6315789,24.3157895 L79.6315789,16.3157895 C79.6315789,15.5789474 79.5789474,15 79.4210526,14.5789474 C79.3157895,14.1578947 79.0526316,13.8421053 78.7368421,13.6315789 C78.3684211,13.4210526 77.8947368,13.3157895 77.2631579,13.3157895 C76.7894737,13.3157895 76.2631579,13.4210526 75.6842105,13.6842105 C75.1052632,13.9473684 74.5263158,14.2631579 74.0526316,14.6315789 L74.0526316,24.2631579 L71.5263158,24.2631579 L71.5263158,11.2105263 L73.7894737,11.2105263 L73.7894737,12.7368421 C74.3684211,12.3684211 75.0526316,12 75.8947368,11.6842105 C76.6842105,11.3684211 77.5263158,11.2105263 78.2631579,11.2105263 C79.1052632,11.2105263 79.8421053,11.3157895 80.3684211,11.5789474 C80.8947368,11.8421053 81.3157895,12.2105263 81.5789474,12.7894737 C82.1578947,12.3684211 82.8947368,12 83.7894737,11.6842105 C84.6842105,11.3684211 85.5263158,11.2105263 86.3684211,11.2105263 C87.3157895,11.2105263 88.0526316,11.3684211 88.5789474,11.6842105 L88.5789474,11.6842105 Z M102.157895,11.8947368 C102.947368,12.3684211 103.578947,13 104,13.9473684 C104.473684,14.8421053 104.684211,16 104.684211,17.3157895 C104.684211,18.6842105 104.421053,19.8947368 103.842105,20.9473684 C103.315789,22 102.526316,22.8421053 101.526316,23.4210526 C100.526316,24 99.3684211,24.3157895 98.0526316,24.3157895 C97.4736842,24.3157895 96.8947368,24.2631579 96.2105263,24.1578947 L94.4736842,23.7894737 C93.9473684,23.6315789 93.6315789,23.5263158 93.4210526,23.3684211 L93.4210526,5.36842105 L95.9473684,5.36842105 L95.9473684,10.8421053 L95.8421053,12.6842105 C96.2631579,12.2631579 96.7368421,11.9473684 97.3157895,11.6315789 C97.8947368,11.3684211 98.5789474,11.2105263 99.4736842,11.2105263 C100.526316,11.2105263 101.368421,11.4210526 102.157895,11.8947368 L102.157895,11.8947368 Z M101.315789,14.2631579 C100.736842,13.5789474 99.9473684,13.2105263 98.8947368,13.2105263 C98.3157895,13.2105263 97.8421053,13.3157895 97.3684211,13.5263158 C96.8947368,13.7368421 96.4736842,14 96.1052632,14.3157895 L96.1052632,22.0526316 C96.5263158,22.3684211 97.3157895,22.4736842 98.4736842,22.4736842 C99.2105263,22.4736842 99.8421053,22.2631579 100.421053,21.8947368 C101,21.5263158 101.421053,20.9473684 101.736842,20.2105263 C102.052632,19.4736842 102.210526,18.5789474 102.210526,17.5263158 C102.157895,16.0526316 101.894737,14.9473684 101.315789,14.2631579 L101.315789,14.2631579 Z M107.368421,6.42105263 C107.526316,6.15789474 107.789474,5.94736842 108.052632,5.78947368 C108.368421,5.63157895 108.631579,5.52631579 108.947368,5.52631579 C109.473684,5.52631579 109.842105,5.68421053 110.157895,5.94736842 C110.421053,6.26315789 110.578947,6.63157895 110.578947,7.05263158 C110.578947,7.36842105 110.473684,7.68421053 110.315789,7.94736842 C110.157895,8.21052632 109.894737,8.42105263 109.631579,8.57894737 C109.368421,8.73684211 109.052632,8.78947368 108.736842,8.78947368 C108.421053,8.78947368 108.157895,8.73684211 107.947368,8.57894737 C107.684211,8.47368421 107.526316,8.26315789 107.368421,8.05263158 C107.210526,7.84210526 107.157895,7.52631579 107.157895,7.26315789 C107.105263,7 107.210526,6.68421053 107.368421,6.42105263 L107.368421,6.42105263 Z M110.105263,11.2105263 L110.105263,24.2631579 L107.578947,24.2631579 L107.578947,11.2105263 L110.105263,11.2105263 Z M113.736842,14.1578947 C114.263158,13.2105263 114.947368,12.4736842 115.842105,11.9473684 C116.736842,11.4736842 117.789474,11.2105263 118.894737,11.2105263 C120.210526,11.2105263 121.315789,11.5263158 122.157895,12.1052632 C123,12.6842105 123.631579,13.4736842 124.052632,14.4736842 C124.473684,15.4736842 124.631579,16.5789474 124.631579,17.8421053 C124.631579,19.2105263 124.368421,20.3684211 123.842105,21.3157895 C123.315789,22.2631579 122.631579,23 121.736842,23.5263158 C120.842105,24 119.789474,24.2631579 118.631579,24.2631579 C117.315789,24.2631579 116.210526,23.9473684 115.368421,23.3684211 C114.526316,22.7894737 113.894737,22 113.473684,21 C113.052632,20 112.894737,18.8947368 112.894737,17.6315789 C112.947368,16.2631579 113.210526,15.1052632 113.736842,14.1578947 Z M121.736842,15.4210526 C121.473684,14.6842105 121.105263,14.1052632 120.631579,13.6842105 C120.157895,13.2631579 119.526316,13.0526316 118.789474,13.0526316 C117.736842,13.0526316 116.894737,13.4210526 116.368421,14.2105263 C115.789474,15 115.526316,16.1052632 115.526316,17.5263158 C115.526316,18.4736842 115.631579,19.3157895 115.894737,20.0526316 C116.157895,20.7894737 116.526316,21.4210526 117,21.8421053 C117.473684,22.2631579 118.105263,22.5263158 118.842105,22.5263158 C119.894737,22.5263158 120.736842,22.1052632 121.263158,21.3157895 C121.842105,20.5263158 122.105263,19.3684211 122.105263,17.8947368 C122.105263,16.9473684 122,16.1052632 121.736842,15.4210526 L121.736842,15.4210526 Z M141.684211,24.2631579 L136.894737,24.2631579 C136.789474,24.1578947 136.736842,24 136.631579,23.8947368 C136.578947,23.7368421 136.421053,23.4736842 136.263158,23.0526316 C136.052632,22.5789474 135.842105,21.9473684 135.578947,21.1578947 L134.947368,19.5263158 C134.789474,19.1052632 134.578947,18.7894737 134.315789,18.5263158 C134.052632,18.2631579 133.789474,18.1052632 133.473684,18.1052632 L131.578947,18.1052632 L131.578947,24.3157895 L127.210526,24.3157895 L127.210526,6.84210526 L134,6.84210526 C135.157895,6.84210526 136.210526,7 137.157895,7.31578947 C138.105263,7.63157895 138.947368,8.21052632 139.526316,9 C140.157895,9.78947368 140.473684,10.8947368 140.473684,12.2631579 C140.473684,14.6842105 139.578947,16.3684211 137.736842,17.2105263 C138.157895,17.5263158 138.473684,17.9473684 138.789474,18.4736842 C139.105263,19 139.421053,19.7368421 139.842105,20.6842105 C140.052632,21.2105263 140.263158,21.6842105 140.421053,22.0526316 C140.578947,22.4210526 140.736842,22.7368421 140.947368,23.0526316 L141.684211,24.2631579 L141.684211,24.2631579 Z M131.631579,15.1052632 C131.842105,15.1578947 132.210526,15.1578947 132.631579,15.1578947 L133.736842,15.1578947 C134.578947,15.1578947 135.210526,14.8947368 135.631579,14.3684211 C136.052632,13.8421053 136.263158,13.1578947 136.263158,12.3157895 C136.263158,10.6842105 135.315789,9.84210526 133.421053,9.84210526 C132.684211,9.84210526 132.052632,9.94736842 131.578947,10.1052632 L131.578947,15.1052632 L131.631579,15.1052632 Z M154.526316,18.5789474 L146.842105,18.5789474 C146.947368,19.5263158 147.263158,20.2105263 147.789474,20.6315789 C148.315789,21.0526316 149.105263,21.2631579 150.105263,21.2631579 C150.777603,21.2659395 151.448239,21.1953462 152.105263,21.0526316 C152.789474,20.8947368 153.315789,20.7894737 153.631579,20.5789474 L154.263158,22.8421053 C153.789474,23.2105263 153.105263,23.5789474 152.157895,23.8421053 C151.16446,24.121713 150.137296,24.2633908 149.105263,24.2631582 C147.736842,24.2631582 146.526316,24 145.578947,23.4736842 C144.578947,22.9473684 143.842105,22.2105263 143.368421,21.2105263 C142.842105,20.2105263 142.631579,19.0526316 142.631579,17.6842105 C142.631579,16.4210526 142.894737,15.3157895 143.421053,14.3684211 C143.947368,13.3684211 144.684211,12.6315789 145.684211,12.0526316 C146.684211,11.4736842 147.842105,11.2105263 149.210526,11.2105263 C150.789474,11.2105263 152.105263,11.5789474 153.157895,12.3684211 C154.157895,13.1578947 154.684211,14.4210526 154.736842,16.2631579 L154.526316,18.5789474 L154.526316,18.5789474 Z M150.736842,16.0526316 C150.736842,15.3684211 150.578947,14.8421053 150.315789,14.4736842 C150.052632,14.1578947 149.631579,13.9473684 149.052632,13.9473684 C148.421053,13.9473684 147.947368,14.1578947 147.578947,14.5263158 C147.210526,14.8947368 147,15.5789474 146.894737,16.4736842 L150.736842,16.4736842 L150.736842,16.0526316 Z M165.736842,11.6842105 C166.578947,12 167.157895,12.5263158 167.526316,13.2105263 C167.894737,13.8947368 168.105263,14.8421053 168.105263,16 L168.105263,24.3157895 L165.421053,24.3157895 C165.052632,24.3157895 164.842105,24.3157895 164.631579,24.2631579 C164.473684,24.2105263 164.315789,24.1052632 164.210526,23.9473684 C164.105263,23.7894737 164.052632,23.5263158 164.052632,23.1578947 L164.052632,23.0526316 C163.052632,23.8947368 161.842105,24.3157895 160.421053,24.3157895 C159.578947,24.3157895 158.842105,24.1578947 158.157895,23.7894737 C157.526316,23.4210526 157,22.9473684 156.684211,22.3157895 C156.315789,21.6842105 156.157895,20.9473684 156.157895,20.1578947 C156.157895,19.4210526 156.368421,18.7368421 156.789474,18.1578947 C157.210526,17.5789474 157.789474,17.1578947 158.526316,16.8421053 C159.263158,16.5263158 160.052632,16.3157895 160.947368,16.2105263 C161.842105,16.1052632 162.842105,16.0526316 163.842105,16.0526316 L163.842105,15.4210526 C163.842105,15.1052632 163.789474,14.8421053 163.631579,14.6842105 C163.526316,14.5263158 163.263158,14.4210526 162.947368,14.3684211 C162.631579,14.3157895 162.105263,14.2631579 161.421053,14.2631579 C160.947368,14.2631579 160.263158,14.3157895 159.526316,14.4736842 C158.736842,14.6315789 158.052632,14.7894737 157.526316,15 L156.684211,12.6315789 C157.052632,12.4210526 157.526316,12.2105263 158.105263,12 L160.157895,11.4210526 C160.894737,11.2631579 161.684211,11.2105263 162.368421,11.2105263 C163.789474,11.2105263 164.894737,11.3684211 165.736842,11.6842105 L165.736842,11.6842105 Z M163.157895,21.5263158 C163.473684,21.4210526 163.684211,21.2631579 163.842105,21.1578947 L163.842105,18.1052632 C163.421053,18.1052632 163,18.1578947 162.578947,18.2105263 C162.157895,18.2631579 161.789474,18.3684211 161.578947,18.4736842 C161.263158,18.5789474 161.052632,18.7368421 160.842105,18.9473684 C160.631579,19.1578947 160.578947,19.4736842 160.578947,19.8947368 C160.578947,20.4736842 160.736842,20.8947368 161.052632,21.2105263 C161.368421,21.5263158 161.789474,21.6842105 162.210526,21.6842105 C162.526316,21.6842105 162.842105,21.6315789 163.157895,21.5263158 L163.157895,21.5263158 Z M175.315789,5.26315789 L175.315789,24.3157895 L171.052632,24.3157895 L171.052632,5.26315789 L175.315789,5.26315789 Z" id="Shape" fill="#1C1C1C"></path>
                <path d="M21.8421053,13.5789474 C17.4210526,13.5789474 13.8421053,17.1578947 13.8421053,21.5789474 C13.8421053,26 17.4210526,29.5789474 21.8421053,29.5789474 C26.2631579,29.5789474 29.8421053,26 29.8421053,21.5789474 C29.8421053,17.1578947 26.2631579,13.5789474 21.8421053,13.5789474 Z M24.5789474,24.3157895 L19.1052632,24.3157895 L19.1052632,18.8947368 L24.5263158,18.8947368 L24.5263158,24.3157895 L24.5789474,24.3157895 Z" id="Shape" fill="url(#linearGradient-1)"></path>
                <polygon id="Path" fill="url(#linearGradient-2)" points="5.68421053 18.8947368 11.1052632 18.8947368 11.1052632 24.3157895 5.68421053 24.3157895"></polygon>
                <path d="M16.4210526,8.15789474 C16.4210526,3.73684211 12.8421053,0.157894737 8.42105263,0.157894737 C4,0.157894737 0.368421053,3.73684211 0.368421053,8.15789474 C0.368421053,12.5789474 3.94736842,16.1578947 8.36842105,16.1578947 C12.7894737,16.1578947 16.4210526,12.5789474 16.4210526,8.15789474 Z M5.68421053,5.42105263 L11.1052632,5.42105263 L11.1052632,10.8421053 L5.68421053,10.8421053 L5.68421053,5.42105263 Z" id="Shape" fill="url(#linearGradient-3)"></path>
                <polygon id="Path" fill="url(#linearGradient-4)" points="19.1052632 5.42105263 24.5263158 5.42105263 24.5263158 10.8421053 19.1052632 10.8421053"></polygon>
            </g>
        </g>
    </g>
</svg>