<?xml version="1.0" encoding="UTF-8"?>
<svg width="65px" height="72px" viewBox="0 0 65 72" version="1.1" xmlns="http://www.w3.org/2000/svg" xmlns:xlink="http://www.w3.org/1999/xlink">
    <title>logo-unilever</title>
    <defs>
        <polygon id="path-1" points="0.198821061 0.0903157931 11.5381899 0.0903157931 11.5381899 9.32955827 0.198821061 9.32955827"></polygon>
    </defs>
    <g id="final---draft" stroke="none" stroke-width="1" fill="none" fill-rule="evenodd">
        <g id="assets" transform="translate(-882.000000, -975.000000)">
            <g id="logo-unilever" transform="translate(882.000000, 975.000000)">
                <path d="M54.2604022,4.23953701 C54.7713495,4.39743175 55.0858759,4.90774756 55.0858759,5.47680022 C55.0858759,6.4955371 54.1044021,7.71258978 51.4182968,7.71258978 C51.1827178,7.71258978 50.9465073,7.71258978 50.691981,7.69301083 C52.9877705,7.31974766 54.2604022,5.98648445 54.2604022,4.23953701 M54.6349285,1.3955369 C54.9084022,1.3955369 55.1250338,1.61216849 55.1250338,1.88627376 C55.1250338,2.16164219 54.9084022,2.37701062 54.6349285,2.37701062 C54.3595601,2.37701062 54.1441916,2.16164219 54.1441916,1.88627376 C54.1441916,1.61216849 54.3595601,1.3955369 54.6349285,1.3955369 M50.4374546,3.45511593 C49.4755599,3.47469487 47.6130335,3.90669489 47.6130335,4.1618528 C47.6130335,4.47574755 50.9465073,4.82943177 50.9465073,6.22080025 C50.9465073,7.12395818 50.220823,7.2224845 49.9265072,7.2224845 C48.8275598,7.2224845 48.2414545,6.08374761 47.9465072,6.08374761 C47.8681914,6.08374761 47.789244,6.14311603 47.789244,6.24101077 C47.789244,6.41658973 47.9465072,6.88774764 47.9465072,7.37911608 C47.9465072,8.6340635 46.553244,8.77174772 46.553244,9.02690562 C46.553244,9.12416878 46.5917703,9.16332668 46.749665,9.18290563 C47.7702966,9.34016879 48.8079809,9.41911616 49.7894546,9.41911616 C53.3414548,9.41911616 56.2441917,8.32016875 56.2441917,5.22164231 C56.2441917,3.5340633 55.7136654,2.96564222 55.7136654,2.14143166 C55.7136654,1.86732639 55.9094549,1.29764216 56.4393496,0.983747408 C55.4578759,0.983747408 55.3012443,0.690063185 54.6349285,0.690063185 C53.8296653,0.690063185 53.2625074,1.23890531 53.2625074,2.06374745 C53.2625074,2.33722115 53.3610337,2.76985274 53.3610337,3.33701066 C53.3610337,4.02416858 53.2233495,4.67216861 52.6151389,4.67216861 C52.0460863,4.67216861 51.8294547,4.29890543 51.8294547,3.86690542 C51.8294547,3.08374749 52.2431389,2.55385273 52.2431389,2.04353692 C52.2431389,1.12143162 51.1037705,0.846063192 49.8879809,0.846063192 C48.4366125,0.846063192 46.8677703,1.23890531 46.8677703,1.43595795 C46.8677703,1.76880007 48.9646125,1.57237901 50.4374546,3.45511593" id="Fill-1" fill="#232E83"></path>
                <path d="M53.6146127,10.0470951 C52.9685074,10.0470951 52.1247179,10.6540425 51.2411389,10.6540425 C50.966402,10.6540425 50.613981,10.6540425 50.2798757,10.5561478 C50.613981,10.8119373 50.5533494,11.3803583 50.7314546,11.733411 C50.9461915,12.165411 51.3390336,12.165411 51.6144021,12.165411 C52.4386126,12.165411 54.1830337,11.4580426 54.1830337,10.5946741 C54.1830337,10.3224636 54.0466127,10.0470951 53.6146127,10.0470951" id="Fill-3" fill="#232E83"></path>
                <path d="M38.5301068,18.3044849 C38.5301068,18.7156428 38.8635805,19.0510113 39.27537,19.0510113 C39.6877911,19.0510113 40.0218963,18.7156428 40.0218963,18.3044849 C40.0218963,17.8926954 39.6877911,17.5598533 39.27537,17.5598533 C38.8635805,17.5598533 38.5301068,17.8926954 38.5301068,18.3044849" id="Fill-5" fill="#232E83"></path>
                <path d="M53.4789495,39.4290963 C54.810318,38.2537278 55.5562127,36.5263593 55.5562127,34.9385698 C55.5562127,33.4467803 54.7711601,32.1722539 53.7909495,32.1722539 C52.9294758,32.1722539 52.4576863,32.8587803 52.4576863,33.6040434 C52.4576863,34.0556224 52.63516,34.5267803 52.9882126,34.860254 C52.63516,34.5059382 52.1444231,34.3297277 51.5166336,34.3297277 C50.8092652,34.3297277 50.2212652,34.8792014 50.2212652,35.7021488 C50.2212652,37.6259383 53.4593705,36.7821488 53.4789495,39.4290963" id="Fill-7" fill="#232E83"></path>
                <path d="M41.7867174,25.9734958 C42.5319806,25.9734958 43.1401912,25.3652852 43.1401912,24.620022 C43.1401912,23.8753904 42.5319806,23.2671799 41.7867174,23.2671799 C41.0401911,23.2671799 40.4326121,23.8753904 40.4326121,24.620022 C40.4326121,25.3652852 41.0401911,25.9734958 41.7867174,25.9734958" id="Fill-9" fill="#232E83"></path>
                <path d="M55.9294127,13.0865689 C55.0268864,14.9118322 52.6534126,15.2844638 51.8892021,15.2055164 C52.14436,17.0693059 54.9681496,19.5798324 55.7329917,19.5210955 C56.2439391,19.5210955 56.4397286,17.0882533 56.4397286,15.2055164 C56.4397286,14.1261479 56.4984654,13.28299 55.9294127,13.0865689" id="Fill-11" fill="#232E83"></path>
                <path d="M52.1830758,20.1690324 C51.9872863,20.1690324 51.6146547,20.0705061 51.3588652,20.0705061 C50.6919178,20.0705061 50.2213915,20.9926114 49.8677072,20.9926114 C49.7502336,20.9926114 49.6908651,20.8745061 49.6908651,20.7759798 C49.6908651,20.4033482 50.3584441,19.9524008 50.3584441,19.698506 C50.3584441,19.5210324 50.0647599,19.4629271 49.9453915,19.4629271 C49.2784441,19.4629271 48.3386546,20.3837692 47.8081282,20.3837692 C47.7114966,20.3837692 47.5927598,20.3262955 47.5927598,20.2081903 C47.5927598,19.9524008 48.3007598,19.5999797 48.3007598,19.3246113 C48.3007598,19.0707165 48.0051809,19.0302955 47.8081282,19.0302955 C47.4752861,19.0302955 46.8279177,19.2077692 46.4161282,19.2077692 C46.1799176,19.2077692 46.0030755,19.1484008 46.0030755,18.9715586 C46.0030755,18.5780849 47.2794966,18.834506 47.2794966,18.3627165 C47.2794966,18.1473481 46.8872861,17.7166112 46.8872861,17.4804007 C46.8872861,17.3831375 46.9851808,17.3237691 47.0830756,17.3237691 C47.5346545,17.3237691 48.0051809,18.5597692 48.5357072,18.5597692 C48.7681283,18.5597692 48.8281283,18.3822955 48.8281283,18.1284007 C48.8281283,17.8738744 48.7883388,17.7361902 48.7883388,17.5208217 C48.7883388,17.2858744 48.8862335,17.2265059 48.9645493,17.2265059 C49.2986546,17.2265059 49.5917072,18.9911376 50.4954967,18.9911376 C50.8877073,18.9911376 50.6142336,17.9124007 50.9660231,17.9124007 C51.1826547,17.9124007 51.2413915,18.2262955 51.2609705,18.402506 C51.3588652,19.5601903 52.3997073,19.5999797 52.3997073,20.0117692 C52.3997073,20.0705061 52.3403389,20.1690324 52.1830758,20.1690324 M55.8904443,27.8553485 C54.9677074,27.8553485 54.4378127,29.4658749 53.5371811,29.563138 C54.104339,27.2092432 56.4392865,25.9928221 56.4392865,23.796822 C56.4392865,21.3058745 54.3392864,20.4229271 53.4594969,19.8747166 C52.0068652,17.794927 50.9660231,16.1667164 48.614023,16.1667164 C47.6129703,16.1667164 46.9851808,16.342927 46.2980229,16.342927 C44.9641281,16.342927 44.551707,15.8326112 44.4531807,15.8326112 C44.4329702,15.8326112 44.4146544,15.8521901 44.4146544,15.9311375 C44.4146544,17.7557691 45.3759176,21.933664 49.5917072,21.933664 C51.8496021,21.933664 52.8108653,21.0709272 53.3413916,21.0709272 C53.9079179,21.0709272 55.7331812,21.6980851 55.7331812,23.7772431 C55.7331812,24.9342957 54.8104443,26.1102958 54.4769706,26.1102958 C54.1637074,26.1102958 53.8100232,25.580401 53.8100232,25.0321905 C53.8100232,24.4239799 54.1441285,23.2871378 54.1441285,22.5810325 C54.1441285,22.3265062 54.104339,22.1888219 53.9470758,22.1888219 C53.5965495,22.1888219 51.9083389,23.2473483 51.9083389,24.600822 C51.9083389,25.7578747 53.6148653,26.4646116 54.260339,26.7968221 C53.6148653,27.8553485 53.2232863,28.543138 52.9093916,29.5246117 C52.9093916,28.7787169 52.2020231,27.2686116 51.9872863,26.6591379 C50.9268652,23.7185062 50.5352862,23.1696641 48.3007598,22.9145062 C48.6336019,24.0905062 52.47676,26.9351379 52.47676,29.8385064 C52.47676,30.014717 52.4578126,30.2692433 52.4382337,30.3665065 C51.2799178,26.9736642 49.2784441,26.1892431 48.5546546,25.3656642 C47.3969703,24.0715589 48.0639177,22.8153483 46.1799176,22.1105061 C46.2980229,22.2671377 46.3371808,22.4641904 46.3371808,22.6795588 C46.3371808,23.3067167 45.9847597,24.0905062 45.9847597,24.6399799 C45.9847597,26.6793484 48.378444,26.0711379 49.7704441,27.1896642 C51.1428652,28.2873485 51.9083389,30.0936644 52.47676,32.0932434 C53.0274968,31.210296 53.3413916,30.1517696 54.320339,30.1517696 C54.9474969,30.1517696 55.1647601,30.9361907 55.1647601,31.486296 C55.1647601,31.6031381 55.1647601,31.7010328 55.143918,31.7799802 C56.0868654,30.9753486 56.5769707,29.6818749 56.5769707,28.8166117 C56.5769707,28.2298748 56.3616022,27.8553485 55.8904443,27.8553485" id="Fill-13" fill="#232E83"></path>
                <path d="M41.1588016,21.8552851 C41.1588016,22.2879167 41.5124859,22.6403377 41.9432227,22.6403377 C42.3752227,22.6403377 42.7282754,22.2879167 42.7282754,21.8552851 C42.7282754,21.4239166 42.3752227,21.070864 41.9432227,21.070864 C41.5124859,21.070864 41.1588016,21.4239166 41.1588016,21.8552851" id="Fill-15" fill="#232E83"></path>
                <path d="M51.5940652,12.9108005 C50.9466968,12.9108005 50.7502757,13.3611163 50.7502757,13.5960637 C50.7502757,14.146169 51.2801705,14.3817479 52.0462758,14.3817479 C54.0850127,14.3817479 55.9494338,12.7535373 55.9494338,11.3211162 C55.9494338,10.6541688 55.6349075,10.1065899 54.8302759,10.007432 C54.9679601,10.1842741 55.0273285,10.3219583 55.0273285,10.6345899 C55.0273285,11.7133268 53.3808021,12.9108005 51.5940652,12.9108005" id="Fill-17" fill="#232E83"></path>
                <path d="M40.7264858,37.2136436 C40.4523806,37.2136436 40.2565911,36.9976436 40.2565911,36.7235383 C40.2565911,36.5662751 40.3544858,36.3306962 40.3728016,36.1342751 C40.4138542,35.8791172 40.3544858,35.6441698 40.5104858,35.6441698 C40.8648016,35.6441698 41.2380648,36.2132225 41.2380648,36.6243804 C41.2380648,36.9389067 41.0403806,37.2136436 40.7264858,37.2136436 M39.2372226,34.1144856 C39.5113279,34.4473277 39.6092226,34.7808014 39.6092226,35.1136435 C39.6092226,35.9580646 38.9612226,36.821433 38.9612226,37.6456436 C38.9612226,38.7426963 39.6875384,39.4292226 40.6873279,39.4292226 C41.7869069,39.4292226 42.415328,38.5090121 42.415328,37.5079594 C42.415328,36.0559593 41.2961701,34.5060645 39.2372226,34.1144856" id="Fill-19" fill="#232E83"></path>
                <path d="M44.0218754,47.9442966 C44.1197702,47.9442966 44.2378754,48.0030335 44.2378754,48.3554546 C44.2378754,48.7861914 44.0414544,49.3546125 43.3372438,49.8061915 C42.846507,50.1396652 42.178928,50.4137704 41.1974543,50.433981 C41.3540859,49.962823 41.4728227,49.4733493 41.4728227,49.0021914 C41.4728227,48.8449283 41.4532438,48.7261914 41.4330332,48.5525072 L41.6888227,48.5525072 C43.2387175,48.5525072 43.9044017,47.9442966 44.0218754,47.9442966 M39.8244016,47.159244 C39.6292437,47.159244 39.4132437,47.3550335 39.1972437,47.6101914 C38.7260857,48.1590335 38.1178752,49.178402 38.1178752,50.2962967 C38.1178752,51.0813494 38.7260857,51.8670336 39.8641911,51.8670336 C43.5330333,51.8670336 46.2778755,49.5706125 46.2778755,47.7087177 C46.2778755,46.6482966 45.650086,46.2175597 45.1991386,46.2175597 C44.6888228,46.6091387 43.4938754,47.4927177 41.5119806,47.4927177 C40.4528227,47.4927177 39.9822963,47.159244 39.8244016,47.159244" id="Fill-21" fill="#232E83"></path>
                <path d="M40.8251385,20.8542324 C40.8251385,20.1879166 40.2952437,19.6573903 39.6289279,19.6573903 C38.9613489,19.6573903 38.4320857,20.1879166 38.4320857,20.8542324 C38.4320857,21.5218114 38.9613489,22.0517061 39.6289279,22.0517061 C40.2952437,22.0517061 40.8251385,21.5218114 40.8251385,20.8542324" id="Fill-23" fill="#232E83"></path>
                <path d="M38.5880857,23.4243799 C38.5880857,23.8570115 38.94177,24.2075378 39.37377,24.2075378 C39.80577,24.2075378 40.1575595,23.8570115 40.1575595,23.4243799 C40.1575595,22.9917483 39.80577,22.6405904 39.37377,22.6405904 C38.94177,22.6405904 38.5880857,22.9917483 38.5880857,23.4243799" id="Fill-25" fill="#232E83"></path>
                <path d="M47.4363808,31.877875 C48.945223,31.877875 49.612802,34.1926119 49.8679599,34.1926119 C50.1426967,34.1926119 49.965223,33.1530329 50.1035388,32.9951382 C50.1616441,32.9168224 50.2993283,32.897875 50.4565915,32.897875 C50.712381,32.897875 51.0458547,32.9559803 51.2612231,32.9559803 C51.3989073,32.9559803 51.4765915,32.9370329 51.496802,32.878296 C51.516381,32.6812434 50.2993283,32.290296 50.2993283,31.9568223 C50.2993283,31.6625065 50.9662757,31.0151381 50.9662757,30.8180854 C50.9662757,30.7593486 50.9264862,30.7201907 50.868381,30.7201907 C50.5746967,30.7201907 49.6519599,31.426296 48.3389072,31.426296 C47.7894335,31.426296 47.3972229,31.3479802 47.3972229,30.9557697 C47.3972229,30.5635591 47.7306966,30.2692433 48.2801703,30.0342959 C48.8466967,29.779138 50.0441704,29.779138 50.0441704,29.4854538 C50.0441704,29.2877696 48.9060651,29.2492433 48.9060651,29.0332433 C48.9060651,28.7787169 49.3576441,28.1307169 49.3576441,27.8370327 C49.3576441,27.8168222 49.3374335,27.7385064 49.2786967,27.7385064 C49.0639598,27.7385064 48.5353282,28.3865064 48.1822756,28.3865064 C47.8683808,28.3865064 47.5930124,27.5818748 47.2993282,27.5622958 C47.2203808,27.5622958 47.1610124,27.6216643 47.1610124,27.7580853 C47.1610124,28.0719801 47.2993282,28.6801906 47.2993282,29.4658749 C47.2993282,30.1517696 46.945644,30.7789275 46.5332229,30.7789275 C46.0431176,30.7789275 45.8852229,30.2098749 45.8852229,29.7204012 C45.8852229,29.0142959 46.258486,28.1894538 46.258486,27.4650327 C46.258486,27.287559 46.2193282,27.2294537 46.122065,27.2294537 C45.8271176,27.2294537 45.3951176,28.0132432 45.0812228,28.0132432 C44.8860649,28.0132432 44.4730123,27.0526116 44.1786965,27.0526116 C44.0997491,27.0526116 44.0801702,27.2092432 44.0801702,27.4056642 C44.0801702,27.6804011 44.1199596,28.0321906 44.1199596,28.2090327 C44.1199596,28.4439801 43.8256438,28.4641906 43.5325912,28.4641906 C43.3374333,28.4641906 42.8662754,28.4641906 42.8662754,28.6214538 C42.8662754,28.7787169 43.2780649,28.9745064 43.6513281,29.2100854 C44.374486,29.6812433 45.4746965,30.1713486 45.4746965,31.3088223 C45.4746965,32.3294539 44.002486,33.053875 43.0026964,33.2313487 C42.5315385,33.3096645 42.0218543,33.4069276 42.0218543,33.5452434 C42.0218543,33.7808224 43.3172228,33.8199803 43.3172228,34.1142961 C43.3172228,34.2715593 42.7488017,35.0364014 42.7488017,35.2707172 C42.7488017,35.3105067 42.7879596,35.3300856 42.8264859,35.3300856 C43.0431175,35.3300856 43.670907,34.8008224 43.9626965,34.8008224 C44.354907,34.8008224 44.2772228,35.9180856 44.5715386,35.9180856 C44.8860649,35.9180856 44.786907,34.2519803 44.9239597,33.8199803 C45.1601702,33.0740855 45.6894334,32.3294539 46.1605913,32.3294539 C46.7302755,32.3294539 46.7890124,33.3488224 46.7890124,33.8199803 C46.7890124,34.8204014 46.0626966,35.8391383 46.0626966,36.2913488 C46.0626966,36.3500857 46.102486,36.4088225 46.1605913,36.4088225 C46.3772229,36.4088225 46.8875387,35.7614541 47.1218545,35.7614541 C47.3972229,35.7614541 47.9669072,36.8401909 48.201223,36.8401909 C48.3193282,36.8401909 48.3389072,36.7233488 48.3389072,36.6248225 C48.3389072,36.3115593 48.1822756,35.7816646 48.1822756,35.4273488 C48.1822756,35.0364014 49.4365914,35.2511382 49.4365914,35.0168224 C49.4365914,34.8987172 48.8864862,34.6833487 48.5549072,34.4673487 C47.8285914,34.0353487 47.0631177,33.1328224 47.0631177,32.3490329 C47.0631177,32.0547171 47.2203808,31.877875 47.4363808,31.877875" id="Fill-27" fill="#232E83"></path>
                <path d="M37.4125278,18.5598323 C36.9805278,18.5598323 36.6281067,18.912885 36.6281067,19.3442534 C36.6281067,19.7762534 36.9805278,20.1293061 37.4125278,20.1293061 C37.8438962,20.1293061 38.1963173,19.7762534 38.1963173,19.3442534 C38.1963173,18.912885 37.8438962,18.5598323 37.4125278,18.5598323" id="Fill-29" fill="#232E83"></path>
                <path d="M42.3362543,44.077707 C40.9038332,44.077707 40.1383595,44.7250755 40.1383595,45.0004439 L40.1383595,45.9029702 C40.1383595,46.2756018 41.0017279,46.6482334 42.0615175,46.6482334 C42.9046754,46.6482334 43.6707807,46.432865 44.1785702,46.000865 C44.3364649,45.8631808 44.3749912,45.6484439 44.3749912,45.4324439 L44.3749912,44.9808649 C44.3749912,44.4118123 43.5128859,44.077707 42.3362543,44.077707" id="Fill-31" fill="#232E83"></path>
                <path d="M44.1785702,39.6258332 C44.9832018,39.6258332 45.5333071,38.9784647 45.5333071,38.2142542 C45.5333071,37.1746752 44.5909912,36.2917278 43.1200438,36.1925699 C43.257728,36.4085699 43.3170965,36.6245699 43.3170965,36.8216225 C43.3170965,37.3710962 42.9444649,37.8807805 42.9444649,38.4498331 C42.9444649,39.0953068 43.4352017,39.6258332 44.1785702,39.6258332" id="Fill-33" fill="#232E83"></path>
                <path d="M38.8052226,12.7146321 C38.8052226,12.8327374 38.8639594,12.9508426 39.0016437,13.0083163 C39.5113279,13.2445268 39.8245911,13.6158953 39.9818542,13.9500006 C40.8648016,13.4592637 41.2172227,12.1064215 41.2172227,11.3213689 C41.2172227,11.0864215 41.2172227,10.7529478 41.0018543,10.7529478 C40.8445911,10.7529478 40.64817,10.9487373 40.4523806,10.9487373 C40.27617,10.9487373 39.7866963,10.2824215 38.5298542,10.2824215 C37.0980646,10.2824215 36.509433,11.3409478 36.509433,12.2043163 C36.509433,12.4398952 36.569433,12.6754742 36.6471172,12.8712637 C36.7658541,12.3224215 37.3532225,11.7135794 38.2159594,11.7135794 C38.4906963,11.7135794 39.0799594,11.850632 39.2372226,12.1064215 C39.0016437,12.2245268 38.8052226,12.4986321 38.8052226,12.7146321" id="Fill-35" fill="#232E83"></path>
                <path d="M42.0809069,16.4208638 C42.0809069,16.8339165 42.4150122,17.1673902 42.8268017,17.1673902 C43.2385912,17.1673902 43.5720649,16.8339165 43.5720649,16.4208638 C43.5720649,16.0097059 43.2385912,15.6756006 42.8268017,15.6756006 C42.4150122,15.6756006 42.0809069,16.0097059 42.0809069,16.4208638" id="Fill-37" fill="#232E83"></path>
                <path d="M44.4530544,12.3032847 C44.6886334,12.3032847 45.3164229,12.6165479 46.141265,12.7536005 C47.1018966,12.9108637 47.612844,12.9304426 47.8680019,12.9304426 C48.1231598,12.9304426 48.2412651,12.9885479 48.2412651,13.0668637 C48.2412651,13.3024426 47.593265,13.6946532 46.7298966,13.6946532 C45.277265,13.6946532 44.3362123,12.9108637 44.3362123,12.4005479 C44.3362123,12.341811 44.3747386,12.3032847 44.4530544,12.3032847 M46.5145282,15.1466532 C48.3006335,15.1466532 49.8088441,14.5384427 49.8088441,13.5380216 C49.8088441,12.6752847 48.9650546,10.8310741 48.3783177,10.8310741 C48.0050545,10.8310741 47.3778966,11.2428636 46.8871598,11.2428636 C46.2581071,11.2428636 46.4362124,10.4590741 45.7484229,10.4590741 C45.5917913,10.4590741 45.4149492,10.4988636 45.2387386,10.5948636 C43.8063175,11.3016004 42.7086333,11.0470741 42.454107,11.2043373 C42.3953701,11.2428636 42.3360017,11.2820215 42.3360017,11.4001268 C42.3360017,12.8710742 43.9048438,15.1466532 46.5145282,15.1466532" id="Fill-39" fill="#232E83"></path>
                <path d="M37.0788646,20.9924219 C36.4706541,20.9924219 35.9609699,21.5027377 35.9609699,22.1109482 C35.9609699,22.7191588 36.4706541,23.2282114 37.0788646,23.2282114 C37.6870752,23.2282114 38.1967594,22.7191588 38.1967594,22.1109482 C38.1967594,21.5027377 37.6870752,20.9924219 37.0788646,20.9924219" id="Fill-41" fill="#232E83"></path>
                <path d="M44.0218754,19.657706 C43.5721912,19.657706 43.2001912,20.0316008 43.2001912,20.4819166 C43.2001912,20.9334956 43.5721912,21.3054956 44.0218754,21.3054956 C44.4728228,21.3054956 44.846086,20.9334956 44.846086,20.4819166 C44.846086,20.0316008 44.4728228,19.657706 44.0218754,19.657706" id="Fill-43" fill="#232E83"></path>
                <path d="M44.2575175,24.6591168 C43.8646754,24.6591168 43.5128859,24.9925905 43.5128859,25.3841694 C43.5128859,25.8351168 43.8646754,26.1496431 44.2575175,26.1496431 C44.688886,26.1496431 45.0229913,25.8351168 45.0229913,25.3841694 C45.0229913,24.9925905 44.688886,24.6591168 44.2575175,24.6591168" id="Fill-45" fill="#232E83"></path>
                <path d="M41.7867174,14.08699 C41.7867174,13.7933058 41.6484017,13.1453058 41.4134543,12.8326742 C41.4134543,14.5979374 40.1382963,15.3040427 39.0204016,15.3040427 C38.7462963,15.3040427 38.4905068,15.2648848 38.2555594,15.1663585 C38.4905068,14.9699374 38.6875594,14.6175164 38.6875594,14.4015164 C38.6875594,14.2632006 38.5694542,14.1848848 38.3932436,14.1848848 C38.2555594,14.1848848 37.9997699,14.2442532 37.7844015,14.2442532 C37.2355594,14.2442532 36.7852436,14.0282532 36.2742962,13.5381479 C35.9212435,14.0282532 35.7646119,14.6952006 35.7646119,15.3229901 C35.7646119,16.382148 36.1757699,17.3832007 36.6279804,17.4615165 C36.8831383,17.4804639 36.8635594,16.7352007 37.2355594,16.7352007 C37.3530331,16.7352007 37.824191,17.0490954 38.7665068,17.0490954 C40.2166121,17.0490954 41.7867174,16.2248849 41.7867174,14.08699" id="Fill-47" fill="#232E83"></path>
                <path d="M40.6098964,18.8343165 C40.6098964,19.5208429 41.1783174,20.089264 41.8654753,20.089264 C42.5513701,20.089264 43.1204228,19.5208429 43.1204228,18.8343165 C43.1204228,18.1471586 42.5513701,17.5793691 41.8654753,17.5793691 C41.1783174,17.5793691 40.6098964,18.1471586 40.6098964,18.8343165" id="Fill-49" fill="#232E83"></path>
                <path d="M44.1785702,22.0323167 C43.6707807,22.0323167 43.257728,22.4441062 43.257728,22.9525272 C43.257728,23.4634746 43.6707807,23.8752641 44.1785702,23.8752641 C44.688886,23.8752641 45.1006755,23.4634746 45.1006755,22.9525272 C45.1006755,22.4441062 44.688886,22.0323167 44.1785702,22.0323167" id="Fill-51" fill="#232E83"></path>
                <path d="M14.7774322,24.4636431 C15.4633269,22.9333272 17.2879586,22.248064 18.4645902,22.248064 C18.698906,22.248064 18.8763797,22.2670114 19.0134323,22.2878535 C18.4052218,22.8354325 18.2675376,23.7966957 18.2290113,24.4440641 C18.2088007,24.7573273 18.0906955,24.7775378 17.8765902,24.7775378 C17.8765902,25.4236431 18.3850113,26.3855379 18.3850113,26.8762748 C18.3850113,27.0531169 18.2877481,27.2097484 18.1892218,27.2489063 C18.1892218,28.1110116 19.0519587,28.7394327 19.0519587,29.2882748 C19.0519587,29.4253275 19.0134323,29.5434328 18.9546955,29.6028012 C19.0134323,29.9552222 19.9557482,30.5634328 20.0732219,30.8185907 C20.2690113,31.2310118 20.4073271,31.2689065 20.5039587,31.2689065 C20.8368008,31.2689065 21.3673272,30.876696 21.3673272,30.5242749 C21.3673272,30.4061696 21.2688008,30.269117 21.1911166,30.2103801 C20.8178535,29.9362749 20.6214324,29.3470117 20.4654324,28.9548012 C20.3283798,28.9548012 20.1515376,28.8764854 20.0934324,28.6800643 C20.014485,28.4249064 19.9746955,27.5034327 19.8180639,27.0531169 C19.562906,26.9937484 19.4460639,26.8958537 19.4460639,26.3659589 C19.4460639,26.1101695 19.6020639,25.1097484 19.6020639,24.7573273 C19.4839587,24.7573273 19.3273271,24.6790115 19.3273271,24.4440641 C19.3273271,23.8175378 19.9557482,23.3261693 20.1319587,22.5221693 C21.2498535,23.3457483 21.5245903,24.1882746 21.5245903,24.9341694 C21.5245903,25.3257484 21.4652219,25.69838 21.3869061,26.0520642 C22.2117483,25.6402747 23.4471167,25.0320642 23.4471167,23.7966957 C23.4471167,23.0710114 23.1130114,22.2670114 20.8961693,21.9531167 C21.5833272,21.6979588 22.4473272,21.5609061 23.1723799,21.5609061 C24.4273273,21.5609061 25.1536431,21.9531167 25.3109063,22.8354325 C25.564801,22.4444851 25.7612221,21.9929061 25.7612221,21.5811166 C25.7612221,20.6185903 24.9578536,19.9926955 23.937222,19.9926955 C22.7410114,19.9926955 21.6812219,20.6185903 20.542485,21.3846956 C21.054064,20.3261692 21.4064851,19.6983797 22.0349061,19.6983797 C22.1328009,19.6983797 22.2306956,19.7166955 22.3285904,19.736906 C22.0930114,18.872906 21.2106956,18.0291165 20.7395377,18.0291165 C19.8963797,18.0291165 19.8572218,19.0510113 19.8572218,21.1093272 C19.2294323,19.756485 18.1892218,18.3044849 16.9740638,18.3044849 C16.1492217,18.3044849 15.8359585,18.8533271 15.8359585,19.8152218 C15.8359585,20.0116429 15.8555375,20.3065903 15.8940638,20.4815377 C15.9925901,20.1493271 16.3064849,20.0116429 16.699327,20.0116429 C17.5431165,20.0116429 18.5624849,20.6583798 19.2294323,21.5413272 C18.4645902,21.4042745 17.719327,21.2665903 17.0915375,21.2665903 C16.699327,21.2665903 16.3456428,21.3057482 16.0519585,21.4434324 C15.4835375,21.6979588 14.7174322,22.5417483 14.7174322,23.8175378 C14.7174322,24.0133273 14.7376427,24.2280641 14.7774322,24.4636431" id="Fill-53" fill="#232E83"></path>
                <path d="M24.9185063,28.7982959 C24.9185063,27.9545064 26.3300853,27.32798 26.3300853,25.9732431 C26.3300853,25.1900852 25.5646115,24.2281904 24.5256641,23.6591378 C24.7025062,23.9938746 24.800401,24.4435589 24.800401,24.6987168 C24.800401,26.24798 21.8187167,26.915559 21.8187167,28.1698748 C21.8187167,29.7204012 24.7025062,30.386717 24.7025062,31.1130328 C24.7025062,31.3479802 24.564822,31.5052434 24.2502957,31.5052434 C23.8985062,31.5052434 23.3484009,31.190717 22.8001904,30.7201907 C22.1724009,31.3284012 21.7599798,32.1721908 21.7599798,33.1328224 C21.7599798,35.0749277 23.7999799,36.7037699 25.7806116,36.7037699 C26.1140852,36.7037699 26.4292432,36.645033 26.7816642,36.5660857 C25.7010326,36.4277699 24.996822,35.6041909 24.996822,34.6044014 C24.996822,33.3096645 26.4292432,32.1526118 26.4292432,31.1521907 C26.4292432,29.9364012 24.9185063,29.779138 24.9185063,28.7982959" id="Fill-55" fill="#232E83"></path>
                <path d="M29.8014959,41.9412017 C29.762338,41.5875174 29.5665485,41.2540437 29.1932854,41.2540437 C28.8996011,41.2540437 28.6836011,41.4700438 28.6836011,41.804149 C28.6836011,42.1174122 28.8996011,42.3725701 28.8996011,42.7066754 C28.8996011,42.8822543 28.8408643,43.079307 28.6836011,43.2744649 C28.4688643,42.8822543 27.8600222,42.6864649 27.5865485,42.6864649 C25.5648642,42.6864649 26.3303379,45.6087808 24.1722325,45.6087808 C23.2697062,45.6087808 23.1907588,45.4913071 22.8591799,45.4913071 C22.7208641,45.4913071 22.6431798,45.5500439 22.6431798,45.666886 C22.6431798,46.1772018 23.3682325,47.434044 25.3880221,47.434044 C27.4103379,47.434044 29.3505485,46.1974124 29.3505485,44.6658334 C29.3505485,44.4119386 29.2911801,44.1372018 29.1737064,43.8618333 C29.2526538,43.7437281 29.4484433,43.6654123 29.6246538,43.6654123 C29.9385486,43.6654123 30.1160222,44.0197281 30.4097065,44.0197281 C30.7229696,44.0197281 30.9585486,43.7835175 30.9585486,43.4715175 C30.9585486,43.2163596 30.8208644,43.0401491 30.5846538,42.9214122 C30.7431802,42.8045701 30.8606539,42.6081491 30.8606539,42.3927806 C30.8606539,42.0586754 30.6244433,41.7447806 30.2334959,41.7447806 C30.0553907,41.7447806 29.9385486,41.804149 29.8014959,41.9412017" id="Fill-57" fill="#232E83"></path>
                <path d="M12.5795373,32.1128855 C12.12859,32.1128855 12.0111163,31.701096 11.8538531,31.701096 C11.7363794,31.701096 11.677011,32.0547802 11.677011,32.1520434 C11.677011,32.8783592 12.2069057,33.2895171 12.7368005,33.2895171 C13.5603795,33.2895171 14.2469058,32.6813066 14.2469058,31.3284644 L14.2469058,29.3282538 C14.2469058,28.5627801 14.3050111,27.6994116 14.8159585,27.0918327 C14.7572216,27.3469906 14.7572216,27.6217274 14.7572216,27.8756222 C14.7572216,29.5632012 15.6982743,30.7202539 15.6982743,32.349096 C15.6982743,32.9560434 15.5226954,33.2895171 15.052169,33.2895171 C14.5999585,33.2895171 14.6391164,32.8783592 14.5412216,32.8783592 C14.4629058,32.8783592 14.3448006,33.1328855 14.3448006,33.4069908 C14.3448006,33.8200434 14.6391164,34.4674119 15.4633269,34.4674119 C16.1694322,34.4674119 16.7378533,33.8200434 16.7378533,33.0937276 C16.7378533,31.3284644 15.3660638,29.3674117 15.3660638,27.4840432 C15.3660638,26.6592011 15.580169,26.1103589 15.7570112,25.6783589 C15.7570112,29.5827801 19.0721692,32.4274118 19.0721692,34.0556224 C19.0721692,34.428254 18.7980639,34.7232014 18.3850113,34.7232014 C17.935327,34.7232014 17.719327,34.3688856 17.719327,34.0947803 C17.719327,33.9570961 17.6991165,33.9179382 17.6410112,33.9179382 C17.522906,33.9179382 17.1698533,34.3101487 17.1698533,34.8204645 C17.1698533,35.4672014 17.6991165,36.2522541 18.6799586,36.2522541 C19.7978534,36.2522541 20.4073271,35.3099382 20.4073271,34.4674119 C20.4073271,32.4078329 16.3854322,29.2878327 16.3854322,25.9537273 C16.3854322,25.3846747 16.4826954,24.4638326 16.8951165,23.7570957 C14.3050111,25.423201 13.5010111,27.6413064 13.5010111,29.5827801 C13.5010111,31.269096 13.4422742,32.1128855 12.5795373,32.1128855" id="Fill-59" fill="#232E83"></path>
                <path d="M16.9148849,48.3557072 C19.7790955,48.3557072 20.4845692,46.3738124 20.4845692,45.039286 C20.4845692,42.0790754 18.6599376,39.9986542 16.2870954,39.9986542 C14.9929901,39.9986542 13.8353058,40.9403385 13.8353058,42.3329701 C13.8353058,43.6289702 14.816148,45.5691808 17.1504638,45.5691808 C18.2481481,45.5691808 18.8961481,44.7847597 18.8961481,43.8816017 C18.8961481,43.0005491 18.0908849,41.784128 16.9148849,41.784128 C16.5612007,41.784128 16.3066743,42.0190754 16.3066743,42.3929701 C16.3066743,42.8628649 16.9540428,43.3346544 17.7586744,43.3346544 C17.9550955,43.3346544 18.1104639,43.2948649 18.1894112,43.255707 C18.2292007,43.3150754 18.2481481,43.4129701 18.2481481,43.4912859 C18.2481481,43.9409702 17.8174112,44.2150754 17.1504638,44.2150754 C16.1494112,44.2150754 15.1887796,43.471707 15.1887796,42.2931806 C15.1887796,41.5877069 15.7963585,41.0773911 16.6799375,41.0773911 C18.4249902,41.0773911 19.4652008,42.6279175 19.4652008,44.175286 C19.4652008,45.5691808 18.6990955,46.3738124 17.1308849,46.3738124 C13.9919374,46.3738124 12.4622531,43.5500228 13.1475163,40.684549 C12.501411,40.8424437 11.461832,41.8624438 11.461832,43.471707 C11.461832,45.3929702 13.5207795,48.3557072 16.9148849,48.3557072" id="Fill-61" fill="#232E83"></path>
                <path d="M22.6428641,42.018949 C23.1329693,42.018949 24.0152852,42.6277912 24.0152852,43.138107 C24.0152852,43.274528 23.9173904,43.4526333 23.6230746,43.4526333 C23.0350746,43.4526333 22.1527588,42.8235806 22.1527588,42.4711596 C22.1527588,42.1762122 22.4274956,42.018949 22.6428641,42.018949 M18.1700218,37.2530541 C17.484127,37.2530541 16.7192849,37.6256857 16.7192849,38.1751594 C16.7192849,38.5086331 16.8954954,38.7429489 18.1504428,39.0562121 C19.7205482,39.4484226 20.5043377,40.2928437 20.6609692,41.2932648 C20.8176008,42.254528 21.0140219,43.0402122 21.3872851,43.4317912 C21.8780219,43.9793702 22.8392851,44.470107 23.682443,44.470107 C24.3885483,44.470107 24.9582326,44.2357912 24.9582326,43.5890544 C24.9582326,42.8823175 23.9963378,41.2932648 22.5841272,41.2932648 C22.4470746,41.2932648 22.2696009,41.3128437 22.074443,41.3128437 C21.8976009,41.3128437 21.6418114,41.2736859 21.4851798,41.1366332 C21.1700219,40.8618964 21.0733903,39.3903174 20.4847587,38.5086331 C19.8380218,37.527791 19.1319165,37.2530541 18.1700218,37.2530541" id="Fill-63" fill="#232E83"></path>
                <path d="M24.0938536,3.06334749 C24.0938536,3.41703171 25.3298536,4.18187385 25.8982747,4.18187385 C26.23238,4.18187385 26.3302747,3.73029489 26.3302747,3.25913697 C26.3302747,2.67176853 26.0751168,2.65218958 25.564801,2.65218958 C24.9186957,2.65218958 24.0938536,2.82840011 24.0938536,3.06334749" id="Fill-65" fill="#232E83"></path>
                <path d="M28.8806538,37.5473068 C29.0568643,37.5473068 29.2128643,37.6647804 29.2128643,37.9395173 C29.2128643,38.9588858 28.0949695,40.1557279 27.3901274,40.1557279 C27.1153906,40.1557279 27.0762327,40.0180437 27.0762327,39.7824647 C27.0762327,39.6062542 27.1349695,39.2721489 27.1349695,39.016991 C27.1349695,38.3317278 27.3901274,38.3513068 28.0760222,38.0778331 C28.5471801,37.8612015 28.7233906,37.5473068 28.8806538,37.5473068 M27.9977064,36.6643594 C27.9977064,37.1942541 27.0762327,37.7039383 25.8193905,37.7039383 C24.4273904,37.7039383 23.4661272,37.468991 22.5838114,36.5860436 C22.3482325,36.349833 22.2497061,36.1148856 21.9560219,36.1148856 C21.6225482,36.1148856 21.484864,36.7035172 21.484864,37.233412 C21.484864,39.1546752 23.3088641,41.4308859 25.8598116,41.4308859 C29.0372854,41.4308859 30.2732854,39.2323595 30.2732854,37.468991 C30.2732854,36.4281488 30.0364433,35.4473067 28.2913906,34.8005698 C27.4103379,34.4670961 26.9972853,33.9372013 26.8210747,32.9165697 C26.3890747,33.5254119 26.1737063,34.0944645 26.1737063,34.4285698 C26.1737063,35.761833 27.9977064,35.7814119 27.9977064,36.6643594" id="Fill-67" fill="#232E83"></path>
                <path d="M8.77376877,34.8205277 C9.24555826,35.8013698 9.75461091,35.918212 11.0101899,35.9965277 C10.2459794,35.3302119 10.147453,34.7813698 10.147453,34.2521066 C10.147453,33.2118961 11.187032,31.3481065 11.8539794,30.0540012 C12.7173479,28.3860011 13.6975584,25.8950537 13.6975584,24.8358957 C13.6975584,24.3849483 13.5207163,24.1689483 13.3249268,24.1689483 C13.1095584,24.1689483 12.8739795,24.4638957 12.6977689,25.0127378 C12.3838742,26.0706326 11.403032,28.1895801 10.9116636,28.1895801 C10.8144004,28.1895801 10.7752425,28.0916853 10.7752425,27.9742116 C10.7752425,27.2093695 11.9714531,24.502422 11.9714531,23.5620009 C11.9714531,23.306843 11.8539794,23.0510535 11.5988215,23.0510535 C10.7941899,23.0510535 9.9712425,27.5434748 9.49945301,27.5434748 C9.32324248,27.5434748 9.22534774,27.4253695 9.22534774,27.0527379 C9.22534774,26.3068432 9.6769267,24.954001 9.6769267,24.0318957 C9.6769267,23.7186325 9.59861091,23.4634746 9.34282142,23.4634746 C8.26282138,23.4634746 8.40113718,27.5434748 7.73545294,27.5434748 C7.55797925,27.5434748 7.34197924,27.465159 7.34197924,26.5424221 C7.34197924,25.6784221 7.42092661,25.1693694 7.42092661,24.9148431 C7.42092661,24.7569484 7.36155819,24.6401062 7.18534765,24.6401062 C6.57650552,24.6401062 6.08703182,26.8165274 6.08703182,28.9746327 C6.08703182,31.4074749 6.55818973,32.9163171 7.16640028,32.9163171 C7.77397926,32.9163171 8.63671613,31.4466328 8.63671613,30.8965275 C8.63671613,30.6609486 8.49903192,30.504317 8.34176875,30.2491591 C7.87250558,29.4855801 8.32282138,28.6215801 8.69545298,28.6215801 C9.20576879,28.6215801 9.22534774,29.0731591 9.87271618,29.6226328 C10.1278741,29.8380012 10.2264004,30.0735801 10.2264004,30.3476854 C10.2264004,31.7403171 7.28387397,33.7020013 7.28387397,37.0569488 C7.28387397,40.9398964 10.2264004,41.6270543 10.5984004,42.2933701 C12.6390321,38.5872647 6.67503184,38.9971594 8.77376877,34.8205277" id="Fill-69" fill="#232E83"></path>
                <path d="M6.94995817,23.5810115 C7.57774767,23.5810115 8.4209056,23.1300641 9.42195827,22.2673272 C8.65648455,22.4441693 8.06848453,22.561643 7.53858977,22.561643 C6.83248448,22.561643 6.2823792,22.2875377 5.69501075,21.3843798 C5.69501075,22.8749062 6.14469498,23.5810115 6.94995817,23.5810115" id="Fill-71" fill="#232E83"></path>
                <path d="M50.2599809,40.4492227 C50.0439809,40.4492227 49.8279809,40.3709069 49.6909283,40.2925911 C49.436402,40.1744858 48.9835598,39.8024858 48.9835598,39.2132226 C48.9835598,38.6858542 49.2785072,38.4692226 49.5538757,38.4692226 C50.3982967,38.4692226 51.279981,39.2132226 51.279981,39.8214332 C51.279981,40.2925911 50.828402,40.4492227 50.2599809,40.4492227 M52.3012442,41.1565911 C52.3012442,38.7250121 50.5353494,37.6456436 48.9450335,37.6456436 C46.0625071,37.6456436 46.8084019,40.1744858 43.4351386,40.9399595 C42.8067175,41.0770122 42.6298754,41.2740648 42.6298754,41.5488017 C42.6298754,42.0584859 42.9248228,42.7254333 43.2778754,42.7254333 C44.7475597,42.7254333 47.0244019,39.6843805 47.4361914,39.6843805 C47.5928229,39.6843805 47.789244,39.7033279 47.789244,40.115749 C47.789244,41.2146964 44.6111386,42.6666964 44.6111386,43.4523807 C44.6111386,43.9210123 45.7284018,44.9214334 46.8279808,44.9214334 C48.4176651,44.9214334 49.8475599,41.6662753 50.1816652,41.6662753 C50.4374546,41.6662753 50.5353494,41.8620648 50.5353494,42.0584859 C50.5353494,42.9414333 49.4559809,44.6662755 47.5738756,45.4121702 C47.1810335,45.5688018 47.121665,45.7456439 47.121665,45.8833281 C47.121665,46.3146966 47.6130335,46.9626966 48.0633493,46.9626966 C48.6140861,46.9626966 52.3012442,43.7441702 52.3012442,41.1565911" id="Fill-73" fill="#232E83"></path>
                <path d="M7.34223187,14.4015164 C8.04960032,14.4015164 8.61738982,13.9695163 8.61738982,13.9695163 C7.48054767,13.6354111 6.85212659,12.7928847 6.85212659,11.6749899 C6.85212659,11.5568847 6.85212659,11.4583584 6.87170554,11.3408847 C6.14475814,11.655411 5.83149497,12.2832005 5.83149497,12.8907795 C5.83149497,13.7730953 6.49907394,14.4015164 7.34223187,14.4015164" id="Fill-75" fill="#232E83"></path>
                <path d="M5.85113707,4.49608439 C5.85113707,5.08408441 9.69618986,4.53461071 9.69618986,5.14345284 C9.69618986,5.80913707 6.34124236,8.69292666 6.34124236,9.65418986 C6.34124236,9.87082144 6.4991371,9.96808461 6.71387395,9.96808461 C7.73513715,9.96808461 10.3827162,8.02724242 11.1077689,8.02724242 C11.3629268,8.02724242 11.3831373,8.33987402 11.3831373,8.61461087 C11.3831373,9.1242951 11.2062952,9.90871618 11.2062952,10.479032 C11.2062952,10.9293478 11.3237689,11.2432426 11.7172426,11.2432426 C12.4429268,11.2432426 13.1092426,10.0078741 13.5993479,10.0078741 C14.227769,10.0078741 13.8538742,13.6356637 14.7968216,13.6356637 C15.6001901,13.6356637 15.9330322,9.7129267 16.4439796,9.7129267 C16.9542954,9.7129267 17.3660849,10.8504004 17.8372428,10.8504004 C18.4246113,10.8504004 18.150506,8.86913719 18.7782955,8.86913719 C19.4648218,8.86913719 21.4258745,11.223032 22.3088219,11.223032 C22.5841904,11.223032 22.6820851,11.007032 22.6820851,10.7322952 C22.6820851,9.69334775 21.2307166,7.33945292 21.2307166,6.59418974 C21.2307166,6.39776868 21.2888219,6.33903183 21.5048219,6.33903183 C22.269664,6.33903183 24.5060852,7.39882135 25.5646115,7.39882135 C25.9176642,7.39882135 26.1342958,7.20240029 26.1342958,6.94724238 C26.1342958,5.76997918 22.9176641,3.59229488 22.9176641,2.71061063 C22.9176641,2.67145274 22.9176641,2.65187379 22.9366114,2.61271589 C23.1721904,1.96471587 25.8393484,1.5131369 25.8393484,0.983242144 C25.8393484,0.728084239 25.3694536,0.728084239 25.1338747,0.728084239 C23.309243,0.728084239 20.6414535,1.39566321 20.6414535,2.04366324 C20.6414535,2.71061063 23.0351378,4.33882123 23.0351378,5.14345284 C23.0351378,5.35818969 22.8980851,5.43713706 22.6820851,5.43713706 C22.0151377,5.43713706 20.5625061,4.63313703 19.8772429,4.63313703 C19.5627166,4.63313703 19.4458745,4.84787388 19.4458745,5.16240021 C19.4458745,6.10345287 20.5625061,7.88955821 20.5625061,8.41818981 C20.5625061,8.47692665 20.5429271,8.55587402 20.4658745,8.55587402 C20.1121903,8.55587402 18.4448218,6.59418974 17.8568218,6.59418974 C17.6408218,6.59418974 17.6212428,6.88787396 17.6212428,7.31987398 L17.6212428,7.98682137 C17.6212428,8.43713718 17.6016639,8.71250561 17.3856638,8.71250561 C16.875348,8.71250561 16.6404007,7.2800845 16.1496638,7.2800845 C15.639348,7.2800845 15.5420848,9.83103197 15.0519795,9.83103197 C14.4829269,9.83103197 14.9730322,7.02555817 14.4229269,7.02555817 C13.8153479,7.02555817 13.12819,8.88934772 12.6980847,8.88934772 C12.5408216,8.88934772 12.5010321,8.73208456 12.5010321,8.59440034 C12.5010321,8.02724242 12.8351374,7.10513712 12.8351374,6.55503184 C12.8351374,6.27966341 12.7568216,6.12303182 12.520611,6.12303182 C11.9124005,6.12303182 10.5797688,7.10513712 10.0688215,7.10513712 C9.99050566,7.10513712 9.89197934,7.06534765 9.89197934,6.98640028 C9.89197934,6.51524236 12.0311373,5.02534757 12.0311373,4.35776859 C12.0311373,3.71040015 9.08797931,4.14176859 9.08797931,3.39713698 C9.08797931,2.76997906 11.1867162,2.12134745 11.1867162,1.47397901 C11.1867162,0.904926352 8.69513719,0.651031605 7.73513715,0.651031605 C6.57682131,0.651031605 5.94966339,0.788084242 5.94966339,1.12092636 C5.94966339,1.63187375 8.5776635,1.78850533 8.5776635,2.2400843 C8.5776635,2.67145274 5.85113707,3.82787384 5.85113707,4.49608439" id="Fill-77" fill="#232E83"></path>
                <path d="M7.63673715,5.5945897 C7.18578976,5.5945897 6.59652658,5.71143181 6.34136867,5.94701076 C6.12600024,6.1232213 5.94978971,6.672695 5.94978971,7.06553712 C5.94978971,7.28027397 6.00789498,7.51648451 6.20431604,7.51648451 C6.73357921,7.51648451 8.22473717,6.20090551 8.22473717,5.80932655 C8.22473717,5.65206338 7.911474,5.5945897 7.63673715,5.5945897" id="Fill-79" fill="#232E83"></path>
                <path d="M11.7364426,3.37667382 C12.167811,3.37667382 12.8549689,3.18025276 13.3438111,3.18025276 C13.6191795,3.18025276 13.8737058,3.23962118 13.8737058,3.49477909 C13.8737058,3.98551595 12.8151795,4.86783177 12.8151795,5.26067389 C12.8151795,5.37877916 12.9143374,5.41730548 13.0116005,5.41730548 C13.4031795,5.41730548 14.0707585,4.41625281 14.6979164,4.41625281 C15.7374954,4.41625281 15.0522322,6.63372658 15.6193901,6.63372658 C16.2080217,6.63372658 15.9528638,4.45667386 16.7966533,4.45667386 C17.4838112,4.45667386 17.9947586,5.96677918 18.4646534,5.96677918 C18.5814955,5.96677918 18.6800218,5.86825286 18.6800218,5.73120023 C18.6800218,5.32004232 18.0907586,4.47562123 18.0907586,3.92614752 C18.0907586,3.59267383 18.3263376,3.43604224 18.6408639,3.43604224 C19.0918113,3.43604224 19.7006534,3.71014752 20.0341271,3.71014752 C20.1516008,3.71014752 20.2690745,3.6716212 20.2690745,3.53393698 C20.2690745,3.06341065 18.5233902,2.55372642 18.5233902,1.94488429 C18.5233902,1.33730532 19.4840218,1.33730532 19.4840218,1.06193688 C19.4840218,0.944463195 18.8960218,0.826357928 18.0907586,0.826357928 C16.8162322,0.826357928 16.9937059,1.88677902 16.0128638,1.88677902 C14.9928638,1.88677902 15.2473901,0.78783161 13.9526532,0.78783161 C13.1676005,0.78783161 12.4425479,0.924884247 12.4425479,1.10109478 C12.4425479,1.33730532 13.3640216,1.238779 13.3640216,1.88677902 C13.3640216,2.57330537 11.3827583,2.76972643 11.3827583,3.18025276 C11.3827583,3.31793697 11.5400215,3.37667382 11.7364426,3.37667382" id="Fill-81" fill="#232E83"></path>
                <path d="M9.7945267,21.0109272 C9.7945267,21.717664 10.3440004,22.169243 11.0298952,22.169243 C11.3829478,22.169243 11.6381057,22.0902956 11.7947373,21.9728219 C11.2452636,21.4435587 11.0494741,20.8542956 11.0494741,20.2669271 C11.0494741,19.8551376 11.108211,19.5999797 11.1871583,19.3644008 C10.7355794,19.4818745 9.7945267,20.0313482 9.7945267,21.0109272" id="Fill-83" fill="#232E83"></path>
                <path d="M13.2857689,36.448233 C13.6975584,36.3894962 14.0708216,36.7033909 14.1093479,37.1151804 C14.1491374,37.5276015 13.85419,37.8812857 13.4424005,37.939391 C13.0312426,37.9602331 12.658611,37.6646541 12.6188216,37.2528646 C12.5992426,36.8606541 12.8739795,36.4873909 13.2857689,36.448233 M10.4424004,37.8610752 C10.5207162,38.5286542 11.1472425,39.0370752 11.8539794,38.959391 C12.1085057,38.9379173 12.3447163,38.8602331 12.5013479,38.7617068 C12.658611,39.3901279 13.1474532,39.7823384 13.873769,39.7033911 C14.6000848,39.6452858 15.1104006,39.0370752 15.0314532,38.3126542 C15.0314532,38.1162331 14.9727164,37.9987594 14.9146111,37.8610752 L15.0516638,37.8414962 C15.7375585,37.7631804 16.2674533,37.1353909 16.2080849,36.448233 C16.1297691,35.7421277 15.4830322,35.2318119 14.8160848,35.2905488 C14.5609269,35.3499172 14.3449269,35.4276014 14.1882953,35.5652856 C14.0114532,34.9772856 13.5011374,34.5061277 12.7760847,34.5850751 C12.0889268,34.624233 11.559032,35.2905488 11.6379794,36.0156014 C11.6379794,36.1153909 11.6771373,36.2726541 11.7365057,36.4090751 L11.5988215,36.4280225 C10.9116636,36.5265488 10.383032,37.0956015 10.4424004,37.8610752" id="Fill-85" fill="#232E83"></path>
                <path d="M34.8035382,47.4730756 C35.2342751,47.4730756 35.5873277,47.8254966 35.5873277,48.2587598 C35.5873277,48.6882335 35.2342751,49.0406546 34.8035382,49.0406546 C34.3715382,49.0406546 34.0191171,48.6882335 34.0191171,48.2587598 C34.0191171,47.8254966 34.3715382,47.4730756 34.8035382,47.4730756 M26.7224853,48.2183388 C26.5854326,49.3741283 25.6829063,49.6684441 24.976801,49.6684441 C24.4671168,49.6684441 23.6624852,49.4922335 23.6226957,49.2964441 C23.3290115,47.6297072 22.074064,46.6880229 21.5245903,46.4726545 C21.5441693,46.6482334 21.5637482,46.8446545 21.5637482,47.0221282 C21.5637482,48.4337072 20.602485,49.3153914 18.7980639,49.3153914 C18.5031165,49.3153914 18.1304849,49.2964441 17.8570112,49.2370756 C19.9159587,51.5328652 21.3869061,50.6897073 22.3481693,51.1204441 C23.6031167,51.6907599 24.6237483,53.4364442 28.6456432,53.4364442 C30.1159591,53.4364442 31.6058539,52.8673916 32.5873276,52.2396021 C32.7629066,52.8282337 33.3704855,53.3574969 34.3715382,53.3574969 C36.0780646,53.3574969 37.0393278,52.8282337 37.0393278,52.3962337 C37.0393278,52.27876 37.0203804,52.1019179 36.7260646,52.1019179 C36.4311172,52.1019179 36.4898541,52.1802337 35.5481698,52.1802337 L35.5285909,52.1802337 C34.4309066,52.1802337 32.6852224,51.7494968 31.8805907,49.8648651 C31.7429065,49.5509704 31.5085907,49.5509704 31.4290118,49.5509704 C30.8795381,49.5509704 30.0363801,51.4937073 26.5854326,51.4937073 C25.1334326,51.4937073 24.4671168,50.9638126 24.4671168,50.8267599 C24.4671168,50.807181 24.4671168,50.787602 24.544801,50.787602 C24.6831168,50.787602 25.2123799,50.8457073 25.8793273,50.8457073 C28.0563801,50.8457073 29.8210117,49.8452862 30.8795381,48.6882335 C31.2528012,48.2777072 31.4290118,48.2183388 31.7429065,48.2183388 C32.018275,48.2183388 32.3132223,48.4532861 32.4496434,48.8252862 C32.9397487,50.0808651 34.0576435,51.0812862 35.273433,51.0812862 C36.9218541,51.0812862 36.9420646,48.2587598 37.3342752,48.120444 C37.3936436,48.140023 37.4915383,48.1589703 37.5698541,48.1589703 C37.7643804,48.1589703 38.0795384,48.0225493 38.0795384,47.6492861 C38.0795384,47.256444 37.5894331,47.1389703 37.4915383,46.9425492 C37.2944857,46.5699176 37.4511173,45.9225492 36.8637488,45.9225492 C36.4709067,45.9225492 36.4311172,46.2364439 36.3925909,46.4916018 C35.5481698,46.2364439 34.8426961,46.1183387 34.214275,46.1183387 C33.7639592,46.1183387 33.3704855,46.1770755 33.0376434,46.2951808 C32.8014329,45.9029702 31.8414328,45.1381281 30.9976433,44.8627597 C30.6635381,46.6286545 29.0770117,48.0225493 26.7224853,48.2183388" id="Fill-87" fill="#232E83"></path>
                <g id="Group-91" transform="translate(35.368422, 0.541263)">
                    <mask id="mask-2" fill="white">
                        <use xlink:href="#path-1"></use>
                    </mask>
                    <g id="Clip-90"></g>
                    <path d="M2.22113693,3.64029488 C2.22113693,3.60113699 2.26029483,3.58092646 2.31840009,3.58092646 C2.53313694,3.58092646 2.90640012,3.65924225 3.2013475,3.65924225 C3.45524224,3.65924225 3.4956633,2.56218958 3.69208436,2.56218958 C3.82913699,2.56218958 4.06471595,3.60113699 4.28134754,3.60113699 C4.53524229,3.60113699 5.00450546,3.30682118 5.20218968,3.30682118 C5.24134758,3.30682118 5.27987389,3.32576855 5.27987389,3.36492645 C5.27987389,3.50324224 4.78913703,4.03250542 4.78913703,4.18913701 C4.78913703,4.36597912 5.8893476,4.58134755 5.8893476,4.73924229 C5.8893476,4.93566335 4.76955808,4.91608441 4.76955808,5.09103178 C4.76955808,5.228716 5.18197915,5.7781897 5.18197915,5.95440024 C5.18197915,5.99418971 5.16240021,6.01376866 5.12324231,6.01376866 C4.96661072,6.01376866 4.35903175,5.73840023 4.18218964,5.73840023 C3.96682121,5.73840023 3.61313699,6.544295 3.43692645,6.544295 C3.37755803,6.544295 3.33903171,6.46471605 3.33903171,6.36618973 L3.29861066,5.58176864 C3.29861066,5.50282127 3.26071592,5.42513706 3.16155802,5.42513706 C2.92597906,5.42513706 2.47503168,5.40555811 2.33797904,5.40555811 C2.24071588,5.40555811 2.20155798,5.38597916 2.20155798,5.34618969 C2.20155798,5.1895581 2.98534749,4.64071597 2.98534749,4.50366334 C2.98534749,4.28766333 2.22113693,3.87524226 2.22113693,3.64029488 M6.75271606,1.12850531 C8.69292666,1.12850531 9.85061092,2.46366326 9.85061092,4.7000844 C9.85061092,7.5232424 7.86997926,8.23061085 6.81082132,8.23061085 C5.43713706,8.23061085 4.53524229,7.54345293 4.53524229,7.19040029 C4.53524229,7.01418975 4.65397913,6.89671606 4.80934756,6.89671606 C5.24134758,6.89671606 6.18240025,7.5624003 6.49755815,7.5624003 C6.57524237,7.5624003 6.63397921,7.5232424 6.63397921,7.40640029 C6.63397921,7.05334765 6.29987393,6.46471605 6.29987393,6.17040025 C6.29987393,6.09271603 6.35924236,6.03334761 6.47734763,6.03334761 C7.0066108,6.03334761 7.79166347,6.24934762 8.20408454,6.24934762 C8.34113717,6.24934762 8.38092665,6.17040025 8.38092665,6.09271603 C8.38092665,5.65945286 7.10513712,4.81692651 7.10513712,4.5617686 C7.10513712,4.32682122 8.69292666,3.97376858 8.69292666,3.60113699 C8.69292666,3.20829486 6.53608447,3.48303172 6.53608447,3.10976854 C6.53608447,2.83566327 6.94724238,2.36450536 6.94724238,2.15040009 C6.94724238,2.05124219 6.86955817,2.01271587 6.73250553,2.01271587 C6.55503184,2.01271587 5.61334759,2.38534746 5.22113705,2.38534746 C5.02471599,2.38534746 4.78913703,2.34618957 4.78913703,2.07145271 C4.78913703,1.62050533 5.55461075,1.12850531 6.75271606,1.12850531 M0.198821061,6.20955814 C0.198821061,6.544295 1.53397901,6.30808446 1.53397901,6.72050553 C1.53397901,7.13166344 0.552505285,8.50408455 0.552505285,8.89755825 C0.552505285,8.99608457 0.572715812,8.99608457 0.651663184,8.99608457 C1.0236632,8.99608457 2.14218956,7.71966346 2.41629483,7.71966346 C2.73018958,7.71966346 2.78892643,8.48576876 2.84766327,8.93671614 C2.88745275,9.17166352 2.92597906,9.19124247 3.02450538,9.19124247 C3.26071592,9.19124247 3.63271593,8.28871612 3.88787384,8.28871612 C4.26050543,8.28871612 5.26092652,9.32955827 6.92766343,9.32955827 C9.30050563,9.32955827 11.5381899,7.6615582 11.5381899,4.71966335 C11.5381899,1.87440007 9.53671617,0.207031587 6.77166343,0.207031587 C5.45671601,0.207031587 4.49608439,0.854400034 3.98576858,0.854400034 C3.67187383,0.873978982 3.2013475,0.0901894773 2.96513696,0.0901894773 C2.86661064,0.0901894773 2.76934748,0.28534738 2.76934748,0.619452656 C2.76934748,0.834821086 2.76934748,1.52197901 2.53313694,1.52197901 C2.06324219,1.52197901 0.239242115,0.167873691 0.239242115,0.657978974 C0.239242115,1.11018952 1.45503164,2.4832422 1.45503164,2.83566327 C1.45503164,3.18871592 0.258821063,3.52218961 0.258821063,3.75776857 C0.258821063,4.18913701 1.53397901,4.26808438 1.53397901,4.81692651 C1.53397901,5.36576863 0.198821061,5.79776865 0.198821061,6.20955814" id="Fill-89" fill="#232E83" mask="url(#mask-2)"></path>
                </g>
                <path d="M38.7459805,30.7399591 C38.9815594,30.7399591 39.0605068,30.8965907 39.0605068,30.995117 C39.0605068,31.3285907 38.4908226,31.8780644 38.4908226,32.4275381 C38.4908226,33.1134329 39.2954542,33.5252224 39.8247174,33.5252224 C40.4525069,33.5252224 40.6874542,33.2896434 40.6874542,32.8980645 C40.6874542,32.4079592 39.8247174,31.7599592 39.8247174,31.230696 C39.8247174,30.9363802 40.1000858,30.8965907 40.4720858,30.8965907 C41.2577701,30.8965907 41.5508227,31.0153275 41.5508227,31.1909065 C41.5508227,31.4264855 41.217349,31.8389065 41.217349,31.9765907 C41.217349,32.0549065 41.2577701,32.1919592 41.452928,32.1919592 C42.100928,32.1919592 44.3367176,31.7403802 44.3367176,31.2894328 C44.3367176,30.798696 42.2184017,29.1906959 41.7864017,29.1906959 C41.6885069,29.1906959 41.6291385,29.2683801 41.6291385,29.3473275 C41.6291385,29.4856433 41.6682964,29.7003801 41.6682964,29.8968012 C41.6682964,30.2492223 41.5312438,30.3079591 41.1200858,30.3079591 C40.6678753,30.3079591 39.9819805,30.1513275 39.9819805,29.4654327 C39.9819805,28.0917485 42.5714543,28.4252222 42.8266122,27.1702748 C41.7074543,27.1702748 41.1390332,26.404801 40.3931384,26.404801 C40.1000858,26.404801 39.6093489,26.5620642 39.6093489,27.2492221 C39.6093489,27.4645906 39.6876647,27.8555379 39.6876647,28.1700643 C39.6876647,28.4845906 39.6093489,28.719538 39.2752437,28.719538 C38.94177,28.719538 38.9026121,28.3469064 38.9026121,27.9149064 C38.9026121,27.5429064 38.9815594,27.1115379 38.9815594,26.8165905 C38.9815594,24.796801 36.7457699,25.6405905 36.5291383,23.9738536 C35.9992435,24.9540641 35.8040856,25.6595379 35.8040856,26.2285905 C35.8040856,28.3273274 38.6670331,28.1113274 38.6670331,29.6024854 C38.6670331,29.955538 38.3929278,30.1898538 38.1377699,30.1898538 C37.666612,30.1898538 37.314191,29.1711169 36.5885067,29.1711169 C36.1956646,29.1711169 35.9209277,29.4654327 35.9209277,30.0540644 C35.9209277,30.5043802 36.0200856,30.8378539 36.0200856,31.2502749 C36.0200856,32.0934329 35.6664014,32.5064855 35.2539803,32.8784855 C37.8238752,32.6618539 38.0196647,30.7399591 38.7459805,30.7399591" id="Fill-92" fill="#232E83"></path>
                <path d="M10.9512636,17.2658533 C10.2660004,17.2658533 9.71589512,16.2250112 9.71589512,15.6363796 C9.71589512,15.2650111 9.93189513,15.2258532 10.2268425,15.2258532 C10.3632636,15.2258532 10.4220004,15.2454322 10.5205267,15.304169 C10.6961057,15.4020638 10.6961057,15.7936427 10.9121057,16.0879585 C11.0295794,16.283748 11.4224215,16.499748 11.4224215,16.6380638 C11.4224215,16.9115375 11.2651583,17.2658533 10.9512636,17.2658533 M9.10768457,18.4810113 C8.46031613,18.4810113 7.75484241,17.6776428 7.75484241,16.9519586 C7.75484241,16.5591164 8.04978979,16.0683796 8.26326349,16.0683796 C8.34221086,16.0683796 8.38136875,16.1271164 8.4009477,16.2641691 C8.51842139,17.2266954 9.14684247,17.7755375 9.73547407,18.0490112 C9.79421092,18.0888007 9.83400039,18.1083797 9.83400039,18.1475376 C9.83400039,18.2845902 9.46073722,18.4810113 9.10768457,18.4810113 M11.7754742,15.5189059 C11.5007373,15.107748 11.6377899,14.9511164 11.4615794,14.7149058 C11.3434741,14.6176427 11.0889478,14.6176427 10.7352636,14.5778532 C10.6190531,14.5582743 10.4611583,14.5582743 10.3045267,14.5582743 C9.65715828,14.5582743 8.79315824,14.6751164 8.02957927,15.1860638 C6.30221078,16.3045901 6.57694763,18.0685902 6.30221078,18.5201692 C6.26305288,18.5782744 6.24347393,18.6578534 6.24347393,18.7368007 C6.24347393,18.9123797 6.43926341,19.1088008 6.61610553,19.1088008 C6.77400027,19.1088008 6.87189501,19.0702744 6.9502108,19.0702744 C7.42073714,19.0702744 7.95063189,19.4037481 8.71484245,19.4037481 C9.16642142,19.4037481 9.69631617,19.2654323 10.3632636,18.9325902 C11.7754742,18.2264849 12.3249479,16.4801691 12.3249479,16.1858533 C12.3249479,15.8132217 12.0306321,15.8719585 11.7754742,15.5189059" id="Fill-94" fill="#232E83"></path>
                <path d="M26.2513274,10.5948004 C26.2513274,10.439432 26.2121695,10.2828004 26.1338537,10.1640636 C25.780801,9.67458986 23.289222,7.71290557 22.7410114,7.71290557 C22.6822746,7.71290557 22.6431167,7.77101084 22.6431167,7.83037926 C22.6431167,8.51627402 25.0942747,11.8712215 25.564801,11.8712215 C25.9570116,11.8712215 26.2513274,11.1846952 26.2513274,10.5948004" id="Fill-96" fill="#232E83"></path>
                <path d="M36.7062962,45.0590544 C40.2368227,45.0590544 41.9237701,42.2156859 41.943349,40.056949 C41.2966122,40.6462121 39.5509279,40.8224227 38.64777,40.8224227 C35.9408225,40.8224227 35.2340856,39.4481068 34.8627172,39.4481068 C34.4888224,39.4481068 34.4888224,40.056949 34.4888224,40.272949 C34.4888224,40.4883174 34.4705066,40.5678963 34.3517698,40.5678963 C34.2147171,40.5678963 34.0580856,40.4883174 33.9399803,40.4883174 C33.8225066,40.4883174 33.7441908,40.5868437 33.7441908,40.7636858 C33.7441908,41.5878964 34.7844014,42.1961069 35.8429277,42.1961069 C37.1964015,42.1961069 37.8627173,41.6270543 38.2164015,41.6270543 C38.3736647,41.6270543 38.4519805,41.804528 38.4519805,41.9017911 C38.4519805,42.1177911 38.2164015,42.3723175 38.2164015,42.5106333 C38.2164015,42.8238964 38.8827173,42.5693701 38.8827173,42.9413701 C38.8827173,43.4131596 38.0793489,43.8224228 36.8237699,43.8224228 C34.3921908,43.8224228 32.782296,42.1380017 32.782296,40.5868437 C32.782296,37.6645278 35.9408225,38.6062121 35.9408225,37.4687383 C35.9408225,37.0758962 35.5669277,36.8996857 35.313033,36.8611594 C35.6667172,36.4481067 36.0974541,36.350212 36.5294541,36.350212 C36.8635594,36.350212 37.1774541,36.4089488 37.4515594,36.4089488 C37.824191,36.4089488 38.2164015,36.2725278 38.2164015,35.8392646 C38.2164015,35.5847383 37.9997699,35.2708435 37.0978752,35.1533698 C37.1964015,34.5457908 38.4715594,34.8603172 38.4715594,34.3493698 C38.4715594,33.9767382 37.7452436,33.6824224 36.8831383,33.6824224 C33.5281908,33.6824224 31.0770328,36.4089488 31.0770328,39.4095805 C31.0770328,42.1177911 33.0374539,45.0590544 36.7062962,45.0590544" id="Fill-98" fill="#232E83"></path>
                <path d="M37.6092647,39.8602121 C38.1574752,39.8602121 38.5301068,39.4288437 38.5301068,38.9191594 C38.5301068,38.1751594 37.7646331,37.4494752 36.6277909,37.4494752 C36.8235804,37.6452647 36.8835804,37.8416857 36.8835804,38.0374752 C36.8835804,38.331791 36.7458962,38.6456857 36.7458962,38.9785279 C36.7458962,39.4484226 37.0976857,39.8602121 37.6092647,39.8602121" id="Fill-100" fill="#232E83"></path>
                <path d="M6.38096867,19.6385692 C6.36138973,19.7364639 6.36138973,19.8356218 6.36138973,19.932885 C6.36138973,20.8543587 6.85212659,21.3646745 7.49949503,21.3646745 C7.98896874,21.3646745 8.55865297,21.0709903 9.0683372,20.4229903 C8.85296877,20.4621482 8.59717929,20.4817271 8.36223191,20.4817271 C7.63654767,20.4817271 6.85212659,20.2865692 6.38096867,19.6385692" id="Fill-102" fill="#232E83"></path>
                <path d="M13.5799584,21.9336009 C14.5412216,21.9336009 14.9928006,21.1093903 14.9928006,20.266864 C14.9928006,18.9519165 13.7953269,18.0291797 12.8157479,17.736127 C12.3837479,18.2451797 11.9321689,19.1085481 11.9321689,19.9927587 C11.9321689,21.0506535 12.5795373,21.9336009 13.5799584,21.9336009" id="Fill-104" fill="#232E83"></path>
                <path d="M19.838085,12.0479373 C19.9745061,12.0479373 20.0338745,12.165411 20.0338745,12.3226742 C20.0338745,12.9302531 19.2690323,16.5390954 18.6014534,16.5390954 C18.4246113,16.5390954 18.3854534,16.3818322 18.3854534,16.2447796 C18.3854534,15.4799375 19.2298744,12.0479373 19.838085,12.0479373 M20.8568219,13.4588847 C21.0924008,13.4588847 21.249664,13.8908848 21.249664,14.2837269 C21.249664,14.5780427 21.249664,14.8136216 21.2105061,15.0687795 C20.7001903,15.636569 20.4267166,15.872148 20.210085,15.872148 C20.0932429,15.872148 19.9745061,15.6757269 19.9745061,15.440148 C19.9745061,15.0296216 20.2694534,13.4588847 20.8568219,13.4588847 M22.740822,14.6569901 C22.8197693,14.6569901 22.8980851,14.7346743 22.8980851,15.0687795 C22.8980851,15.7546743 22.5841904,16.4418322 22.3675588,16.4418322 C22.1724009,16.4418322 22.0549272,16.1273059 22.0151377,15.420569 C22.3284009,14.8919374 22.5450325,14.6569901 22.740822,14.6569901 M24.2907168,14.028569 C24.4075589,14.028569 24.4473483,14.3026743 24.4473483,14.5584637 C24.4473483,15.7350954 23.8985062,17.6178323 23.4077694,17.6178323 C23.2890325,17.6178323 23.1911378,17.4416217 23.1911378,17.0304638 C23.1911378,15.9694112 23.8782957,14.028569 24.2907168,14.028569 M16.9151375,15.7350954 C15.9526112,15.7350954 16.3852428,14.1264637 15.8938743,14.1264637 C15.483348,14.1264637 15.3658743,14.9892006 15.3658743,15.3233059 C15.3658743,16.4418322 16.0902954,17.6178323 17.6995586,17.6178323 C19.4262955,17.6178323 20.3875587,16.8144638 21.4258745,15.7155164 C21.6222956,16.892148 22.269664,18.9125692 23.996401,18.9125692 C24.9374536,18.9125692 25.604401,18.1281481 25.6827168,17.2262533 C25.5646115,17.343727 25.3877694,17.4416217 25.1932431,17.4416217 C24.8389273,17.4416217 24.7618747,16.9313059 24.7618747,16.4803585 C24.7618747,15.7546743 24.9772431,14.9702532 25.3107168,14.9702532 C25.4862957,14.9702532 25.5848221,15.0877269 25.62398,15.6163585 C25.6631379,16.0287796 25.62398,16.4803585 25.8791379,16.4803585 C26.1342958,16.4803585 26.2909274,15.6757269 26.2909274,15.1268848 C26.2909274,13.8719374 25.7010326,12.753411 24.4075589,12.753411 C23.4077694,12.753411 22.4862956,13.5959374 21.8187167,14.6948848 C21.8578746,14.4807795 21.8774535,14.244569 21.8774535,14.028569 C21.8774535,12.4988847 21.0538745,11.1252004 19.5039797,11.1252004 C18.2477691,11.1252004 17.110927,11.8508847 16.6404007,13.2630953 C16.7774533,13.1260426 17.1892428,12.8715163 17.5227165,12.8715163 C17.9161902,12.8715163 18.0330323,13.2037268 18.0330323,13.7342532 C18.0330323,14.0873058 17.9553481,14.4997269 17.8176639,14.8919374 C17.5814533,15.5380427 17.1507165,15.7350954 16.9151375,15.7350954" id="Fill-106" fill="#232E83"></path>
                <path d="M12.9141479,15.7547375 C12.9141479,16.1861059 13.2659374,16.5391586 13.6973058,16.5391586 C14.1293058,16.5391586 14.48299,16.1861059 14.48299,15.7547375 C14.48299,15.3227375 14.1293058,14.9703164 13.6973058,14.9703164 C13.2659374,14.9703164 12.9141479,15.3227375 12.9141479,15.7547375" id="Fill-108" fill="#232E83"></path>
                <path d="M10.9512636,12.4007373 C10.9512636,11.4584215 10.5205267,10.0272636 9.18600037,10.0272636 C8.42115823,10.0272636 7.8723161,10.6342109 7.8723161,11.3611583 C7.8723161,12.9110531 9.42157932,13.5382111 10.7750531,13.5382111 C10.8723161,13.2236847 10.9512636,12.8327374 10.9512636,12.4007373" id="Fill-110" fill="#232E83"></path>
                <path d="M12.6785689,13.2037268 C12.2459373,13.2037268 11.8928847,13.5580426 11.8928847,13.9894111 C11.8928847,14.4214111 12.2459373,14.7738322 12.6785689,14.7738322 C13.1093058,14.7738322 13.4617269,14.4214111 13.4617269,13.9894111 C13.4617269,13.5580426 13.1093058,13.2037268 12.6785689,13.2037268" id="Fill-112" fill="#232E83"></path>
                <path d="M50.8532862,65.9226974 C51.6301284,65.9226974 51.8537073,66.8441711 51.6686547,67.3999606 C51.4823389,67.9538553 50.8179178,68.5822764 49.7827599,68.7666975 C49.5604441,68.210908 49.4486546,65.9226974 50.8532862,65.9226974 M62.4610762,63.6269078 C58.988655,63.6269078 58.2497076,68.8412238 57.6932865,68.8412238 C56.7686549,68.8412238 57.0648654,64.664592 56.3985496,64.664592 C55.8073917,64.664592 55.5105496,65.3675394 55.4372864,65.6984868 C54.9560232,67.6210132 53.5899179,70.3949081 51.5189705,70.3949081 C51.0389704,70.3949081 50.1882336,70.2085923 50.1882336,69.7279607 C50.1882336,69.2100659 53.4421284,69.1386975 53.4421284,66.6610132 C53.4421284,65.7370131 52.5926547,64.4410131 51.3358126,64.4410131 C49.671602,64.4410131 48.0478124,66.2530132 48.0478124,68.7666975 C48.0478124,71.0201712 49.4486546,71.7629081 50.8532862,71.7629081 C53.2937074,71.7629081 54.7741285,69.7626975 55.5490759,68.1010132 C55.9198127,69.2100659 56.1383391,71.7629081 57.0648654,71.7629081 C57.4343391,71.7629081 57.6932865,71.5772239 58.1385497,70.578066 C59.2457076,68.1010132 60.3168656,65.2544868 61.7979182,65.2544868 C62.3505498,65.2544868 62.0196025,66.2530132 63.3490762,66.2530132 C63.9781289,66.2530132 64.4196026,65.7370131 64.4196026,65.1426973 C64.4196026,64.292592 63.6452867,63.6269078 62.4610762,63.6269078" id="Fill-114" fill="#232E83"></path>
                <path d="M8.84311614,59.4157287 C8.28669507,59.6020445 7.62353715,60.2652024 7.77006347,61.6704656 C7.88122137,62.2230972 8.17680032,62.9639393 8.28669507,63.2967815 C8.47237928,63.8860446 8.69469508,64.812571 8.3997477,66.7344658 C8.030274,69.138887 7.14227397,70.8012028 5.14585284,70.7639397 C3.81701068,70.7639397 2.59364221,69.7281501 2.44901062,67.0673079 C2.29932641,64.5523605 2.48753694,63.4805709 2.89301064,61.2637288 C3.07806328,60.2652024 3.15006328,59.4157287 2.33722115,59.5641497 C1.30332637,59.7845708 1.00648425,60.1925708 0.674273711,61.3369919 C0.0452210544,63.4805709 -0.0293052643,64.9950973 0.00795789505,66.5134132 C0.157642112,69.7281501 1.59701059,71.8369923 4.85090546,71.9083608 C8.62143192,71.9841502 10.137853,68.3216238 10.2850109,65.2906763 C10.3961688,63.0732025 10.3595373,61.5239393 10.025432,60.3409919 C9.76901091,59.5641497 9.50880038,59.2300445 8.84311614,59.4157287" id="Fill-116" fill="#232E83"></path>
                <path d="M35.0336224,69.1385712 C34.8839382,68.9503606 34.5523593,68.5088869 34.5523593,67.5842553 C34.5523593,66.4006763 35.3266751,66.0312026 35.6614119,66.0312026 C36.0668856,66.0312026 36.4009909,66.5516237 36.4009909,67.17815 C36.4009909,67.9164659 36.1035172,68.8038343 35.0336224,69.1385712 M29.6708854,66.9589921 C29.4498327,66.9728869 29.2136222,66.7303605 29.1176222,65.1406763 C28.9685696,62.7059393 29.3083591,60.3912024 30.0454117,60.3463603 C30.5986749,60.3097287 30.8487802,60.775834 30.9125696,61.807834 C31.0540433,64.0966762 30.0782538,66.9349921 29.6708854,66.9589921 M46.7519387,63.8130973 C45.8999387,63.8130973 45.2715176,64.8122552 45.2715176,65.9939395 C45.2715176,67.0676237 45.5298334,67.1415185 45.5298334,67.881729 C45.5298334,68.8770975 45.0144649,70.1712028 44.3841491,70.1712028 C42.9075175,70.1712028 42.5367806,64.330992 41.6487806,64.330992 C41.1334122,64.330992 40.8732016,64.9587815 40.7260437,65.40215 C39.9106753,67.7339395 38.8035173,70.2829923 36.6965699,70.2829923 C36.2879383,70.2829923 35.809833,70.0966765 35.5489909,69.8402554 C37.0268857,68.9162554 38.0241489,67.953729 38.0241489,66.7733079 C38.0241489,65.7716237 37.3622541,64.2564657 36.2146751,64.2564657 C34.7740435,64.2564657 33.1079382,66.4398342 33.1079382,69.0255185 C33.1079382,69.5074133 33.1830961,69.8402554 33.2576224,70.0966765 C33.1464645,70.2463607 32.7024645,70.4307817 32.3329908,70.4307817 C31.3338328,70.4307817 30.2778328,69.3697291 30.1521486,68.7444659 C30.8942539,67.1396237 32.3835171,65.2752026 32.1100434,60.8086761 C32.0083592,59.1135181 31.1222539,58.065097 30.0144644,58.1314128 C28.5030959,58.2242549 27.1224642,61.5937288 27.3422537,65.1760447 C27.3870958,65.8764658 27.6921485,67.8021501 28.1216222,68.7526764 C27.3706748,69.9545712 26.4182537,70.1345712 25.8637273,70.1345712 C25.0875168,70.1345712 23.9052009,69.6905712 23.9052009,67.881729 C24.4609904,66.36215 24.0921483,64.6272026 23.3134115,64.6272026 C22.2049904,64.6272026 21.8361482,66.5838342 21.7982535,67.953729 C21.430043,68.7665712 21.0214114,69.432887 20.466885,69.432887 C18.803306,69.432887 18.6561481,64.2564657 17.435306,64.2564657 C16.4380428,64.2564657 14.7220427,67.5469922 14.2041479,67.5469922 C13.9098321,67.5469922 13.6470953,66.6166763 13.4620426,65.6996237 C13.4096216,65.4444658 13.3597268,65.1356236 13.1942532,65.1198342 C12.8664637,65.0888868 12.4546742,65.3718342 12.3024636,65.7672026 C12.14899,66.1594132 11.8748847,67.3947816 11.5755162,68.5164659 C11.3961478,69.1657291 10.9565689,70.5343607 10.9041478,71.0459397 C10.8656215,71.4160449 11.0203583,71.692045 11.389832,71.7312029 C12.3106742,71.8259397 15.6972006,67.6594132 16.7702533,67.6594132 C18.1388849,67.6594132 18.4685692,71.7627818 20.0241482,71.7627818 C20.9475166,71.7627818 21.7982535,69.3975185 22.3527798,69.3975185 C22.9799378,69.3975185 23.2755167,71.7627818 25.0508852,71.7627818 C27.2708853,71.7627818 28.007938,70.3189923 28.6748853,70.3189923 C29.2281485,70.3189923 29.8193064,71.7255186 31.1860433,71.7255186 C32.0367802,71.7255186 32.7782539,71.4672028 33.6656224,70.8722554 C34.1816224,71.4672028 34.8087803,71.7627818 35.401833,71.7627818 C39.06057,71.7627818 40.0963595,68.4684659 40.8378332,68.4684659 C41.5003595,68.4684659 41.3532016,71.7255186 43.2409912,71.7255186 C45.7540439,71.7255186 47.4542545,67.3259395 47.4542545,64.9587815 C47.4542545,64.330992 47.2679387,63.8130973 46.7519387,63.8130973" id="Fill-118" fill="#232E83"></path>
                <path d="M22.4646325,60.3020234 C22.4646325,60.8559182 22.8701062,61.4110761 23.5743167,61.4110761 C24.3858957,61.4110761 24.9776852,60.4896024 24.9018957,59.6382339 C24.8665273,59.0451813 24.3858957,58.639076 23.7574746,58.639076 C23.0551588,58.639076 22.3875798,59.3780234 22.4646325,60.3020234" id="Fill-120" fill="#232E83"></path>
            </g>
        </g>
    </g>
</svg>