<?xml version="1.0" encoding="UTF-8"?>
<svg width="83px" height="37px" viewBox="0 0 83 37" version="1.1" xmlns="http://www.w3.org/2000/svg" xmlns:xlink="http://www.w3.org/1999/xlink">
    <title>logo-lg</title>
    <defs>
        <polygon id="path-1" points="0 0.362460993 35.3280363 0.362460993 35.3280363 35.6897503 0 35.6897503"></polygon>
    </defs>
    <g id="final---draft" stroke="none" stroke-width="1" fill="none" fill-rule="evenodd">
        <g id="assets" transform="translate(-914.000000, -107.000000)">
            <g id="logo-lg" transform="translate(914.800000, 107.000000)">
                <g id="Group-3" transform="translate(0.000000, 0.467788)">
                    <mask id="mask-2" fill="white">
                        <use xlink:href="#path-1"></use>
                    </mask>
                    <g id="Clip-2"></g>
                    <path d="M17.6639766,0.362460993 L17.6639766,0.362460993 C7.90815684,0.362460993 -8.29999983e-05,8.27070083 -8.29999983e-05,18.0256906 C-8.29999983e-05,27.7815104 7.90815684,35.6897503 17.6639766,35.6897503 C27.4189664,35.6897503 35.3280363,27.7815104 35.3280363,18.0256906 C35.3280363,8.27070083 27.4189664,0.362460993 17.6639766,0.362460993" id="Fill-1" fill="#000000" mask="url(#mask-2)"></path>
                </g>
                <path d="M21.8609546,17.8217596 L21.8609546,19.1912596 L30.9992544,19.1912596 C30.9984244,19.2244596 30.9984244,19.3655596 30.9942744,19.3946096 C30.5211744,26.3549895 24.7169845,31.8827894 17.6354246,31.8827894 C14.0647647,31.8827894 10.7040948,30.4892194 8.16595484,27.9577194 C5.64441489,25.4328595 4.25250491,22.0696996 4.25250491,18.4923996 C4.25250491,14.9084597 5.64441489,11.5452998 8.16595484,9.02043982 C10.7040948,6.49806987 14.0647647,5.1044999 17.6354246,5.1044999 C17.7898046,5.1044999 18.1724346,5.1044999 18.3425846,5.1094799 L18.3425846,3.72586993 C18.2023146,3.72503993 17.9707446,3.72005993 17.7889746,3.71756993 L17.4478446,3.71756993 C9.40431481,3.81384992 2.87138494,10.4032198 2.87138494,18.4923996 C2.87138494,22.4382195 4.40854491,26.1433395 7.19568486,28.9346294 C9.9803348,31.7259194 13.6954147,33.2614193 17.6262946,33.2614193 C21.5820746,33.2614193 25.2946645,31.7259194 28.0801444,28.9346294 C30.8697744,26.1433395 32.4019543,22.4382195 32.4019543,18.4923996 L32.4019543,17.8192696 L31.8201244,17.8217596 L21.8609546,17.8217596 Z" id="Fill-4" fill="#FEFEFE"></path>
                <polygon id="Fill-6" fill="#FEFEFE" points="16.9328297 10.7529818 16.9328297 26.2167115 21.8497496 26.2167115 21.8497496 24.8405715 18.3429996 24.8405715 18.3429996 10.7529818"></polygon>
                <path d="M12.0059498,10.7440178 C10.8406298,10.7440178 9.8861298,11.6868978 9.8861298,12.8621777 C9.8861298,14.0291577 10.8406298,14.9703777 12.0059498,14.9703777 C13.1704397,14.9703777 14.1232797,14.0291577 14.1232797,12.8621777 C14.1232797,11.6868978 13.1704397,10.7440178 12.0059498,10.7440178" id="Fill-8" fill="#FEFEFE"></path>
                <polygon id="Fill-10" fill="#000000" points="44.1072781 7.99787984 50.343898 7.99787984 50.343898 23.8268095 59.6017178 23.8268095 59.6017178 29.1130794 44.1072781 29.1130794"></polygon>
                <path d="M75.7388265,27.0060415 C74.6407365,28.6917714 72.6047465,29.6354814 70.0558166,29.6354814 C64.5686867,29.6354814 60.9988568,25.2705115 60.9988568,18.5267616 C60.9988568,11.6867318 65.0218667,7.47116185 71.6660166,7.47116185 C74.3195265,7.47116185 76.5879165,8.17749184 78.3358964,9.52209181 C80.1037964,10.9181518 80.7636464,12.2909718 81.0458464,15.0772817 L74.5270265,15.0772817 C74.3477465,13.4521417 73.1326265,12.4030218 71.5249166,12.4030218 C69.0116766,12.4030218 67.5326166,14.7369817 67.5326166,18.6122516 C67.5326166,22.5398115 69.0681166,24.9003315 71.6369666,24.9003315 C73.6663165,24.9003315 74.8391065,23.7698715 75.3205065,21.2524816 L71.2983266,21.2524816 L71.2983266,16.8161317 L81.0458464,16.8161317 L81.0458464,29.1134114 L75.7388265,29.1134114 L75.7388265,27.0060415 Z" id="Fill-12" fill="#000000"></path>
            </g>
        </g>
    </g>
</svg>