<?xml version="1.0" encoding="UTF-8"?>
<svg width="107px" height="31px" viewBox="0 0 107 31" version="1.1" xmlns="http://www.w3.org/2000/svg" xmlns:xlink="http://www.w3.org/1999/xlink">
    <title>logo-rba</title>
    <g id="final---draft" stroke="none" stroke-width="1" fill="none" fill-rule="evenodd">
        <g id="assets" transform="translate(-1078.000000, -108.000000)">
            <g id="logo-rba" transform="translate(1078.000000, 108.000000)">
                <polygon id="Fill-1" fill="#FEFEFE" points="0 29.361 27.7097018 29.361 27.7097018 1.4225625 0 1.4225625"></polygon>
                <polygon id="Fill-2" fill="#000000" points="0.800578947 28.5538125 26.9072632 28.5538125 26.9072632 2.231625 0.800578947 2.231625"></polygon>
                <g id="Group-8" transform="translate(0.929825, 0.298500)">
                    <path d="M1.25702982,22.9358437 L4.66204737,26.4364687 L12.6408719,18.2736562 L20.887486,26.6052187 L24.342714,23.1552187 L16.1797842,14.9249062 L17.7493281,13.3930312 L17.7493281,10.1286562 L18.7340123,9.28678125 L18.7340123,11.8452187 L20.002293,12.8886563 L23.7913281,9.06834375 L25.0103281,10.0105312 C25.7281526,7.33396875 21.5718368,1.25896875 18.1324158,4.62553125 L14.1267316,8.63053125 L14.9449772,9.62428125 L12.9077316,11.6267812 L10.9383632,9.67396875 L11.9732579,8.73178125 L7.58355614,4.45678125 C4.27802982,1.71365625 0.889749123,5.88740625 0.772591228,9.95990625 L1.97485439,8.95021875 L5.66346842,12.9552187 L6.98195965,11.8452187 L6.98195965,9.38803125 L7.80020526,10.0105312 L7.80020526,13.2261562 L9.40229298,14.8405312 L1.25702982,22.9358437 Z" id="Fill-3" fill="#FEFEFE"></path>
                    <g id="Group-7" transform="translate(30.684211, 0.000000)" fill="#000000">
                        <path d="M36.6243947,17.6687812 L34.5043947,29.0284688 L37.6927632,29.0284688 L38.5435526,24.7881563 L41.398114,29.0284688 L45.5879035,29.0284688 L41.4985351,23.0715937 L46.7232193,17.6509688 L42.6673246,17.6509688 L39.0949386,21.6569062 L39.6621316,17.6509688 L36.6243947,17.6687812 Z M21.7509211,29.0622187 L24.7728509,29.0622187 L25.540886,21.9775313 L29.8636404,29.0284688 L33.1022193,29.0284688 L34.4541842,17.7015938 L31.4331842,17.7015938 L30.5814649,24.7881563 L26.2587105,17.6687813 L23.1372895,17.6687813 L21.7509211,29.0622187 Z M14.5066579,24.6700312 L16.5429737,24.6700312 L15.8920965,21.6906562 L14.5066579,24.6700312 Z M9.18155263,29.0284688 L12.4536053,29.0284688 L13.4382895,27.0428438 L17.1445702,27.0428438 L17.6950263,29.0622187 L20.7169561,29.0622187 L18.0957807,17.7690938 L15.0078333,17.7690938 L9.18155263,29.0284688 Z M4.74164035,20.3950312 L4.42457018,21.9090938 L4.80858772,21.9269063 C5.96064035,21.9934688 6.62825439,20.3950312 5.24281579,20.3950312 L4.74164035,20.3950312 Z M4.1075,24.4506563 L3.72348246,26.3190938 L4.97502632,26.3190938 C6.39486842,26.3865938 6.2275,24.4506563 5.40925439,24.4506563 L4.1075,24.4506563 Z M1.92055263,17.7015938 L0.0181315789,29.0125312 L5.40925439,29.0125312 C9.06532456,29.0125312 10.5679211,24.4347187 7.96348246,22.8690937 C10.1829737,20.7990937 9.04858772,17.6856563 6.66172807,17.6509688 L1.92055263,17.7015938 Z M65.7018684,5.41659375 L65.7018684,13.0403437 L68.5564298,13.0403437 L68.5564298,8.37815625 C68.640114,7.21753125 70.9107456,7.01503125 70.9274825,8.37815625 L70.9274825,13.0403437 L73.8155175,13.0403437 L73.8155175,8.26096875 C73.7476404,5.58440625 70.9609561,4.28878125 68.4402018,5.98846875 L68.4402018,5.41659375 L65.7018684,5.41659375 Z M55.2534298,5.56753125 L54.3515,7.41815625 C53.2161842,7.06471875 52.1152719,7.13315625 52.1478158,7.45284375 C52.1812895,7.65440625 51.998114,8.00784375 53.7675702,8.26096875 C56.4045526,8.68096875 56.1879035,13.6290938 51.7647281,13.2587813 C50.5457281,13.1744063 49.5610439,12.8547188 48.7427982,12.3672188 L49.7274825,10.3815938 C51.1138509,11.0706563 52.4490789,11.4756563 52.5485702,10.7847188 C52.6657281,9.92596875 51.0961842,10.2287813 50.1449737,9.50596875 C48.4424649,8.44565625 49.4104123,5.16346875 52.1980263,5.12971875 C53.1836404,5.06315625 54.2008684,5.23096875 55.2534298,5.56753125 L55.2534298,5.56753125 Z M59.3093246,7.90659375 C59.3427982,6.98128125 61.3456404,6.98128125 61.4786053,7.90659375 L59.3093246,7.90659375 Z M60.2940088,13.2587813 C62.9309912,13.2419062 63.8998684,12.1478437 64.4670614,10.5494063 L61.7966053,10.5494063 C60.5943421,12.0981562 58.8416228,10.9694063 58.925307,9.70753125 L64.5340088,9.70753125 C64.5340088,6.61096875 62.9142544,5.14753125 60.2940088,5.14753125 C57.6905,5.14753125 56.0540088,6.99815625 56.0540088,9.25284375 C56.0540088,11.5084688 57.9573596,13.2756562 60.2940088,13.2587813 L60.2940088,13.2587813 Z M38.5100789,7.90659375 C38.5435526,6.98128125 40.5473246,6.98128125 40.6802895,7.90659375 L38.5100789,7.90659375 Z M39.495693,13.2587813 C42.1159386,13.2419062 43.083886,12.1478437 43.6520088,10.5494063 L40.9982895,10.5494063 C39.7960263,12.0981562 38.043307,10.9694063 38.1269912,9.70753125 L43.7347632,9.70753125 C43.7347632,6.61096875 42.0992018,5.14753125 39.495693,5.14753125 C36.8912544,5.14753125 35.255693,6.99815625 35.255693,9.25284375 C35.255693,11.5084688 37.158114,13.2756562 39.495693,13.2587813 L39.495693,13.2587813 Z M23.4041491,5.41659375 L23.4041491,7.84003125 L24.4557807,7.84003125 L24.4557807,13.0403438 L27.4098333,13.0403438 L27.4098333,7.84003125 L30.1807105,7.84003125 L30.1807105,13.0403438 L33.2351842,13.0403438 L33.2351842,7.80534375 L35.1385351,7.80534375 L35.1385351,5.44940625 L33.1524298,5.44940625 L33.1524298,3.74971875 C33.1022193,3.12721875 34.5546053,2.87503125 35.0557807,3.37940625 L35.0557807,0.88846875 C32.2505,-0.00309375 29.9807982,1.59534375 29.9975351,4.06940625 L29.9975351,5.41659375 L27.3930965,5.41659375 L27.3930965,3.74971875 C27.3605526,3.12721875 28.6288333,2.87503125 29.3633947,3.37940625 L29.3633947,0.88846875 C26.9263246,0.16471875 24.321886,1.36003125 24.3386228,4.05346875 L24.3386228,5.39971875 L23.4041491,5.41659375 Z M46.0221316,1.05721875 C46.9240614,1.05721875 47.6409561,1.79784375 47.6409561,2.68940625 C47.6409561,3.58190625 46.9240614,4.32253125 46.0221316,4.32253125 C45.1369386,4.32253125 44.419114,3.58190625 44.419114,2.68940625 C44.419114,1.79784375 45.1369386,1.05721875 46.0221316,1.05721875 L46.0221316,1.05721875 Z M44.5027982,13.0403437 L47.5582018,13.0403437 L47.5582018,5.41659375 L44.5027982,5.41659375 L44.5027982,13.0403437 Z M21.3176228,1.05721875 C22.201886,1.05721875 22.9197105,1.79784375 22.9197105,2.68940625 C22.9197105,3.58190625 22.201886,4.32253125 21.3176228,4.32253125 C20.415693,4.32253125 19.6978684,3.58190625 19.6978684,2.68940625 C19.6978684,1.79784375 20.415693,1.05721875 21.3176228,1.05721875 L21.3176228,1.05721875 Z M19.7815526,13.0403437 L22.8360263,13.0403437 L22.8360263,5.41659375 L19.7815526,5.41659375 L19.7815526,13.0403437 Z M13.2049035,5.12971875 C14.0064123,5.12971875 14.7567807,5.39971875 15.375114,5.83659375 L15.375114,5.41659375 L18.2454825,5.41659375 L18.2622193,13.0403438 L15.3583772,13.0403438 L15.375114,12.5697187 C14.7567807,13.0065938 14.0064123,13.2587813 13.2049035,13.2587813 C11.0681667,13.2587813 9.31544737,11.4409688 9.31544737,9.20315625 C9.31544737,6.96440625 11.0681667,5.12971875 13.2049035,5.12971875 L13.2049035,5.12971875 Z M13.8232368,7.55315625 C14.7911842,7.55315625 15.5750263,8.29378125 15.5750263,9.20315625 C15.5750263,10.1115938 14.7911842,10.8522188 13.8232368,10.8522188 C12.8710965,10.8522188 12.0863246,10.1115938 12.0863246,9.20315625 C12.0863246,8.29378125 12.8710965,7.55315625 13.8232368,7.55315625 L13.8232368,7.55315625 Z M0.234780702,2.06690625 L0.234780702,13.0403438 L3.17302632,13.0403438 L3.17302632,9.47221875 L5.67704386,13.0403438 L9.14900877,13.0403438 L6.06013158,8.64721875 C9.63251754,6.89784375 8.29728947,2.11753125 4.54172807,2.06690625 L0.234780702,2.06690625 Z M3.17302632,4.47346875 L3.17302632,6.89784375 L4.20792105,6.89784375 C5.62683333,6.62784375 5.24281579,4.57471875 4.20792105,4.47346875 L3.17302632,4.47346875 Z" id="Fill-5"></path>
                    </g>
                </g>
            </g>
        </g>
    </g>
</svg>