<?xml version="1.0" encoding="UTF-8"?>
<svg width="48px" height="48px" viewBox="0 0 48 48" version="1.1" xmlns="http://www.w3.org/2000/svg" xmlns:xlink="http://www.w3.org/1999/xlink">
    <title>logo-BK</title>
    <g id="final---draft" stroke="none" stroke-width="1" fill="none" fill-rule="evenodd">
        <g id="assets" transform="translate(-390.000000, -99.000000)" fill="#000000">
            <path d="M414.471612,99 C417.034485,99 419.337276,99.4000177 421.654563,100.139329 C420.148646,99.7996107 418.156248,99.4573451 415.948962,99.4573451 C402.429393,99.4573451 392.737717,109.392816 392.737717,121.99762 C392.737717,126.918857 394.215068,131.250683 396.763871,134.675888 L396.763871,134.675888 L396.760886,138.28454 L399.100344,137.288742 C402.969169,140.899093 408.326857,142.970947 414.396572,142.885168 C422.73241,142.767541 429.092906,137.606379 432.407458,130.189915 L432.407458,130.189915 L436.446402,132.376848 C434.202876,137.870084 427.186633,147 414.184669,147 C400.571726,147 390.2,135.968939 390.2,122.800203 C390.2,110.71814 399.964157,99 414.471612,99 Z M429.555851,128.445506 C429.857291,128.37459 430.07431,128.377138 430.228653,128.535531 C430.411564,128.72365 430.373191,129.040437 430.325864,129.23535 C430.095202,130.198025 428.052493,137.00597 418.386399,139.335585 C412.057881,140.860917 406.227356,138.778023 404.913729,137.13761 C404.913729,137.13761 404.608027,136.831864 404.741478,136.522297 C404.82803,136.323986 404.953808,136.279398 405.230518,136.160497 C411.671596,133.414728 422.841901,130.01755 429.555851,128.445506 Z M403.941236,123.237887 C404.304925,122.6816 405.158505,122.179242 406.154917,122.628519 C407.059235,123.037879 407.307805,124.020937 406.813649,124.813753 C406.441007,125.412506 404.163372,128.986762 404.163372,128.986762 L404.163372,128.986762 L406.751826,131.581781 C407.262184,132.143165 407.403737,133.396298 406.48876,134.131787 C405.477425,134.943288 404.331785,134.614611 403.708015,133.969572 L403.708015,133.969572 L400.86758,130.967741 L400.864169,134.714404 C400.864169,134.714404 400.874401,135.443098 400.597691,135.876238 C400.297105,136.347172 399.797406,136.489004 399.797406,136.489004 L399.797406,136.489004 L397.256705,137.550622 L397.268216,125.730567 L400.875254,124.240904 L400.880797,128.421132 Z M411.538186,120.287014 L411.538045,120.653556 C411.53803,120.692606 411.538014,120.73449 411.537997,120.77907 L411.537046,123.3067 C411.537012,123.395835 411.536979,123.485989 411.536945,123.57702 L411.536016,126.146372 C411.535983,126.241889 411.535949,126.337027 411.535916,126.431645 L411.535018,129.179428 C411.534999,129.245705 411.534981,129.309925 411.534964,129.371949 L411.534775,130.303593 C411.534775,131.695162 411.032092,132.378844 409.701837,132.877804 C408.930069,133.167014 408.112613,133.4496 407.848133,133.540329 L407.770386,133.566927 L407.770386,133.566927 L407.760177,133.570404 L407.760177,133.570404 L407.760966,131.832601 C407.760999,131.758673 407.761032,131.683049 407.761067,131.605866 L407.761976,129.523131 C407.762015,129.429634 407.762055,129.335658 407.762095,129.241338 L407.762911,127.256326 C407.762948,127.163803 407.762984,127.071882 407.763019,126.980697 L407.763995,123.954405 C407.764007,123.866205 407.764014,123.788513 407.764014,123.72241 C407.764014,121.993671 408.423599,121.333345 409.57137,120.920163 C409.623261,120.901553 409.675853,120.882942 409.728883,120.864394 L410.050236,120.754381 C410.802563,120.501859 411.538186,120.287014 411.538186,120.287014 L411.538186,120.287014 Z M422.866246,117.359071 L422.866977,117.999666 C422.867026,118.044615 422.867077,118.091644 422.867129,118.14066 L422.867828,118.818314 C422.867891,118.881746 422.867954,118.946795 422.868019,119.013367 L422.868815,119.87945 C422.868882,119.95673 422.868949,120.035164 422.869016,120.114658 L422.869977,121.375013 C422.870036,121.462794 422.870095,121.551172 422.870152,121.640054 L422.870989,123.274374 C422.871023,123.365971 422.871054,123.457516 422.871082,123.548916 L422.871047,125.914018 C422.871011,125.995308 422.870971,126.075619 422.870926,126.154859 L422.870149,127.048371 C422.870064,127.117555 422.869973,127.185298 422.869877,127.251505 L422.869231,127.629589 C422.85175,128.522198 422.274027,129.153223 421.579054,129.355355 C420.909663,129.551967 420.175464,129.50016 419.590067,128.898435 L419.590067,128.898435 L415.987293,124.766193 L415.987293,124.766193 L415.987939,125.209889 C415.988008,125.249157 415.988084,125.290589 415.988168,125.334002 L415.988757,125.616791 C415.990806,126.527699 415.995485,127.961936 416.005626,128.852148 C416.011595,130.129487 415.558371,130.866675 414.312962,131.29387 C414.177805,131.340157 412.629251,131.870966 412.629251,131.870966 L412.629251,131.870966 L412.626267,120.018212 L414.354319,119.498868 C414.354319,119.498868 415.52682,119.076769 416.235863,119.782108 C416.578274,120.123251 416.967309,120.544822 417.356101,120.982592 L417.646917,121.312953 C418.659487,122.472822 419.58964,123.633659 419.58964,123.633659 L419.58964,123.633659 L419.589967,123.043131 C419.589994,122.992666 419.590023,122.939835 419.590052,122.88499 L419.590934,121.172749 C419.590963,121.11031 419.590992,121.049039 419.591019,120.989292 L419.591346,120.079786 C419.591346,118.590123 420.274807,118.024918 421.164202,117.772677 C421.936773,117.555683 422.866246,117.359071 422.866246,117.359071 L422.866246,117.359071 Z M434.383441,127.513873 L434.383441,127.849344 L433.62366,127.849344 L433.62366,129.470222 L433.087721,129.470222 L433.087721,127.849344 L432.298522,127.849344 L432.298522,127.513873 L434.383441,127.513873 Z M435.446366,127.513873 L435.93242,129.015425 L436.418475,127.513873 L437.2,127.513873 L437.2,129.470222 L436.664913,129.470222 L436.664913,127.886288 L436.199751,129.470222 L435.66509,129.470222 L435.199927,127.886288 L435.199927,129.470222 L434.664841,129.470222 L434.664841,127.513873 L435.446366,127.513873 Z M428.935535,115.641798 C430.325907,115.366202 431.784498,115.447734 432.910098,115.898285 C434.430085,116.484722 433.956395,118.981224 432.285049,118.731956 C431.786629,118.656793 430.937313,118.302213 429.440776,118.64278 C428.110094,118.947676 427.013487,120.061951 426.980657,121.996644 C427.000269,123.798846 427.756639,124.819274 429.421589,124.55854 C430.520736,124.341796 430.612106,123.892889 430.619058,123.79145 L430.619524,123.771642 L430.619524,123.771642 L430.613276,122.812391 C430.613276,122.812391 430.218037,122.938086 429.961366,122.980127 C429.144453,123.128753 428.767547,122.705804 428.758167,121.929974 C428.759086,121.684724 428.759721,121.479154 428.760162,121.312066 L428.760982,120.925042 C428.761016,120.90221 428.761043,120.881708 428.761065,120.863518 L428.761152,120.754975 L433.809299,119.66618 L433.809299,119.66618 L433.809681,119.71122 C433.811272,119.90232 433.817412,120.674762 433.820037,121.512005 L433.820969,121.901146 C433.821073,121.966142 433.821149,122.031052 433.821193,122.09564 L433.821046,122.477425 C433.820263,122.976305 433.816974,123.42449 433.809299,123.701602 C433.808447,124.363627 433.654956,125.251565 432.994518,125.898302 C432.268421,126.606614 430.950104,127.370554 429.041699,127.587124 C426.384174,127.889049 423.425209,126.587505 423.416255,122.589876 C423.425635,117.558655 427.078294,116.011665 428.935535,115.641798 Z M401.020218,116.974765 C401.020218,117.804101 400.66463,118.505619 399.892059,119.126028 C400.653119,119.251724 401.302044,119.873407 401.316114,120.732893 C401.344254,122.38647 400.14873,123.265489 398.591223,123.909255 L395.401596,125.258784 L395.393921,116.64991 C395.393921,116.64991 397.404653,115.832464 398.0604,115.596785 C399.924463,114.921596 401.020218,115.734371 401.020218,116.974765 Z M397.613997,120.465366 L397.611439,122.56015 C397.611439,122.56015 397.89625,122.434455 398.105169,122.337635 C398.618511,122.100257 399.021424,121.673487 399.010339,121.031845 C399.004908,120.654959 398.832132,120.377565 398.517161,120.295908 L398.451,120.282 L398.427753,120.278564 C398.210998,120.249754 397.937585,120.303754 397.613997,120.465366 Z M406.266198,112.723622 C406.871635,112.550366 407.372612,112.744005 407.372612,113.468453 L407.372612,113.468453 L407.374317,117.963769 C407.353852,120.329478 406.24957,121.251388 404.596131,121.738883 C402.721836,122.290075 401.49135,121.402987 401.500255,119.626687 C401.501569,119.382447 401.502516,119.078961 401.503181,118.741695 L401.503847,118.322392 C401.503937,118.250348 401.504018,118.177362 401.504089,118.103635 L401.504103,115.873539 C401.504055,115.805384 401.504005,115.738526 401.503953,115.673168 L401.503117,114.83084 C401.503063,114.785584 401.503011,114.742849 401.50296,114.702836 L401.502435,114.32072 C401.502435,114.32072 401.90876,114.15893 402.58881,113.932168 C403.192115,113.734282 403.700341,113.951702 403.700341,114.681246 L403.700341,114.681246 L403.707589,119.062331 C403.708442,119.591442 403.948058,119.928187 404.453725,119.801642 C405.113737,119.63603 405.196025,118.969333 405.201568,118.43725 L405.201568,118.43725 L405.205405,113.084997 C405.205405,113.084997 405.776306,112.862906 406.266198,112.723622 Z M413.655509,113.03319 C413.644423,114.299063 412.934954,115.069798 412.297114,115.595511 L413.698998,116.934848 C414.130052,117.351003 414.159471,118.101354 413.675122,118.554453 C413.387752,118.82283 412.619445,119.101399 412.018698,118.494578 L410.152078,116.571775 C410.152078,116.571775 410.152013,116.592605 410.151896,116.63035 L410.151067,116.901171 C410.150219,117.180064 410.148981,117.594243 410.147916,117.975879 L410.14706,118.291112 C410.146929,118.341017 410.146804,118.38928 410.146688,118.435411 L410.146109,118.682697 L410.146109,118.682697 C410.140246,119.203137 409.811946,119.592267 409.377301,119.798735 L409.256287,119.850476 L409.256287,119.850476 C408.84442,119.991035 407.967816,120.289986 407.967816,120.289986 L407.971227,112.210223 C407.971227,112.210223 408.847102,111.906699 409.738793,111.638745 L410.072239,111.540591 C410.347929,111.46129 410.614664,111.389602 410.846198,111.335875 C412.500063,110.952843 413.676827,111.701496 413.655509,113.03319 Z M397.596943,117.318305 L397.596517,119.139617 C397.752566,119.079317 397.867684,119.02751 397.999004,118.963813 C398.474826,118.731956 398.814212,118.306034 398.818475,117.749747 C398.822739,117.119145 398.300443,116.955656 397.596943,117.318305 Z M418.52032,109.288226 C419.918793,109.240241 420.572409,109.692065 420.554075,110.424582 C420.537021,111.108264 420.060346,111.507857 419.228084,111.373244 L419.077103,111.35449 C418.763669,111.317052 418.383335,111.287101 417.970737,111.391928 C417.007581,111.639073 416.30067,112.516394 416.276794,114.012851 C416.287453,115.152179 416.715948,115.750932 417.489799,115.770041 C418.041087,115.782356 418.572763,115.551772 418.568925,115.198466 L418.568925,115.198466 L418.564235,114.30883 C418.564235,114.30883 418.35148,114.35639 418.085855,114.41117 C417.66674,114.498647 417.373401,114.228147 417.36999,113.814965 C417.370029,113.764471 417.370089,113.71577 417.370166,113.668953 L417.370798,113.411399 C417.371182,113.29466 417.371644,113.196524 417.372072,113.119456 L417.372848,112.99414 C417.372958,112.978179 417.373057,112.964741 417.373139,112.953918 L417.373401,112.921083 L420.595006,112.191539 L420.596285,115.243479 C420.595006,115.704645 420.424887,116.244372 420.01174,116.607445 C419.597741,116.967971 419.000832,117.355249 417.800191,117.598147 C415.6769,117.98033 413.93563,116.808304 413.93563,114.154683 C413.93563,111.56391 415.487168,109.393114 418.52032,109.288226 Z M425.797924,107.801111 L425.79744,107.855761 C425.796391,107.976922 425.793913,108.276755 425.792864,108.52173 L425.792381,108.712829 C425.792381,109.182064 425.627378,109.52433 425.126401,109.627519 C424.484723,109.762981 423.293036,110.010126 423.293036,110.010126 L423.293036,110.010126 L423.293463,111.211878 L425.586021,110.727355 L425.586021,110.727355 L425.586918,110.872257 C425.587294,110.940589 425.587732,111.02991 425.588108,111.13327 L425.588936,111.478512 L425.588936,111.478512 L425.589005,111.605101 C425.589005,112.108308 425.357063,112.349932 424.914924,112.445478 C424.562748,112.52149 423.293889,112.789018 423.293889,112.789018 L423.293889,112.789018 L423.288346,114.305857 L425.876801,113.742351 L425.876801,113.742351 L425.876032,113.886997 C425.875924,113.91002 425.875811,113.935512 425.875696,113.963272 L425.875011,114.15541 C425.874904,114.191424 425.874802,114.229298 425.87471,114.268829 L425.874243,114.663835 C425.874243,115.242205 425.57792,115.575977 425.100819,115.679591 C424.695651,115.767433 424.195953,115.879609 423.688816,115.995044 L423.30843,116.081901 C422.171251,116.342331 421.106643,116.592583 421.106643,116.592583 L421.106643,116.592583 L421.124124,108.743828 C422.479534,108.437233 424.654416,108.001545 425.797924,107.801111 L425.797924,107.801111 Z M431.911554,109.19268 C431.9026,110.315872 431.193557,110.993609 430.591105,111.400421 C430.591105,111.400421 431.697519,112.642939 431.994269,112.971616 C432.393771,113.414098 432.375438,114.172518 431.786629,114.54366 C431.205922,114.907583 430.632463,114.716491 430.299046,114.35087 L428.469093,112.214895 L428.469646,112.326219 C428.469759,112.349706 428.469887,112.376482 428.470026,112.406129 L428.470967,112.615134 C428.47165,112.772991 428.472411,112.963442 428.47305,113.159784 L428.473891,113.455378 C428.474008,113.504268 428.474111,113.552691 428.474197,113.600231 L428.474209,114.101602 L428.474209,114.101602 C428.46824,114.671479 428.137382,115.089332 427.542604,115.212055 L426.350917,115.445186 L426.353902,107.696223 C426.353902,107.696223 426.922138,107.596325 427.563656,107.486872 L427.917867,107.426766 C428.451161,107.336815 428.973268,107.251463 429.213098,107.220194 C430.840528,107.013815 431.933725,107.914492 431.911554,109.19268 Z M410.148667,113.120667 L410.14824,115.36238 C410.150799,115.36238 411.428611,114.704177 411.414114,113.659544 C411.402176,112.768634 410.577589,112.963548 410.148667,113.120667 Z M406.598293,103.573069 C409.835247,101.836686 414.451488,101.152155 417.842785,101.513105 C424.175993,102.187445 425.966721,105.218577 425.966721,105.218577 C425.966721,105.218577 426.195252,105.488652 426.081413,105.762974 C426.004241,105.952367 425.817067,106.019461 425.61156,106.054707 C422.690542,106.549846 418.139961,107.44118 412.601495,108.903665 C408.70922,109.932161 402.541868,111.970468 400.471445,112.666464 C400.230123,112.746298 400.034848,112.749695 399.900544,112.58196 C399.768797,112.418046 399.824225,112.029069 399.857481,111.902099 C399.857481,111.902099 400.735364,106.720978 406.598293,103.573069 Z M428.46355,108.923878 L428.466535,111.018239 C428.46824,111.016965 429.729424,110.539237 429.714501,109.532398 C429.70171,108.68098 428.859642,108.836826 428.46355,108.923878 Z" id="logo-BK"></path>
        </g>
    </g>
</svg>