<?xml version="1.0" encoding="UTF-8"?>
<svg width="88px" height="64px" viewBox="0 0 88 64" version="1.1" xmlns="http://www.w3.org/2000/svg" xmlns:xlink="http://www.w3.org/1999/xlink">
    <title>logo-sprite</title>
    <g id="final---draft" stroke="none" stroke-width="1" fill="none" fill-rule="evenodd">
        <g id="assets" transform="translate(-518.000000, -94.000000)" fill="#000000">
            <path d="M585.371886,94 C585.785747,101.168516 587.56574,112.977482 605.4,105.908946 C599.050866,117.150046 598.169696,128.766439 604.956228,138.701396 C579.825466,134.773119 559.277574,140.363625 541.136352,158 C536.340177,152.710415 526.573259,147.178025 518.4,146.931769 C527.410297,134.54213 529.58797,126.07486 528.044328,110.374062 C559.306505,122.660273 575.475515,112.379079 585.371886,94 Z M584.135208,97.9307402 C572.360281,118.24687 551.763354,122.044632 531.402779,114.812582 C532.020628,123.329597 528.110036,135.671461 519.844099,146.286577 C527.970284,146.923396 536.038117,151.232878 540.91422,155.811764 C552.144361,146.860354 566.583884,135.013465 598.881693,134.157478 C598.289833,130.680834 595.420268,123.924059 603.783295,107.253997 C589.595325,112.248071 584.849657,105.936034 584.135208,97.9307402 Z M556.07947,125.855495 C557.858974,126.919321 558.151226,129.310961 557.728048,131.17512 C557.163648,133.781987 555.920595,136.271144 554.010167,138.145646 C552.573423,139.582796 550.784603,140.577179 548.890847,141.275561 C548.731971,141.333185 548.612324,141.167701 548.745211,141.040633 C549.374828,140.434842 549.890683,139.725132 550.449199,139.057286 C551.568683,137.475829 552.268911,135.648116 552.896077,133.828283 C553.348186,132.425608 553.583066,130.938221 553.460477,129.465117 C553.430566,128.968172 553.213338,128.429857 552.746028,128.202808 C552.18506,127.937344 551.509349,128.256492 551.183753,128.743094 C550.717424,129.407001 550.537463,130.217183 550.410951,131.005696 C549.552828,135.896342 548.685878,140.785019 547.836581,145.677635 C546.118372,146.916304 544.383001,148.130346 542.66185,149.359657 C543.496927,144.755652 544.342792,140.151648 545.185714,135.548136 C545.462275,133.945501 545.84083,132.348776 545.856031,130.713143 C545.9085,129.766535 545.580941,128.614549 544.563942,128.329384 C546.969631,127.475368 549.379242,126.630709 551.786401,125.782603 C553.152043,125.303389 554.773161,125.099489 556.07947,125.855495 Z M547.534325,121.205785 C547.216574,122.846836 546.885093,124.483947 546.555083,126.121058 C545.61458,124.991727 544.257274,124.147069 542.76659,124.076147 C541.395554,124.045118 539.648415,124.622343 539.257601,126.10382 C539.010461,127.32722 539.87594,128.422075 540.740438,129.174141 C541.916313,130.118779 543.055901,131.182606 543.749264,132.546865 C544.433312,133.864828 544.559823,135.423136 544.239621,136.862257 C543.393266,140.60535 540.730631,143.909122 537.219189,145.448223 C534.700719,146.591344 531.82527,146.902612 529.118993,146.356416 C529.688297,144.299192 530.290945,142.248864 530.872017,140.194102 C532.765773,142.135586 536.225727,142.102587 538.077313,140.127121 C539.045276,139.122888 539.548382,137.486763 538.828539,136.204261 C538.204315,135.045872 537.066198,134.313014 536.007028,133.599364 C534.748774,132.723677 533.880843,131.269288 533.869075,129.712949 C533.854364,127.606475 534.665904,125.486209 536.124224,123.962376 C539.027623,121.017153 543.623243,120.097633 547.534325,121.205785 Z M568.569827,119.841625 L567.657764,124.711094 L567.657764,124.711094 C566.795718,124.722421 565.916509,124.930261 565.198627,125.424744 C564.298823,126.027086 563.78542,127.075645 563.656456,128.135531 C563.19356,131.122618 562.727721,134.111182 562.263844,137.098762 C560.511311,138.014834 558.766133,138.94125 557.009676,139.851905 C557.53828,136.743168 558.059529,133.631968 558.580288,130.521261 C558.871559,128.87824 559.107911,127.188923 558.864694,125.524724 C558.736221,124.838162 558.559693,124.066395 557.988428,123.608851 C558.883818,123.304479 559.769892,122.968093 560.668225,122.679481 C561.587643,123.098608 562.369271,123.872345 562.745374,124.818954 C563.369108,123.620179 564.064433,122.429284 565.045145,121.486616 C565.985649,120.549858 567.260085,119.987901 568.569827,119.841625 Z M574.774207,117.165806 C573.934717,122.444552 573.095718,127.721821 572.261131,133.00106 C570.519385,133.646743 568.785976,134.317052 567.041288,134.953871 C567.902844,129.810565 568.771265,124.668737 569.627427,119.525925 C571.339261,118.731502 573.05796,117.950378 574.774207,117.165806 Z M583.240503,106.61117 C583.016411,108.977691 582.80948,111.34766 582.590781,113.716152 C584.148153,113.196551 585.701602,112.663653 587.258974,112.140113 C587.193756,113.058155 586.797058,113.958468 586.174796,114.633702 C585.096502,115.614786 583.62151,115.928517 582.288231,116.409209 C581.801308,121.136341 581.238869,125.853623 580.646518,130.566966 C578.876822,131.05209 577.103204,131.527365 575.333508,132.013967 C576.01118,127.390754 576.683459,122.769512 577.35966,118.146792 C576.635894,118.396988 575.915561,118.650632 575.193266,118.904768 C575.306538,118.125614 575.429127,117.346459 575.538477,116.565335 C578.051553,114.585436 579.943838,111.822935 580.912782,108.767881 C581.685093,108.044381 582.456914,107.32088 583.240503,106.61117 Z M593.562308,129.343959 C594.192416,129.343959 594.703857,129.857157 594.703857,130.490528 C594.703857,131.124884 594.192416,131.639066 593.562308,131.639066 C592.930239,131.639066 592.418797,131.124884 592.418797,130.490528 C592.418797,129.857157 592.930239,129.343959 593.562308,129.343959 Z M593.562308,129.508951 C593.022916,129.508951 592.583557,129.947779 592.583557,130.490528 C592.583557,131.032784 593.022916,131.47112 593.562308,131.47112 C594.100719,131.47112 594.539588,131.032784 594.539588,130.490528 C594.539588,129.947779 594.100719,129.508951 593.562308,129.508951 Z M593.767277,129.780325 C594.00559,129.770475 594.179176,129.936451 594.105132,130.190095 C594.069827,130.307806 593.944296,130.428964 593.807486,130.497915 L593.807486,130.497915 L593.97813,130.894388 L593.656947,130.928864 L593.522099,130.582628 C593.456881,130.584598 593.401471,130.586568 593.401471,130.586568 L593.401471,130.586568 L593.278882,130.97122 L592.98761,131.005696 L593.342138,129.847799 C593.342138,129.847799 593.502975,129.792145 593.767277,129.780325 Z M594.104887,113.865777 C594.715871,114.419853 594.914956,115.29751 594.842383,116.093902 C594.738918,117.500025 593.995538,118.758394 593.101128,119.806952 C591.720284,121.248043 589.904005,122.215337 588.032314,122.848708 C587.730255,122.950658 587.720448,122.688641 587.84696,122.590631 C589.71816,121.126392 591.001912,118.971651 591.457453,116.636158 C591.56288,116.176644 591.564841,115.29554 590.978866,115.29554 C590.37916,115.29554 589.830941,116.153496 589.469549,116.740078 C588.509922,118.490959 588.0534,120.462978 587.678277,122.407909 C587.504201,123.32743 587.473308,124.326244 587.879323,125.189618 C588.126463,125.723009 588.647712,126.140167 589.245456,126.159375 C590.128097,126.199761 590.94405,125.743695 591.620252,125.214737 C592.720121,124.322304 593.545391,123.140768 594.221592,121.906039 C594.418715,122.123237 594.614367,122.342405 594.811491,122.560096 C593.849902,124.941885 592.261638,127.15425 590.026594,128.472213 C588.724207,129.251367 587.164874,129.786235 585.636433,129.481863 C584.479683,129.277963 583.468078,128.468272 583.012537,127.379328 C582.368699,125.889971 582.524142,124.197206 582.878179,122.654165 C583.458761,120.095564 584.751831,117.677329 586.690209,115.89936 C588.105378,114.581397 589.861834,113.533331 591.800703,113.275255 C592.600964,113.171335 593.491942,113.300373 594.104887,113.865777 Z" id="logo-sprite"></path>
        </g>
    </g>
</svg>